<svg width="92" height="104" viewBox="0 0 92 104" fill="none" xmlns="http://www.w3.org/2000/svg">
<rect width="2.83783" height="2.83521" rx="1.34409" fill="#979797"/>
<rect x="9.83789" width="2.83789" height="2.83521" rx="1.34409" fill="#979797"/>
<rect x="19.6758" width="2.83783" height="2.83521" rx="1.34409" fill="#979797"/>
<rect x="29.5137" width="2.83783" height="2.83521" rx="1.34409" fill="#979797"/>
<rect x="39.3516" width="2.83783" height="2.83521" rx="1.34409" fill="#979797"/>
<rect x="49.1895" width="2.83783" height="2.83521" rx="1.34409" fill="#979797"/>
<rect x="59.0273" width="2.83783" height="2.83521" rx="1.34409" fill="#979797"/>
<rect x="68.8652" width="2.83783" height="2.83521" rx="1.34409" fill="#979797"/>
<rect x="78.7031" width="2.83783" height="2.83521" rx="1.34409" fill="#979797"/>
<rect x="88.541" width="2.83789" height="2.83521" rx="1.34409" fill="#979797"/>
<rect y="11.3438" width="2.83783" height="2.83521" rx="1.34409" fill="#979797"/>
<rect x="9.83789" y="11.3438" width="2.83783" height="2.83521" rx="1.34409" fill="#979797"/>
<rect x="19.6758" y="11.3438" width="2.83783" height="2.83521" rx="1.34409" fill="#979797"/>
<rect x="29.5137" y="11.3438" width="2.83783" height="2.83521" rx="1.34409" fill="#979797"/>
<rect x="39.3516" y="11.3438" width="2.83783" height="2.83521" rx="1.34409" fill="#979797"/>
<rect x="49.1895" y="11.3438" width="2.83783" height="2.83521" rx="1.34409" fill="#979797"/>
<rect x="59.0273" y="11.3438" width="2.83783" height="2.83521" rx="1.34409" fill="#979797"/>
<rect x="68.8652" y="11.3438" width="2.83783" height="2.83521" rx="1.34409" fill="#979797"/>
<rect x="78.7031" y="11.3438" width="2.83783" height="2.83521" rx="1.34409" fill="#979797"/>
<rect x="88.541" y="11.3438" width="2.83789" height="2.83521" rx="1.34409" fill="#979797"/>
<rect y="22.6875" width="2.83783" height="2.83521" rx="1.34409" fill="#979797"/>
<rect x="9.83789" y="22.6875" width="2.83789" height="2.83521" rx="1.34409" fill="#979797"/>
<rect x="19.6758" y="22.6875" width="2.83783" height="2.83521" rx="1.34409" fill="#979797"/>
<rect x="29.5137" y="22.6875" width="2.83783" height="2.83521" rx="1.34409" fill="#979797"/>
<rect x="39.3516" y="22.6875" width="2.83783" height="2.83521" rx="1.34409" fill="#979797"/>
<rect x="49.1895" y="22.6875" width="2.83783" height="2.83521" rx="1.34409" fill="#979797"/>
<rect x="59.0273" y="22.6875" width="2.83783" height="2.83521" rx="1.34409" fill="#979797"/>
<rect x="68.8652" y="22.6875" width="2.83783" height="2.83521" rx="1.34409" fill="#979797"/>
<rect x="78.7031" y="22.6875" width="2.83783" height="2.83521" rx="1.34409" fill="#979797"/>
<rect x="88.541" y="22.6875" width="2.83789" height="2.83521" rx="1.34409" fill="#979797"/>
<rect y="34.0312" width="2.83783" height="2.83521" rx="1.34409" fill="#979797"/>
<rect x="9.83789" y="34.0312" width="2.83783" height="2.83521" rx="1.34409" fill="#979797"/>
<rect x="19.6758" y="34.0312" width="2.83783" height="2.83521" rx="1.34409" fill="#979797"/>
<rect x="29.5137" y="34.0312" width="2.83783" height="2.83521" rx="1.34409" fill="#979797"/>
<rect x="39.3516" y="34.0312" width="2.83783" height="2.83521" rx="1.34409" fill="#979797"/>
<rect x="49.1895" y="34.0312" width="2.83783" height="2.83521" rx="1.34409" fill="#979797"/>
<rect x="59.0273" y="34.0312" width="2.83783" height="2.83521" rx="1.34409" fill="#979797"/>
<rect x="68.8652" y="34.0312" width="2.83783" height="2.83521" rx="1.34409" fill="#979797"/>
<rect x="78.7031" y="34.0312" width="2.83783" height="2.83521" rx="1.34409" fill="#979797"/>
<rect x="88.541" y="34.0312" width="2.83789" height="2.83521" rx="1.34409" fill="#979797"/>
<rect y="45.375" width="2.83783" height="2.83533" rx="1.34409" fill="#979797"/>
<rect x="9.83789" y="45.375" width="2.83783" height="2.83533" rx="1.34409" fill="#979797"/>
<rect x="19.6758" y="45.375" width="2.83783" height="2.83533" rx="1.34409" fill="#979797"/>
<rect x="29.5137" y="45.375" width="2.83783" height="2.83533" rx="1.34409" fill="#979797"/>
<rect x="39.3516" y="45.375" width="2.83783" height="2.83533" rx="1.34409" fill="#979797"/>
<rect x="49.1895" y="45.375" width="2.83783" height="2.83533" rx="1.34409" fill="#979797"/>
<rect x="59.0273" y="45.375" width="2.83783" height="2.83533" rx="1.34409" fill="#979797"/>
<rect x="68.8652" y="45.375" width="2.83783" height="2.83533" rx="1.34409" fill="#979797"/>
<rect x="78.7031" y="45.375" width="2.83783" height="2.83533" rx="1.34409" fill="#979797"/>
<rect x="88.541" y="45.375" width="2.83789" height="2.83533" rx="1.34409" fill="#979797"/>
<rect y="56.7192" width="2.83783" height="2.83521" rx="1.34409" fill="#979797"/>
<rect x="9.83789" y="56.7192" width="2.83789" height="2.83521" rx="1.34409" fill="#979797"/>
<rect x="19.6758" y="56.7192" width="2.83783" height="2.83521" rx="1.34409" fill="#979797"/>
<rect x="29.5137" y="56.7192" width="2.83783" height="2.83521" rx="1.34409" fill="#979797"/>
<rect x="39.3516" y="56.7192" width="2.83783" height="2.83521" rx="1.34409" fill="#979797"/>
<rect x="49.1895" y="56.7192" width="2.83783" height="2.83521" rx="1.34409" fill="#979797"/>
<rect x="59.0273" y="56.7192" width="2.83783" height="2.83521" rx="1.34409" fill="#979797"/>
<rect x="68.8652" y="56.7192" width="2.83783" height="2.83521" rx="1.34409" fill="#979797"/>
<rect x="78.7031" y="56.7192" width="2.83783" height="2.83521" rx="1.34409" fill="#979797"/>
<rect x="88.541" y="56.7192" width="2.83789" height="2.83521" rx="1.34409" fill="#979797"/>
<rect y="68.063" width="2.83783" height="2.83521" rx="1.34409" fill="#979797"/>
<rect y="79.0034" width="2.83783" height="2.83521" rx="1.34409" fill="#979797"/>
<rect y="89.9438" width="2.83783" height="2.83521" rx="1.34409" fill="#979797"/>
<rect y="100.885" width="2.83783" height="2.83521" rx="1.34409" fill="#979797"/>
<rect x="9.83789" y="68.063" width="2.83783" height="2.83521" rx="1.34409" fill="#979797"/>
<rect x="9.83789" y="79.0034" width="2.83789" height="2.83521" rx="1.34409" fill="#979797"/>
<rect x="9.83789" y="89.9438" width="2.83783" height="2.83521" rx="1.34409" fill="#979797"/>
<rect x="9.83789" y="100.885" width="2.83783" height="2.83521" rx="1.34409" fill="#979797"/>
<rect x="19.6758" y="68.063" width="2.83783" height="2.83521" rx="1.34409" fill="#979797"/>
<rect x="19.6758" y="79.0034" width="2.83783" height="2.83521" rx="1.34409" fill="#979797"/>
<rect x="19.6758" y="89.9438" width="2.83783" height="2.83521" rx="1.34409" fill="#979797"/>
<rect x="19.6758" y="100.885" width="2.83783" height="2.83521" rx="1.34409" fill="#979797"/>
<rect x="29.5137" y="68.063" width="2.83783" height="2.83521" rx="1.34409" fill="#979797"/>
<rect x="29.5137" y="79.0034" width="2.83783" height="2.83521" rx="1.34409" fill="#979797"/>
<rect x="29.5137" y="89.9438" width="2.83783" height="2.83521" rx="1.34409" fill="#979797"/>
<rect x="29.5137" y="100.885" width="2.83783" height="2.83521" rx="1.34409" fill="#979797"/>
<rect x="39.3516" y="68.063" width="2.83783" height="2.83521" rx="1.34409" fill="#979797"/>
<rect x="39.3516" y="79.0034" width="2.83783" height="2.83521" rx="1.34409" fill="#979797"/>
<rect x="39.3516" y="89.9438" width="2.83783" height="2.83521" rx="1.34409" fill="#979797"/>
<rect x="39.3516" y="100.885" width="2.83783" height="2.83521" rx="1.34409" fill="#979797"/>
<rect x="49.1895" y="68.063" width="2.83783" height="2.83521" rx="1.34409" fill="#979797"/>
<rect x="49.1895" y="79.0034" width="2.83783" height="2.83521" rx="1.34409" fill="#979797"/>
<rect x="49.1895" y="89.9438" width="2.83783" height="2.83521" rx="1.34409" fill="#979797"/>
<rect x="49.1895" y="100.885" width="2.83783" height="2.83521" rx="1.34409" fill="#979797"/>
<rect x="59.0273" y="68.063" width="2.83783" height="2.83521" rx="1.34409" fill="#979797"/>
<rect x="59.0273" y="79.0034" width="2.83783" height="2.83521" rx="1.34409" fill="#979797"/>
<rect x="59.0273" y="89.9438" width="2.83783" height="2.83521" rx="1.34409" fill="#979797"/>
<rect x="59.0273" y="100.885" width="2.83783" height="2.83521" rx="1.34409" fill="#979797"/>
<rect x="68.8652" y="68.063" width="2.83783" height="2.83521" rx="1.34409" fill="#979797"/>
<rect x="68.8652" y="79.0034" width="2.83783" height="2.83521" rx="1.34409" fill="#979797"/>
<rect x="68.8652" y="89.9438" width="2.83783" height="2.83521" rx="1.34409" fill="#979797"/>
<rect x="68.8652" y="100.885" width="2.83783" height="2.83521" rx="1.34409" fill="#979797"/>
<rect x="78.7031" y="68.063" width="2.83783" height="2.83521" rx="1.34409" fill="#979797"/>
<rect x="78.7031" y="79.0034" width="2.83783" height="2.83521" rx="1.34409" fill="#979797"/>
<rect x="78.7031" y="89.9438" width="2.83783" height="2.83521" rx="1.34409" fill="#979797"/>
<rect x="78.7031" y="100.885" width="2.83783" height="2.83521" rx="1.34409" fill="#979797"/>
<rect x="88.541" y="68.063" width="2.83789" height="2.83521" rx="1.34409" fill="#979797"/>
<rect x="88.541" y="79.0034" width="2.83789" height="2.83521" rx="1.34409" fill="#979797"/>
<rect x="88.541" y="89.9438" width="2.83789" height="2.83521" rx="1.34409" fill="#979797"/>
<rect x="88.541" y="100.885" width="2.83789" height="2.83521" rx="1.34409" fill="#979797"/>
</svg>
