<svg width="258" height="104" viewBox="0 0 258 104" fill="none" xmlns="http://www.w3.org/2000/svg">
<g clip-path="url(#clip0_2506_209)">
<path d="M249.252 58.3002C235.226 59.4756 227.266 51.8725 220.878 45.7524C215.193 40.3036 210.687 36.0056 202.377 36.7019C194.067 37.3982 190.347 42.3855 185.659 48.7036C180.39 55.8004 173.834 64.6057 159.795 65.7961C145.755 66.9865 137.809 59.3684 131.436 53.2611C125.751 47.8122 121.245 43.5143 112.935 44.2106C104.625 44.9069 100.905 49.8942 96.2164 56.2122C90.9478 63.309 84.3916 72.1144 70.3651 73.2897C56.3386 74.465 48.379 66.8619 41.9914 60.7419C36.3065 55.293 31.8002 50.995 23.4903 51.6914C19.9918 51.9985 16.9066 49.3927 16.6243 45.8922C16.3292 42.4067 18.9327 39.3242 22.4184 39.0322C36.4577 37.8417 44.4045 45.4599 50.777 51.5672C56.4619 57.016 60.9682 61.314 69.2781 60.6177C77.5881 59.9214 81.3081 54.9341 85.9967 48.616C91.2652 41.5193 97.8214 32.7139 111.848 31.5386C125.902 30.361 133.834 37.9663 140.222 44.0864C145.907 49.5353 150.398 53.8205 158.723 53.1369C167.048 52.4534 170.753 47.4533 175.441 41.1353C180.697 34.0536 187.266 25.2332 201.293 24.0578C215.347 22.8802 223.279 30.4856 229.651 36.5929C235.336 42.0417 239.842 46.3397 248.152 45.6434C251.638 45.3513 254.723 47.9571 255.018 51.4426C255.329 54.9408 252.738 58.0082 249.252 58.3002Z" fill="#F8A8C3"/>
</g>
<defs>
<clipPath id="clip0_2506_209">
<rect width="258" height="104" fill="white"/>
</clipPath>
</defs>
</svg>
