<svg width="235" height="177" viewBox="0 0 235 177" fill="none" xmlns="http://www.w3.org/2000/svg">
<path d="M70.5583 140.083L44.9785 126.075C50.8535 117.104 51.3 111.984 52.3046 104.857C55.53 82.0536 78.1546 67.4992 95.7503 55.5046C97.2322 54.4604 98.7676 53.4942 100.35 52.6101C102.225 51.6062 107.4 48.5004 108.781 51.3713C110.091 54.1249 106.842 59.1388 105.221 61.1525C106.286 59.5574 107.464 58.0407 108.746 56.6142C109.146 56.0817 109.699 55.6843 110.332 55.4752C111.507 55.2051 112.647 56.3324 112.829 57.5242C113.011 58.716 112.512 59.9079 111.959 60.9882C110.651 63.5786 109.014 65.9899 107.089 68.1626C108.382 66.7066 113.158 61.223 113.058 66.7712C112.978 70.2678 111.519 73.5913 108.998 76.0181C110.093 75.0508 111.273 74.1842 112.523 73.429C112.7 73.2889 112.905 73.1873 113.123 73.1307C113.342 73.0741 113.57 73.0637 113.792 73.1002C114.028 73.2142 114.23 73.387 114.379 73.602C114.529 73.817 114.62 74.0668 114.644 74.3272C115.443 77.8851 113.469 80.4273 112.106 83.4685C111.055 85.8169 110.438 88.0656 109.092 90.3494C104.234 98.6041 99.1754 104.334 93.6118 112.137C92.237 114.145 70.6346 140.119 70.5583 140.083Z" fill="white"/>
<path d="M70.5292 140.377C70.4945 140.373 70.4608 140.363 70.4293 140.348L44.8378 126.351C44.8028 126.331 44.7723 126.304 44.7481 126.271C44.7239 126.239 44.7064 126.202 44.6968 126.163C44.6856 126.123 44.6835 126.082 44.6907 126.041C44.6978 126 44.7139 125.962 44.7379 125.928C50.2487 117.533 50.9537 112.46 51.8467 106.037L52.017 104.833C55.1367 82.7816 76.4218 68.3094 93.5298 56.6905L95.586 55.2874C97.0746 54.2254 98.6201 53.2454 100.216 52.3518L100.627 52.1287C102.389 51.1659 105.656 49.381 107.677 50.0386C107.976 50.1317 108.252 50.2878 108.486 50.4965C108.721 50.7051 108.907 50.9613 109.034 51.2481C109.745 52.7334 109.24 54.7355 108.405 56.532L108.535 56.3852C108.98 55.8029 109.596 55.374 110.297 55.1582C110.578 55.0997 110.869 55.1002 111.15 55.1599C111.431 55.2195 111.697 55.3369 111.93 55.5046C112.255 55.7305 112.53 56.0197 112.74 56.3546C112.95 56.6895 113.09 57.0634 113.152 57.4538C113.346 58.7219 112.841 59.949 112.259 61.0938C111.597 62.4005 110.851 63.6634 110.027 64.8748C110.92 64.2114 111.754 63.8474 112.377 64.0998C113 64.3523 113.387 65.2799 113.387 66.7771C113.325 69.3834 112.509 71.916 111.037 74.0689C111.478 73.7636 111.93 73.4818 112.394 73.1941C112.605 73.0303 112.848 72.9135 113.107 72.8517C113.367 72.7899 113.637 72.7846 113.898 72.836C114.187 72.9612 114.436 73.1611 114.621 73.415C114.806 73.669 114.92 73.9677 114.95 74.2803C115.602 77.2158 114.48 79.4116 113.293 81.76C112.988 82.3471 112.706 82.9754 112.394 83.6094C112.024 84.4314 111.707 85.2592 111.396 86.0577C110.844 87.5973 110.164 89.0879 109.363 90.5138C106.132 96.0091 102.824 100.365 99.3225 104.986C97.56 107.305 95.7388 109.683 93.8705 112.325C92.9717 113.587 84.4118 123.926 81.8092 127.067C79.0127 130.431 76.2632 133.743 74.201 136.203C71.1695 139.86 70.7348 140.377 70.5292 140.377ZM45.4018 125.987L70.4998 139.713C72.2623 137.6 91.8202 114.233 93.4123 111.984C95.2864 109.354 97.1135 106.953 98.876 104.628C102.366 100.025 105.668 95.6804 108.864 90.2144C109.648 88.8144 110.314 87.3513 110.855 85.8404C111.167 85.0361 111.49 84.2083 111.866 83.3687C112.148 82.7229 112.453 82.1006 112.77 81.4958C113.91 79.2472 114.985 77.1219 114.38 74.4095C114.292 74.0102 114.104 73.5112 113.734 73.3996C113.55 73.3768 113.364 73.3915 113.186 73.443C113.008 73.4945 112.843 73.5816 112.7 73.6991C111.449 74.4424 110.269 75.2993 109.175 76.2588C109.12 76.3126 109.046 76.3428 108.969 76.3428C108.892 76.3428 108.819 76.3126 108.764 76.2588C108.711 76.2033 108.682 76.1298 108.682 76.0534C108.682 75.977 108.711 75.9034 108.764 75.8479C110.002 74.6766 110.996 73.2722 111.689 71.7154C112.381 70.1586 112.759 68.4803 112.8 66.7771C112.8 65.5735 112.612 64.8513 112.212 64.6869C111.431 64.3817 109.815 65.6028 107.424 68.3094L107.377 68.3622C107.354 68.3967 107.323 68.4258 107.287 68.4476C107.252 68.4693 107.212 68.4832 107.17 68.4883C107.129 68.4933 107.087 68.4895 107.047 68.4771C107.007 68.4646 106.97 68.4438 106.939 68.416C106.908 68.3882 106.883 68.354 106.866 68.3159C106.849 68.2777 106.84 68.2363 106.841 68.1946C106.841 68.1528 106.85 68.1116 106.868 68.0737C106.885 68.0358 106.911 68.0021 106.942 67.9748C108.827 65.8295 110.432 63.4543 111.719 60.906C112.253 59.8492 112.723 58.7219 112.553 57.6182C112.503 57.3077 112.39 57.0106 112.223 56.7443C112.055 56.478 111.836 56.2481 111.578 56.0682C111.412 55.944 111.221 55.8567 111.018 55.8122C110.816 55.7676 110.606 55.7668 110.403 55.8099C109.832 56.0063 109.335 56.3706 108.975 56.8549C108.223 57.6886 107.501 58.5517 106.819 59.4499C106.108 60.542 105.509 61.2993 105.433 61.3874C105.385 61.4454 105.318 61.4833 105.243 61.4931C105.169 61.5029 105.094 61.484 105.033 61.4402C104.971 61.3954 104.928 61.3278 104.915 61.2521C104.902 61.1763 104.919 61.0984 104.963 61.0351C105.427 60.3482 105.908 59.673 106.414 59.0155C107.941 56.6671 109.416 53.4556 108.505 51.5416C108.416 51.3246 108.282 51.1294 108.11 50.9692C107.939 50.8091 107.735 50.6879 107.512 50.614C105.72 50.0269 102.477 51.7882 100.915 52.6571L100.498 52.8861C98.9215 53.7623 97.3937 54.7226 95.9209 55.7629L93.8647 57.1602C76.8565 68.7262 55.6772 83.1221 52.6045 104.916L52.4342 106.09C51.5353 112.571 50.8244 117.632 45.4018 125.987Z" fill="#002947"/>
<path d="M76.6688 154.949L80.3054 132.909C80.3054 132.909 46.3596 119.54 45.825 119.241C45.402 119.018 33.4111 154.949 33.4111 154.949H76.6688Z" fill="#002947"/>
<path d="M76.6684 155.242H33.3873C33.3408 155.242 33.2951 155.231 33.2539 155.209C33.2127 155.188 33.1771 155.157 33.1502 155.119C33.1232 155.081 33.1056 155.038 33.0989 154.992C33.0921 154.946 33.0963 154.899 33.1112 154.855C44.9963 119.247 45.5133 119.041 45.6837 118.971C45.7235 118.954 45.7665 118.945 45.81 118.945C45.8534 118.945 45.8964 118.954 45.9363 118.971C46.4885 119.247 68.7313 128.024 80.4108 132.627C80.4732 132.651 80.5255 132.695 80.5587 132.753C80.5919 132.811 80.604 132.878 80.5929 132.944L76.9622 154.996C76.9509 155.065 76.915 155.128 76.8611 155.174C76.8072 155.219 76.7388 155.243 76.6684 155.242ZM33.7809 154.655H76.3981L79.976 133.12C76.9387 131.946 48.8797 120.867 45.901 119.617C44.8964 121.736 38.2518 141.304 33.7985 154.655H33.7809Z" fill="#002947"/>
<path d="M102.796 22.2154L54.5258 36.8711C52.455 37.4998 51.2864 39.6871 51.9155 41.7564L78.4747 129.115C79.1038 131.184 81.2925 132.352 83.3632 131.723L131.633 117.067C133.704 116.439 134.873 114.251 134.243 112.182L107.684 24.8239C107.055 22.7545 104.866 21.5867 102.796 22.2154Z" fill="#002947"/>
<path d="M82.2494 132.193C81.3457 132.192 80.466 131.902 79.7403 131.364C79.0146 130.826 78.4813 130.068 78.2191 129.204L51.6347 41.8484C51.4689 41.3177 51.41 40.7593 51.4613 40.2057C51.5127 39.652 51.6732 39.114 51.9338 38.6227C52.1944 38.1314 52.5497 37.6966 52.9794 37.3433C53.4091 36.99 53.9045 36.7253 54.4371 36.5645L102.712 21.8868C103.241 21.7256 103.796 21.6702 104.347 21.7238C104.897 21.7773 105.431 21.9388 105.919 22.1989C106.407 22.459 106.839 22.8126 107.19 23.2396C107.54 23.6666 107.804 24.1585 107.964 24.6873L134.537 112.108C134.861 113.176 134.747 114.329 134.22 115.313C133.694 116.297 132.797 117.032 131.729 117.356L83.4596 132.034C83.0661 132.146 82.6584 132.199 82.2494 132.193ZM103.987 22.3447C103.628 22.3452 103.272 22.3986 102.929 22.5032L54.6369 37.1574C54.1812 37.2957 53.7573 37.5224 53.3893 37.8244C53.0213 38.1265 52.7165 38.498 52.4923 38.9178C52.268 39.3377 52.1288 39.7975 52.0824 40.2712C52.0361 40.7448 52.0836 41.2229 52.2222 41.6782L78.7244 129.01C79.0052 129.929 79.6391 130.699 80.4871 131.151C81.3351 131.604 82.328 131.702 83.2481 131.423L131.517 116.746C132.429 116.47 133.195 115.846 133.65 115.01C134.105 114.174 134.213 113.193 133.949 112.278L107.406 24.9162C107.18 24.1733 106.721 23.5226 106.097 23.0597C105.473 22.5968 104.717 22.3462 103.94 22.3447H103.987Z" fill="#002947"/>
<path d="M106.058 29.5821L56.1465 44.7362L78.7775 119.174L128.689 104.02L106.058 29.5821Z" fill="white"/>
<path d="M78.7716 119.47C78.7242 119.47 78.6776 119.458 78.6364 119.435C78.6016 119.418 78.5706 119.394 78.5453 119.365C78.52 119.336 78.5011 119.301 78.4896 119.264L55.8649 44.8251C55.849 44.79 55.8408 44.752 55.8408 44.7135C55.8408 44.6751 55.849 44.637 55.8649 44.602C55.8827 44.5684 55.9068 44.5387 55.9361 44.5145C55.9653 44.4903 55.999 44.4722 56.0353 44.4611L105.973 29.3078C106.047 29.2858 106.127 29.2938 106.195 29.33C106.263 29.3663 106.314 29.4279 106.337 29.5016L128.968 103.941C128.979 103.978 128.983 104.018 128.98 104.057C128.976 104.096 128.964 104.134 128.946 104.168C128.927 104.202 128.902 104.233 128.871 104.257C128.841 104.282 128.805 104.3 128.768 104.311L78.8303 119.458C78.8113 119.465 78.7916 119.469 78.7716 119.47ZM56.5112 44.9366L78.9654 118.812L128.315 103.829L105.861 29.9536L56.5112 44.9366Z" fill="#002947"/>
<path d="M101.925 122.3C101.459 122.299 101.005 122.15 100.629 121.873C100.254 121.596 99.9773 121.207 99.8393 120.762L99.1402 118.443C98.9734 117.891 99.0318 117.296 99.3026 116.788C99.5735 116.28 100.035 115.899 100.585 115.73L109.692 112.971C109.965 112.886 110.252 112.857 110.536 112.884C110.821 112.911 111.097 112.994 111.349 113.129C111.602 113.263 111.825 113.446 112.006 113.666C112.188 113.887 112.323 114.142 112.406 114.415L113.105 116.763C113.189 117.036 113.219 117.323 113.192 117.607C113.164 117.892 113.081 118.168 112.947 118.42C112.813 118.672 112.63 118.895 112.409 119.076C112.188 119.258 111.933 119.393 111.66 119.476L102.554 122.235C102.348 122.288 102.137 122.31 101.925 122.3ZM110.326 113.458C110.169 113.458 110.012 113.482 109.862 113.528L100.756 116.294C100.354 116.417 100.017 116.694 99.8189 117.065C99.6207 117.436 99.5774 117.87 99.6983 118.272L100.403 120.591C100.527 120.993 100.804 121.33 101.175 121.528C101.546 121.726 101.98 121.769 102.383 121.648L111.489 118.883C111.689 118.823 111.876 118.724 112.037 118.592C112.199 118.46 112.332 118.298 112.431 118.114C112.529 117.93 112.59 117.728 112.61 117.521C112.63 117.313 112.608 117.104 112.547 116.904L111.842 114.585C111.744 114.26 111.543 113.974 111.27 113.771C110.997 113.568 110.666 113.459 110.326 113.458Z" fill="#D1D3D4"/>
<path d="M68.7661 37.4569C68.7033 37.4572 68.642 37.4375 68.5913 37.4005C68.5405 37.3635 68.503 37.3113 68.4841 37.2514C68.4619 37.1766 68.4697 37.0962 68.5059 37.0271C68.5421 36.958 68.6038 36.9058 68.678 36.8815L84.4817 32.0848C84.5596 32.0615 84.6437 32.07 84.7153 32.1085C84.7869 32.1471 84.8402 32.2125 84.8636 32.2903C84.887 32.3682 84.8785 32.4521 84.8399 32.5237C84.8013 32.5952 84.7359 32.6486 84.658 32.6719L68.8484 37.4216L68.7661 37.4569Z" fill="#D1D3D4"/>
<path d="M86.7856 31.985C86.723 31.9845 86.6622 31.9644 86.6116 31.9276C86.561 31.8907 86.5233 31.8389 86.5036 31.7795C86.4919 31.7422 86.4878 31.7028 86.4916 31.6638C86.4953 31.6248 86.5069 31.587 86.5255 31.5525C86.5441 31.5181 86.5694 31.4877 86.6 31.4631C86.6305 31.4386 86.6657 31.4204 86.7034 31.4097L88.8243 30.7697C88.8622 30.7531 88.9033 30.7447 88.9447 30.7451C88.9862 30.7455 89.0271 30.7547 89.0647 30.772C89.1024 30.7893 89.1359 30.8144 89.1632 30.8456C89.1905 30.8767 89.2108 30.9134 89.2229 30.953C89.235 30.9926 89.2386 31.0343 89.2334 31.0754C89.2282 31.1165 89.2144 31.156 89.1928 31.1914C89.1713 31.2268 89.1425 31.2572 89.1083 31.2806C89.0741 31.3041 89.0354 31.32 88.9946 31.3275L86.8737 31.9733C86.8454 31.9829 86.8155 31.9869 86.7856 31.985Z" fill="#D1D3D4"/>
<path d="M98.4474 52.4549L64.9053 62.639L75.0962 96.1588L108.638 85.9747L98.4474 52.4549Z" fill="#F8A8C3"/>
<path d="M75.0943 96.4553C75.0315 96.4557 74.9702 96.436 74.9194 96.399C74.8687 96.362 74.8311 96.3097 74.8123 96.2499L64.625 62.726C64.6133 62.6894 64.609 62.6508 64.6125 62.6125C64.6159 62.5742 64.627 62.537 64.6451 62.5031C64.6632 62.4692 64.6878 62.4392 64.7177 62.415C64.7476 62.3907 64.782 62.3727 64.8189 62.362L98.3593 52.1815C98.4341 52.1593 98.5146 52.1671 98.5837 52.2033C98.6529 52.2395 98.7051 52.3012 98.7294 52.3753L108.917 85.8933C108.939 85.968 108.931 86.0485 108.895 86.1176C108.859 86.1866 108.797 86.2389 108.723 86.2632L75.2 96.4436C75.1664 96.4565 75.13 96.4605 75.0943 96.4553ZM65.2713 62.8376L75.2882 95.7978L108.27 85.7876L98.2477 52.8274L65.2713 62.8376Z" fill="#002947"/>
<path d="M108.638 85.9689L75.0957 96.153L77.6865 104.675L111.229 94.4907L108.638 85.9689Z" fill="white"/>
<path d="M77.6792 104.974C77.6343 104.971 77.5903 104.959 77.55 104.939C77.5156 104.921 77.4853 104.896 77.4611 104.866C77.4368 104.835 77.4191 104.8 77.409 104.763L74.8181 96.244C74.7959 96.1692 74.8037 96.0887 74.8399 96.0197C74.8761 95.9506 74.9378 95.8984 75.012 95.8741L108.558 85.6936C108.632 85.6716 108.712 85.6796 108.78 85.7158C108.848 85.7521 108.899 85.8137 108.922 85.8874L111.513 94.4122C111.542 94.4838 111.542 94.5637 111.513 94.6353C111.475 94.703 111.412 94.7534 111.337 94.7762L77.7673 104.939C77.7407 104.957 77.7107 104.969 77.6792 104.974ZM75.4585 96.3614L77.879 104.317L110.861 94.3065L108.441 86.3453L75.4585 96.3614Z" fill="#002947"/>
<path d="M79.6997 97.7704C79.6369 97.7708 79.5756 97.7511 79.5249 97.7141C79.4741 97.6771 79.4365 97.6248 79.4177 97.5649C79.3955 97.4902 79.4033 97.4097 79.4395 97.3407C79.4757 97.2716 79.5374 97.2194 79.6116 97.1951L105.462 89.3513C105.539 89.3279 105.623 89.3365 105.695 89.375C105.767 89.4136 105.82 89.4789 105.843 89.5568C105.867 89.6346 105.858 89.7186 105.82 89.7902C105.781 89.8617 105.716 89.9151 105.638 89.9384L79.7878 97.7822L79.6997 97.7704Z" fill="#D1D3D4"/>
<path d="M80.6048 100.753C80.541 100.754 80.4787 100.734 80.4276 100.695C80.3766 100.657 80.3397 100.603 80.3228 100.542C80.3007 100.468 80.3087 100.388 80.345 100.32C80.3813 100.252 80.4429 100.201 80.5167 100.178L104.663 92.8446C104.741 92.822 104.825 92.8313 104.896 92.8704C104.967 92.9095 105.019 92.9752 105.042 93.053C105.064 93.1309 105.055 93.2145 105.016 93.2855C104.977 93.3566 104.911 93.4091 104.833 93.4317L80.687 100.759C80.6595 100.762 80.6315 100.76 80.6048 100.753Z" fill="#D1D3D4"/>
<path d="M78.5251 84.5899C78.4617 84.589 78.4003 84.568 78.3497 84.53C78.299 84.4921 78.2617 84.439 78.2431 84.3785L74.0836 70.6813C74.0542 70.6098 74.0542 70.5297 74.0836 70.4582C74.1234 70.3916 74.186 70.3416 74.2598 70.3173L94.9104 64.047C94.9819 64.0176 95.0621 64.0176 95.1337 64.047C95.168 64.0651 95.1983 64.09 95.2226 64.1203C95.2468 64.1506 95.2646 64.1856 95.2747 64.2231L99.4577 77.9321C99.4864 78.0037 99.4864 78.0836 99.4577 78.1552C99.42 78.2214 99.3594 78.2715 99.2873 78.2961L78.6367 84.5664L78.5251 84.5899ZM74.7298 70.7929L78.7248 83.9265L98.8173 77.8323L94.8223 64.6928L74.7298 70.7929Z" fill="white"/>
<path d="M78.5248 84.5899C78.4775 84.5902 78.4309 84.578 78.3897 84.5547C78.3552 84.5367 78.3246 84.5121 78.2997 84.4823C78.2747 84.4524 78.256 84.4179 78.2445 84.3808C78.233 84.3437 78.2291 84.3046 78.2328 84.2659C78.2366 84.2272 78.2479 84.1897 78.2663 84.1554L83.5186 74.2979C83.5541 74.2287 83.6152 74.1761 83.689 74.1511C83.7625 74.122 83.8445 74.122 83.9181 74.1511L93.7704 79.4351C93.839 79.4724 93.8899 79.5355 93.9119 79.6104C93.934 79.6852 93.9253 79.7658 93.8879 79.8343C93.8505 79.9028 93.7874 79.9537 93.7125 79.9757C93.6376 79.9977 93.557 79.9891 93.4884 79.9517L83.9005 74.8145L78.7833 84.4137C78.7612 84.4645 78.7252 84.5079 78.6795 84.5391C78.6338 84.5702 78.5802 84.5878 78.5248 84.5899Z" fill="white"/>
<path d="M91.0617 78.619C91.0098 78.62 90.9587 78.6057 90.9148 78.5779C90.8471 78.5397 90.7974 78.4762 90.7765 78.4013C90.7555 78.3265 90.7652 78.2464 90.8032 78.1787L93.3177 73.7578C93.3536 73.6954 93.4107 73.648 93.4787 73.6243C93.5467 73.6006 93.6209 73.6021 93.6878 73.6286L98.7051 75.7715C98.7738 75.8038 98.8273 75.8615 98.8545 75.9324C98.8816 76.0032 98.8802 76.0819 98.8505 76.1517C98.8209 76.2216 98.7653 76.2773 98.6955 76.3071C98.6257 76.3369 98.547 76.3386 98.476 76.3117L93.6996 74.2744L91.3143 78.4722C91.2887 78.5166 91.2519 78.5535 91.2076 78.5792C91.1633 78.605 91.113 78.6187 91.0617 78.619Z" fill="white"/>
<path d="M89.2113 73.611C88.7556 73.6095 88.3124 73.4622 87.9465 73.1907C87.5807 72.9191 87.3116 72.5376 87.1785 72.1021C87.0969 71.835 87.0689 71.5544 87.0959 71.2764C87.1229 70.9984 87.2045 70.7284 87.336 70.482C87.4675 70.2355 87.6464 70.0174 87.8623 69.84C88.0782 69.6627 88.327 69.5296 88.5944 69.4484C88.8621 69.367 89.1432 69.3392 89.4217 69.3666C89.7002 69.394 89.9705 69.476 90.2172 69.608C90.4639 69.74 90.6821 69.9194 90.8593 70.1358C91.0365 70.3522 91.1692 70.6014 91.2499 70.8692C91.4128 71.4079 91.3552 71.9893 91.0898 72.4857C90.8244 72.9821 90.3728 73.353 89.834 73.517C89.6324 73.5798 89.4224 73.6114 89.2113 73.611ZM89.2113 69.9474C89.058 69.9454 88.9054 69.9672 88.7589 70.012C88.3962 70.1519 88.1 70.4237 87.9296 70.7729C87.7593 71.1221 87.7274 71.5228 87.8405 71.8944C87.9536 72.2661 88.2032 72.5813 88.5392 72.7766C88.8752 72.9719 89.2727 73.033 89.6519 72.9476C90.0446 72.8276 90.374 72.5575 90.5684 72.1961C90.664 72.0175 90.7231 71.8217 90.7423 71.6202C90.7614 71.4186 90.7403 71.2152 90.68 71.0218C90.5844 70.7067 90.3901 70.4305 90.1257 70.2339C89.8614 70.0373 89.5408 69.9307 89.2113 69.9298V69.9474Z" fill="white"/>
<path d="M134.552 41.8585L100.898 52.018L111.065 85.6494L144.719 75.4899L134.552 41.8585Z" fill="#F8A8C3"/>
<path d="M110.784 85.6232C110.737 85.6235 110.69 85.6114 110.649 85.588C110.614 85.57 110.583 85.5451 110.558 85.5149C110.532 85.4846 110.514 85.4496 110.502 85.4119L100.315 51.8939C100.293 51.8199 100.301 51.7402 100.337 51.6721C100.373 51.604 100.435 51.5529 100.509 51.5299L134.055 41.3435C134.127 41.3175 134.206 41.3175 134.278 41.3435C134.346 41.3821 134.397 41.4451 134.419 41.5197L144.607 75.0377C144.629 75.1116 144.621 75.1913 144.584 75.2594C144.548 75.3275 144.486 75.3786 144.413 75.4017L110.872 85.588L110.784 85.6232ZM100.961 52.0054L110.978 84.9774L143.96 74.9966L133.949 41.9894L100.961 52.0054Z" fill="#002947"/>
<path d="M144.741 75.4954L111.087 85.6548L113.672 94.205L147.325 84.0455L144.741 75.4954Z" fill="white"/>
<path d="M113.388 94.1422C113.338 94.1417 113.29 94.1296 113.247 94.1069C113.179 94.0684 113.128 94.0053 113.106 93.9308L110.515 85.4119C110.504 85.3748 110.5 85.3361 110.505 85.2977C110.509 85.2594 110.521 85.2223 110.539 85.1885C110.558 85.1547 110.583 85.1249 110.613 85.1008C110.643 85.0766 110.677 85.0586 110.714 85.0478L144.255 74.8674C144.329 74.8453 144.409 74.8533 144.477 74.8896C144.545 74.9258 144.596 74.9875 144.619 75.0611L147.21 83.5801C147.226 83.6151 147.234 83.6531 147.234 83.6916C147.234 83.7301 147.226 83.7681 147.21 83.8032C147.193 83.838 147.169 83.869 147.14 83.8943C147.111 83.9195 147.077 83.9385 147.04 83.95L113.493 94.1304L113.388 94.1422ZM111.161 85.5234L113.581 93.4846L146.564 83.4685L144.143 75.5132L111.161 85.5234Z" fill="#002947"/>
<path d="M115.39 86.9383C115.327 86.9374 115.266 86.9164 115.215 86.8784C115.164 86.8405 115.127 86.7874 115.108 86.7269C115.087 86.6522 115.095 86.5719 115.133 86.5036C115.17 86.4353 115.233 86.3847 115.308 86.3629L141.158 78.5192C141.229 78.5063 141.302 78.5198 141.364 78.5573C141.425 78.5947 141.471 78.6534 141.492 78.7223C141.513 78.7911 141.508 78.8652 141.478 78.9306C141.448 78.996 141.395 79.0481 141.329 79.0769L115.479 86.9207C115.451 86.9322 115.421 86.9382 115.39 86.9383Z" fill="#D1D3D4"/>
<path d="M116.325 89.915C116.262 89.9144 116.201 89.8943 116.151 89.8575C116.1 89.8206 116.062 89.7689 116.043 89.7095C116.031 89.6721 116.027 89.6327 116.031 89.5938C116.034 89.5548 116.046 89.5169 116.065 89.4825C116.083 89.448 116.108 89.4176 116.139 89.3931C116.17 89.3685 116.205 89.3503 116.242 89.3396L137.046 83.0282C137.117 83.0153 137.19 83.0289 137.251 83.0663C137.313 83.1037 137.358 83.1625 137.379 83.2313C137.4 83.3001 137.395 83.3743 137.365 83.4397C137.335 83.5051 137.282 83.5571 137.216 83.586L116.383 89.9032L116.325 89.915Z" fill="#D1D3D4"/>
<path d="M114.221 73.7519C114.172 73.7527 114.123 73.7405 114.08 73.7167C114.047 73.699 114.017 73.6748 113.993 73.6456C113.969 73.6164 113.95 73.5827 113.939 73.5464L109.774 59.8492C109.745 59.7777 109.745 59.6976 109.774 59.6261C109.81 59.5569 109.871 59.5043 109.944 59.4793L130.618 53.2149C130.693 53.1926 130.774 53.2005 130.843 53.2366C130.912 53.2728 130.964 53.3345 130.989 53.4086L135.125 67.1058C135.154 67.1773 135.154 67.2575 135.125 67.3289C135.107 67.3633 135.082 67.3935 135.051 67.4178C135.021 67.442 134.986 67.4598 134.948 67.4698L114.298 73.7402C114.273 73.7487 114.247 73.7527 114.221 73.7519ZM110.45 59.9607L114.445 73.0943L134.531 66.9943L130.513 53.8607L110.45 59.9607Z" fill="white"/>
<path d="M114.215 73.7519C114.165 73.7515 114.116 73.7382 114.072 73.7134C114.028 73.6885 113.992 73.6529 113.966 73.6099C113.94 73.5669 113.926 73.518 113.924 73.4678C113.922 73.4176 113.934 73.3679 113.957 73.3233L119.209 63.4599C119.247 63.3917 119.31 63.3412 119.385 63.319C119.42 63.3031 119.458 63.2949 119.497 63.2949C119.535 63.2949 119.573 63.3031 119.609 63.319L129.461 68.6029C129.498 68.6194 129.531 68.6433 129.558 68.673C129.585 68.7028 129.606 68.7378 129.619 68.7759C129.632 68.814 129.637 68.8543 129.633 68.8944C129.63 68.9345 129.619 68.9736 129.6 69.0091C129.581 69.0446 129.555 69.0758 129.523 69.1008C129.492 69.1258 129.455 69.144 129.416 69.1544C129.377 69.1648 129.337 69.167 129.297 69.161C129.257 69.1551 129.219 69.141 129.185 69.1196L119.591 63.9824L114.48 73.5875C114.455 73.6369 114.418 73.6785 114.371 73.7076C114.324 73.7366 114.27 73.752 114.215 73.7519Z" fill="white"/>
<path d="M126.736 67.781C126.686 67.7812 126.638 67.7691 126.595 67.7458C126.527 67.7075 126.477 67.644 126.456 67.5692C126.435 67.4944 126.445 67.4143 126.483 67.3465L128.997 62.9197C129.032 62.8565 129.09 62.8087 129.158 62.7859C129.227 62.763 129.302 62.7668 129.368 62.7964L134.379 64.9335C134.416 64.9475 134.45 64.9688 134.478 64.9962C134.507 65.0235 134.529 65.0564 134.545 65.0927C134.56 65.129 134.568 65.1681 134.569 65.2076C134.569 65.2471 134.561 65.2862 134.545 65.3226C134.53 65.359 134.507 65.3919 134.479 65.4193C134.45 65.4467 134.417 65.4681 134.38 65.4822C134.343 65.4963 134.303 65.5029 134.264 65.5014C134.224 65.4999 134.186 65.4905 134.15 65.4737L129.379 63.4364L126.994 67.6342C126.968 67.6795 126.93 67.7169 126.885 67.7427C126.839 67.7685 126.788 67.7817 126.736 67.781Z" fill="white"/>
<path d="M124.902 62.7789C124.447 62.7774 124.003 62.6301 123.638 62.3585C123.272 62.087 123.003 61.7055 122.87 61.27C122.705 60.7305 122.762 60.1478 123.028 59.6501C123.293 59.1524 123.746 58.7805 124.285 58.6163C124.825 58.452 125.408 58.5088 125.906 58.7741C126.404 59.0395 126.777 59.4917 126.941 60.0312C127.023 60.2983 127.051 60.5789 127.024 60.8569C126.997 61.1349 126.915 61.4049 126.783 61.6513C126.652 61.8978 126.473 62.1159 126.257 62.2933C126.041 62.4706 125.793 62.6037 125.525 62.6849C125.323 62.7452 125.113 62.7768 124.902 62.7789ZM124.902 59.1094C124.751 59.1094 124.6 59.1331 124.456 59.1799C124.261 59.2362 124.079 59.3312 123.922 59.4594C123.764 59.5875 123.634 59.746 123.539 59.9255C123.348 60.2867 123.308 60.709 123.428 61.0997C123.516 61.3911 123.689 61.6496 123.925 61.8426C124.16 62.0357 124.448 62.1545 124.751 62.184C125.054 62.2136 125.36 62.1525 125.628 62.0086C125.897 61.8647 126.116 61.6444 126.259 61.3757C126.453 61.0152 126.495 60.593 126.377 60.2015C126.28 59.8873 126.085 59.6121 125.821 59.4158C125.557 59.2195 125.237 59.1122 124.908 59.1094H124.902Z" fill="white"/>
<path d="M169.836 30.7794L136.294 40.9635L146.485 74.4833L180.027 64.2992L169.836 30.7794Z" fill="#F8A8C3"/>
<path d="M146.481 74.7852C146.432 74.7854 146.383 74.7733 146.34 74.7499C146.306 74.7331 146.276 74.7092 146.251 74.6799C146.227 74.6505 146.209 74.6164 146.199 74.5797L136.006 41.0558C135.984 40.9811 135.993 40.9007 136.03 40.8325C136.068 40.7642 136.131 40.7136 136.206 40.6918L169.746 30.5114C169.781 30.4955 169.819 30.4872 169.858 30.4872C169.896 30.4872 169.934 30.4955 169.969 30.5114C170.004 30.5281 170.035 30.5519 170.06 30.5812C170.086 30.6105 170.105 30.6447 170.116 30.6816L180.303 64.2055C180.325 64.2794 180.317 64.3591 180.281 64.4272C180.245 64.4953 180.183 64.5465 180.11 64.5695L146.563 74.7499C146.539 74.7677 146.511 74.7798 146.481 74.7852ZM136.658 41.1674L146.646 74.1276L179.628 64.1468L169.634 31.1572L136.658 41.1674Z" fill="#002947"/>
<path d="M180.021 64.2993L146.479 74.4833L149.069 83.0051L182.612 72.821L180.021 64.2993Z" fill="white"/>
<path d="M149.066 83.3041C149.019 83.3035 148.973 83.2935 148.931 83.2748C148.861 83.2369 148.808 83.1739 148.784 83.0986L146.199 74.5797C146.177 74.5057 146.185 74.4261 146.221 74.3579C146.257 74.2898 146.319 74.2387 146.393 74.2157L179.933 64.0294C179.97 64.0177 180.01 64.0136 180.049 64.0173C180.088 64.0211 180.126 64.0326 180.16 64.0512C180.195 64.0698 180.225 64.0951 180.25 64.1257C180.274 64.1562 180.292 64.1913 180.303 64.229L182.894 72.7479C182.92 72.82 182.92 72.8989 182.894 72.971C182.855 73.0387 182.792 73.0892 182.718 73.1119L149.177 83.2924C149.142 83.3055 149.103 83.3095 149.066 83.3041ZM146.874 74.6912L149.266 82.6289L182.242 72.6481L179.827 64.6869L146.874 74.6912Z" fill="#002947"/>
<path d="M151.087 76.1003C151.025 76.1007 150.963 76.0809 150.913 76.0439C150.862 76.007 150.824 75.9547 150.805 75.8948C150.783 75.8201 150.791 75.7396 150.827 75.6705C150.863 75.6015 150.925 75.5492 150.999 75.5249L176.849 67.6812C176.887 67.6695 176.926 67.6654 176.965 67.6691C177.004 67.6729 177.042 67.6844 177.076 67.703C177.111 67.7216 177.141 67.7469 177.166 67.7774C177.19 67.808 177.209 67.8431 177.219 67.8808C177.23 67.9178 177.234 67.9566 177.229 67.9949C177.225 68.0332 177.214 68.0703 177.195 68.1041C177.176 68.1379 177.151 68.1677 177.121 68.1919C177.091 68.216 177.057 68.234 177.02 68.2448L151.17 76.0886L151.087 76.1003Z" fill="#D1D3D4"/>
<path d="M151.991 79.1063C151.928 79.1073 151.865 79.0871 151.814 79.0488C151.763 79.0105 151.726 78.9564 151.709 78.8949C151.687 78.821 151.695 78.7413 151.732 78.6732C151.768 78.6051 151.83 78.554 151.903 78.5309L170.809 72.7949C170.846 72.7823 170.885 72.7774 170.923 72.7804C170.962 72.7835 170.999 72.7944 171.033 72.8126C171.068 72.8308 171.098 72.8558 171.122 72.8861C171.146 72.9163 171.163 72.9513 171.173 72.9886C171.195 73.0626 171.187 73.1423 171.151 73.2104C171.115 73.2785 171.053 73.3296 170.979 73.3526L152.074 79.0946L151.991 79.1063Z" fill="#D1D3D4"/>
<path d="M149.912 62.9197C149.849 62.9188 149.787 62.8978 149.737 62.8599C149.686 62.8219 149.649 62.7688 149.63 62.7084L145.465 49.0111C145.439 48.939 145.439 48.8601 145.465 48.788C145.503 48.7203 145.566 48.6699 145.641 48.6471L166.292 42.3768C166.366 42.355 166.447 42.3638 166.515 42.4012C166.583 42.4386 166.634 42.5017 166.656 42.5764L170.821 56.2736C170.85 56.3452 170.85 56.4252 170.821 56.4967C170.784 56.563 170.723 56.6131 170.651 56.6377L150 62.908L149.912 62.9197ZM146.117 49.1227L150.106 62.2563L170.199 56.1621L166.204 43.0226L146.117 49.1227Z" fill="white"/>
<path d="M149.912 62.9197C149.863 62.9193 149.814 62.9072 149.771 62.8845C149.737 62.8661 149.707 62.8411 149.683 62.811C149.658 62.781 149.64 62.7464 149.629 62.7093C149.618 62.6722 149.615 62.6333 149.619 62.5949C149.623 62.5564 149.635 62.5192 149.653 62.4853L154.906 52.6277C154.941 52.5585 155.002 52.5059 155.076 52.4809C155.15 52.4545 155.231 52.4545 155.305 52.4809L165.157 57.7649C165.226 57.8023 165.277 57.8653 165.299 57.9402C165.321 58.0151 165.312 58.0956 165.275 58.1641C165.238 58.2327 165.175 58.2835 165.1 58.3055C165.025 58.3276 164.944 58.3189 164.876 58.2816L155.288 53.1444L150.17 62.7436C150.148 62.7943 150.112 62.8377 150.067 62.8689C150.021 62.9001 149.967 62.9177 149.912 62.9197Z" fill="white"/>
<path d="M162.432 56.9488C162.38 56.9499 162.329 56.9356 162.285 56.9077C162.217 56.8695 162.168 56.806 162.147 56.7312C162.126 56.6563 162.135 56.5763 162.173 56.5085L164.688 52.0993C164.724 52.0369 164.781 51.9896 164.849 51.9658C164.917 51.9421 164.991 51.9436 165.058 51.9701L170.075 54.1131C170.144 54.1454 170.197 54.203 170.225 54.2739C170.252 54.3448 170.25 54.4234 170.221 54.4933C170.191 54.5632 170.135 54.6189 170.066 54.6487C169.996 54.6785 169.917 54.6801 169.846 54.6532L165.087 52.6042L162.684 56.7962C162.66 56.8416 162.623 56.8797 162.579 56.9065C162.534 56.9333 162.484 56.9479 162.432 56.9488Z" fill="white"/>
<path d="M160.599 51.9408C160.205 51.9402 159.819 51.8303 159.484 51.6234C159.149 51.4164 158.878 51.1206 158.701 50.7688C158.525 50.417 158.449 50.023 158.484 49.6309C158.518 49.2388 158.66 48.8639 158.895 48.5479C159.13 48.232 159.448 47.9874 159.814 47.8416C160.18 47.6957 160.579 47.6542 160.967 47.7217C161.355 47.7892 161.717 47.9631 162.012 48.2239C162.307 48.4848 162.523 48.8224 162.638 49.199C162.719 49.4658 162.747 49.746 162.72 50.0236C162.693 50.3012 162.611 50.5707 162.48 50.8167C162.348 51.0627 162.169 51.2803 161.953 51.4571C161.738 51.6339 161.489 51.7663 161.222 51.8469C161.02 51.9096 160.81 51.9413 160.599 51.9408ZM160.599 48.2773C160.446 48.2753 160.293 48.2971 160.147 48.3419C159.904 48.4151 159.684 48.5469 159.504 48.7258C159.325 48.9046 159.193 49.1249 159.119 49.3671C159.045 49.6093 159.033 49.8659 159.082 50.1141C159.131 50.3624 159.241 50.5947 159.402 50.7903C159.563 50.986 159.769 51.139 160.003 51.2357C160.237 51.3325 160.492 51.3701 160.744 51.3451C160.996 51.3201 161.238 51.2333 161.448 51.0925C161.659 50.9516 161.831 50.761 161.95 50.5376C162.047 50.3595 162.107 50.1639 162.127 49.9623C162.147 49.7608 162.127 49.5572 162.068 49.3634C162.01 49.1701 161.914 48.9902 161.786 48.834C161.658 48.6779 161.5 48.5485 161.322 48.4534C161.101 48.3366 160.855 48.2761 160.605 48.2773H160.599Z" fill="white"/>
<path d="M66.3227 56.2913C68.2338 56.2913 69.7831 54.743 69.7831 52.8332C69.7831 50.9234 68.2338 49.3751 66.3227 49.3751C64.4116 49.3751 62.8623 50.9234 62.8623 52.8332C62.8623 54.743 64.4116 56.2913 66.3227 56.2913Z" fill="#D1D3D4"/>
<path d="M72.1157 48.4769C72.0529 48.4773 71.9916 48.4575 71.9409 48.4205C71.8901 48.3835 71.8526 48.3313 71.8337 48.2714C71.8115 48.1966 71.8193 48.1162 71.8555 48.0471C71.8917 47.978 71.9534 47.9258 72.0276 47.9015L103.7 38.2905C103.774 38.2685 103.853 38.2765 103.922 38.3127C103.99 38.349 104.041 38.4106 104.064 38.4843C104.086 38.559 104.078 38.6395 104.042 38.7086C104.006 38.7776 103.944 38.8299 103.87 38.8542L72.198 48.4651L72.1157 48.4769Z" fill="#D1D3D4"/>
<path d="M72.9202 51.1247C72.8423 51.1364 72.7629 51.1167 72.6996 51.0699C72.6362 51.0231 72.5941 50.9531 72.5824 50.8752C72.5707 50.7974 72.5904 50.7181 72.6373 50.6548C72.6841 50.5914 72.7542 50.5493 72.8321 50.5376L104.504 40.9443C104.578 40.9223 104.658 40.9302 104.726 40.9665C104.794 41.0027 104.845 41.0644 104.868 41.138C104.891 41.2128 104.883 41.2932 104.847 41.3623C104.81 41.4314 104.749 41.4836 104.675 41.5079L73.0025 51.113L72.9202 51.1247Z" fill="#D1D3D4"/>
<path d="M73.7251 53.7726C73.6623 53.773 73.601 53.7532 73.5502 53.7163C73.4995 53.6793 73.4619 53.627 73.4431 53.5671C73.4209 53.4924 73.4287 53.4119 73.4649 53.3428C73.5011 53.2738 73.5628 53.2215 73.637 53.1973L102.325 44.467C102.362 44.4553 102.401 44.4513 102.439 44.4551C102.478 44.4589 102.515 44.4705 102.549 44.4892C102.583 44.5078 102.613 44.5331 102.637 44.5636C102.661 44.5941 102.679 44.6291 102.689 44.6666C102.701 44.7032 102.706 44.7419 102.703 44.7805C102.7 44.8191 102.689 44.8566 102.671 44.8907C102.653 44.9249 102.628 44.9549 102.598 44.979C102.567 45.003 102.532 45.0206 102.495 45.0306L73.8073 53.7609C73.7811 53.7705 73.753 53.7745 73.7251 53.7726Z" fill="#D1D3D4"/>
<path d="M80.522 111.738C80.4592 111.738 80.3979 111.718 80.3471 111.681C80.2964 111.644 80.2588 111.592 80.24 111.532C80.2177 111.457 80.2255 111.377 80.2617 111.308C80.298 111.239 80.3597 111.187 80.4338 111.162L122.84 98.2929C122.914 98.2709 122.993 98.2789 123.061 98.3151C123.13 98.3514 123.181 98.413 123.204 98.4867C123.226 98.5614 123.218 98.6419 123.182 98.711C123.146 98.78 123.084 98.8323 123.01 98.8566L80.6042 111.726C80.5778 111.735 80.5499 111.739 80.522 111.738Z" fill="#D1D3D4"/>
<path d="M189.392 123.527C189.392 123.527 175.851 90.0617 166.756 78.0143C165.516 76.3704 163.819 75.9946 162.555 76.7226C161.069 77.5798 160.793 80.7619 160.793 80.7619C160.793 80.7619 157.197 78.3783 155.376 78.7012C153.555 79.0241 153.167 81.8011 153.167 81.8011C153.167 81.8011 149.26 80.2453 147.527 81.5369C145.794 82.8285 145.583 85.3649 145.583 85.3649C145.583 85.3649 125.666 67.3348 123.446 65.7848C121.225 64.2348 116.895 66.4482 118.746 69.5364C119.921 71.4563 129.826 82.5644 133.045 86.0987C136.265 89.6331 143.661 99.1384 144.378 101.845C145.095 104.552 145.659 107.605 140.183 107.616C134.708 107.628 129.785 108.256 127.258 110.088C124.732 111.92 122.97 114.826 124.127 115.489C125.284 116.153 142.763 116.781 149.889 120.186C157.015 123.591 165.587 135.492 165.587 135.492L189.392 123.527Z" fill="white"/>
<path d="M165.61 135.803C165.564 135.804 165.519 135.793 165.478 135.773C165.437 135.752 165.402 135.723 165.375 135.686C165.286 135.568 156.762 123.82 149.782 120.474C144.924 118.125 135.042 117.098 129.138 116.482C125.947 116.147 124.402 115.977 124.003 115.748C123.849 115.658 123.722 115.529 123.633 115.374C123.544 115.22 123.498 115.045 123.498 114.867C123.433 113.593 125.054 111.344 127.111 109.847C129.408 108.18 133.814 107.329 140.2 107.323C142.157 107.323 143.461 106.906 144.078 106.107C144.865 105.08 144.53 103.477 144.113 101.921C143.42 99.3204 136.193 89.9795 132.845 86.2984C129.496 82.6172 119.679 71.6207 118.51 69.6891C118.123 69.136 117.954 68.4604 118.033 67.7905C118.112 67.1206 118.434 66.503 118.939 66.0549C120.049 65.0157 122.158 64.5225 123.639 65.5441C125.701 66.9825 142.48 82.1358 145.376 84.7777C145.599 83.4199 146.301 82.1868 147.356 81.3021C148.913 80.1279 151.938 81.0555 152.949 81.4077C153.125 80.6034 153.719 78.7012 155.299 78.4135C156.879 78.1258 159.523 79.6464 160.534 80.2629C160.675 79.3059 161.121 77.1864 162.378 76.4643C163.853 75.613 165.692 76.1649 166.955 77.8381C175.967 89.7799 189.491 123.086 189.627 123.421C189.655 123.488 189.657 123.564 189.632 123.633C189.607 123.702 189.557 123.758 189.491 123.791L165.709 135.774C165.678 135.79 165.644 135.8 165.61 135.803ZM121.735 65.6028C120.852 65.6042 119.999 65.9278 119.338 66.5128C118.92 66.869 118.654 67.3711 118.594 67.9166C118.534 68.4621 118.685 69.01 119.015 69.4484C120.143 71.3212 130.007 82.3647 133.279 85.9637C136.287 89.2691 143.913 98.9388 144.683 101.816C145.135 103.512 145.494 105.274 144.548 106.512C143.802 107.481 142.38 107.951 140.2 107.957C133.943 107.957 129.655 108.779 127.457 110.37C125.407 111.855 124.032 113.939 124.085 114.879C124.08 114.959 124.097 115.039 124.134 115.111C124.171 115.182 124.228 115.242 124.297 115.284C124.602 115.46 126.835 115.695 129.196 115.941C135.136 116.564 145.059 117.609 150.041 119.987C156.721 123.198 164.499 133.549 165.704 135.187L189.016 123.445C187.752 120.339 175.074 89.5744 166.52 78.2374C165.445 76.8107 163.912 76.3293 162.707 77.0221C161.591 77.662 161.168 79.9576 161.092 80.8324C161.088 80.8833 161.072 80.9325 161.043 80.9748C161.014 81.0172 160.975 81.0511 160.929 81.0732C160.883 81.0954 160.832 81.1048 160.781 81.1007C160.73 81.0965 160.681 81.0789 160.639 81.0496C160.604 81.0496 157.114 78.7423 155.44 79.0417C153.848 79.3235 153.472 81.8657 153.466 81.8892C153.461 81.9338 153.445 81.9765 153.421 82.0142C153.396 82.0518 153.364 82.0834 153.325 82.1064C153.284 82.1253 153.24 82.1351 153.196 82.1351C153.151 82.1351 153.107 82.1253 153.066 82.1064C153.031 82.1064 149.295 80.6269 147.708 81.8011C146.122 82.9753 145.887 85.3942 145.881 85.4177C145.878 85.4728 145.86 85.5259 145.827 85.5707C145.795 85.6154 145.751 85.65 145.699 85.6701C145.648 85.6899 145.592 85.6949 145.538 85.6845C145.484 85.6741 145.434 85.6488 145.394 85.6114C145.194 85.4294 125.466 67.5755 123.286 66.0549C122.828 65.7483 122.286 65.5904 121.735 65.6028Z" fill="#002947"/>
<path d="M201.612 154.949C198.575 145.708 189.275 116.03 188.852 116.2C188.429 116.37 159.365 130.185 159.365 130.185L161.128 154.972L201.612 154.949Z" fill="#002947"/>
<path d="M201.612 155.242H161.121C161.046 155.243 160.974 155.214 160.919 155.163C160.865 155.111 160.832 155.041 160.827 154.966L159.065 130.185C159.062 130.125 159.076 130.066 159.106 130.015C159.137 129.964 159.182 129.923 159.235 129.897C160.41 129.339 188.205 116.194 188.728 115.959C188.807 115.927 188.895 115.927 188.975 115.959C189.386 116.141 190.69 119.887 198.051 142.966C199.638 147.927 200.989 152.207 201.882 154.878C201.897 154.922 201.901 154.969 201.894 155.015C201.887 155.061 201.87 155.105 201.843 155.143C201.816 155.18 201.78 155.211 201.739 155.233C201.698 155.254 201.652 155.266 201.606 155.266L201.612 155.242ZM161.391 154.655H201.206C200.325 151.966 199.009 147.851 197.499 143.119C194.145 132.627 189.603 118.413 188.751 116.599C186.137 117.826 162.02 129.228 159.676 130.343L161.391 154.655Z" fill="#002947"/>
<path d="M50.2363 115.548C50.2363 115.548 55.4945 76.0533 60.0358 71.8144C65.4291 66.7888 70.3406 63.3718 71.2395 66.2486C72.1383 69.1255 73.002 73.9104 65.6112 79.3L66.6863 88.8816C66.6863 88.8816 73.942 93.8897 70.1643 109.701" fill="white"/>
<path d="M50.2368 115.818H50.2015C50.1307 115.808 50.0667 115.77 50.0238 115.713C49.9808 115.656 49.9623 115.584 49.9724 115.513C50.1839 113.898 55.2952 75.8713 59.8542 71.6207C65.0653 66.7594 68.602 64.5225 70.3645 64.9922C70.6412 65.0691 70.8922 65.2185 71.0915 65.425C71.2909 65.6314 71.4314 65.8874 71.4984 66.1664C73.5429 72.7009 69.6126 76.6874 65.8937 79.4292L66.9394 88.7348C67.8559 89.4335 73.9894 94.7879 70.4233 109.759C70.4157 109.794 70.4013 109.826 70.3808 109.855C70.3603 109.884 70.3342 109.909 70.3041 109.927C70.2739 109.946 70.2403 109.958 70.2053 109.964C70.1703 109.969 70.1345 109.967 70.1002 109.959C70.0324 109.941 69.9745 109.897 69.9393 109.836C69.904 109.776 69.8943 109.704 69.9122 109.636C73.6017 94.1832 66.6104 89.1517 66.5399 89.0871C66.5084 89.0662 66.482 89.0384 66.4627 89.0059C66.4434 88.9734 66.4316 88.9369 66.4283 88.8992L65.3473 79.3176C65.3406 79.2702 65.3475 79.2218 65.3673 79.1781C65.387 79.1345 65.4188 79.0973 65.4589 79.0711C72.3268 74.0454 72.0213 69.6128 70.9932 66.3073C70.9512 66.1152 70.8581 65.9379 70.7237 65.7943C70.5892 65.6506 70.4185 65.5459 70.2294 65.4913C68.7019 65.092 65.1534 67.3994 60.2419 71.9964C55.8239 76.1062 50.5775 115.172 50.5247 115.566C50.5224 115.601 50.5132 115.636 50.4975 115.668C50.4818 115.7 50.46 115.728 50.4332 115.752C50.4065 115.775 50.3753 115.793 50.3416 115.804C50.3079 115.816 50.2723 115.821 50.2368 115.818Z" fill="#002947"/>
</svg>
