<svg width="235" height="177" viewBox="0 0 235 177" fill="none" xmlns="http://www.w3.org/2000/svg">
<path d="M159.03 77.1042H73.4725C70.4679 77.1042 68.0322 79.5383 68.0322 82.5409V128.106C68.0322 131.109 70.4679 133.543 73.4725 133.543H159.03C162.035 133.543 164.47 131.109 164.47 128.106V82.5409C164.47 79.5383 162.035 77.1042 159.03 77.1042Z" fill="white"/>
<path d="M159.024 133.836H73.4723C71.952 133.835 70.4944 133.231 69.4194 132.156C68.3444 131.082 67.7398 129.626 67.7383 128.106V82.5467C67.7398 81.0269 68.3443 79.5697 69.4191 78.4945C70.4939 77.4193 71.9515 76.8138 73.4723 76.8107H159.024C160.545 76.8138 162.002 77.4193 163.077 78.4945C164.152 79.5697 164.756 81.0269 164.758 82.5467V128.106C164.756 129.626 164.152 131.082 163.077 132.156C162.002 133.231 160.544 133.835 159.024 133.836ZM73.4723 77.3978C72.1068 77.3993 70.7978 77.9425 69.8328 78.9079C68.8678 79.8734 68.3258 81.1821 68.3258 82.5467V128.106C68.3273 129.47 68.8701 130.777 69.8349 131.741C70.7997 132.705 72.1078 133.248 73.4723 133.249H159.024C160.388 133.248 161.697 132.705 162.661 131.741C163.626 130.777 164.169 129.47 164.171 128.106V82.5467C164.171 81.1821 163.628 79.8734 162.664 78.9079C161.699 77.9425 160.389 77.3993 159.024 77.3978H73.4723Z" fill="#002947"/>
<path d="M131.276 113.393H101.226C100.181 113.393 99.334 114.24 99.334 115.284V127.66C99.334 128.704 100.181 129.551 101.226 129.551H131.276C132.321 129.551 133.168 128.704 133.168 127.66V115.284C133.168 114.24 132.321 113.393 131.276 113.393Z" fill="white"/>
<path d="M131.276 129.844H101.22C100.641 129.843 100.087 129.612 99.6781 129.202C99.2695 128.793 99.04 128.238 99.04 127.66V115.278C99.04 114.7 99.2697 114.146 99.6784 113.738C100.087 113.329 100.642 113.1 101.22 113.1H131.276C131.854 113.1 132.409 113.329 132.817 113.738C133.226 114.146 133.456 114.7 133.456 115.278V127.66C133.456 128.238 133.226 128.793 132.818 129.202C132.409 129.612 131.855 129.843 131.276 129.844ZM101.22 113.687C100.797 113.687 100.392 113.855 100.094 114.153C99.7953 114.451 99.6275 114.856 99.6275 115.278V127.66C99.6268 127.87 99.6674 128.077 99.747 128.271C99.8267 128.464 99.9439 128.641 100.092 128.789C100.24 128.937 100.415 129.055 100.609 129.135C100.803 129.216 101.01 129.257 101.22 129.257H131.276C131.486 129.257 131.693 129.216 131.887 129.135C132.08 129.055 132.256 128.937 132.404 128.789C132.552 128.641 132.669 128.464 132.749 128.271C132.828 128.077 132.869 127.87 132.868 127.66V115.278C132.868 114.856 132.701 114.451 132.402 114.153C132.103 113.855 131.698 113.687 131.276 113.687H101.22Z" fill="#D1D3D4"/>
<path d="M155.852 81.0966H76.6448C74.977 81.0966 73.625 82.4477 73.625 84.1144V105.943C73.625 107.61 74.977 108.961 76.6448 108.961H155.852C157.519 108.961 158.871 107.61 158.871 105.943V84.1144C158.871 82.4477 157.519 81.0966 155.852 81.0966Z" fill="white"/>
<path d="M155.851 109.254H76.6446C75.7662 109.253 74.9243 108.903 74.3033 108.283C73.6822 107.662 73.3326 106.821 73.3311 105.943V84.1202C73.3311 83.2414 73.68 82.3986 74.3012 81.7767C74.9224 81.1548 75.7652 80.8046 76.6446 80.803H155.851C156.731 80.8046 157.573 81.1548 158.195 81.7767C158.816 82.3986 159.165 83.2414 159.165 84.1202V105.943C159.163 106.821 158.814 107.662 158.193 108.283C157.572 108.903 156.73 109.253 155.851 109.254ZM76.6446 81.3901C75.921 81.3917 75.2277 81.68 74.7166 82.1918C74.2056 82.7036 73.9186 83.3972 73.9186 84.1202V105.943C73.9186 106.666 74.2058 107.358 74.717 107.869C75.2282 108.38 75.9216 108.667 76.6446 108.667H155.851C156.574 108.667 157.268 108.38 157.779 107.869C158.29 107.358 158.577 106.666 158.577 105.943V84.1202C158.577 83.3972 158.29 82.7036 157.779 82.1918C157.268 81.68 156.575 81.3917 155.851 81.3901H76.6446Z" fill="#D1D3D4"/>
<path d="M75.0234 137.817H95.1042C95.6463 136.499 96.2968 135.229 97.0488 134.019C100.245 129.492 104.645 126.697 107.036 120.31C109.427 113.922 110.232 108.861 108.364 107.927C106.496 106.994 104.252 114.45 101.837 116.317C101.837 116.317 100.022 107.352 101.484 103.36C102.947 99.3674 105.938 96.3731 105.538 93.966C105.139 91.5589 104.028 92.2047 102.242 93.7194C101.308 94.5179 99.7513 97.0894 99.7513 97.0894C99.9005 95.7819 100.34 94.5242 101.038 93.4082C102.859 90.7017 98.5528 89.504 95.3568 94.2948C95.3568 94.2948 96.6023 89.3689 94.1818 90.8308C91.7613 92.2927 89.2938 97.9349 89.2938 97.9349C89.2938 97.9349 90.6274 90.4786 87.5666 92.4747C84.5057 94.4709 83.3483 104.058 83.7478 108.327C84.1473 112.595 85.0403 122.482 82.3261 126.034C81.4624 127.196 78.5426 131.946 75.0234 137.817Z" fill="white"/>
<path d="M95.104 138.111H75.0232C74.9712 138.11 74.9201 138.097 74.8749 138.071C74.8296 138.045 74.7917 138.008 74.7647 137.964C74.7372 137.919 74.7227 137.867 74.7227 137.814C74.7227 137.761 74.7372 137.71 74.7647 137.664C78.8772 130.872 81.3212 126.897 82.1143 125.852C84.7933 122.329 83.8416 112.184 83.4832 108.356C83.0602 103.859 84.2352 94.3242 87.4253 92.2399C88.0892 91.8113 88.6473 91.735 89.0821 92.0286C89.9575 92.6157 89.9751 94.6471 89.84 96.1912C90.78 94.3829 92.4132 91.5941 94.0523 90.596C94.6398 90.232 95.1216 90.1792 95.4741 90.4434C96.0616 90.8778 96.0263 92.1166 95.8912 93.1089C97.4363 91.2947 99.0637 90.69 100.18 90.7604C100.474 90.7585 100.763 90.8354 101.017 90.9831C101.271 91.1307 101.481 91.3437 101.625 91.6C101.75 91.9312 101.784 92.2896 101.724 92.6384C101.665 92.9872 101.513 93.3138 101.284 93.5844C100.875 94.2112 100.562 94.896 100.356 95.6158C100.839 94.8516 101.406 94.1445 102.048 93.5081C103.282 92.4513 104.134 91.8877 104.833 92.146C105.338 92.328 105.65 92.8916 105.826 93.9073C106.078 95.4279 105.097 97.1071 103.963 99.0563C103.102 100.449 102.365 101.915 101.76 103.436C100.538 106.765 101.678 113.775 102.031 115.724C103.04 114.496 103.901 113.154 104.598 111.726C105.984 109.184 107.189 106.988 108.499 107.616C111.231 108.984 108.575 117.01 107.324 120.362C105.732 124.601 103.264 127.29 100.861 129.885C99.5805 131.228 98.3855 132.649 97.2836 134.142C96.5417 135.336 95.8992 136.589 95.3625 137.888C95.348 137.947 95.3153 138.001 95.269 138.041C95.2226 138.081 95.1649 138.105 95.104 138.111ZM75.5402 137.524H94.9277C95.4586 136.249 96.0933 135.019 96.8253 133.848C97.9437 132.335 99.1584 130.896 100.462 129.539C102.812 126.979 105.238 124.337 106.789 120.204C109.274 113.581 109.838 108.978 108.264 108.192C107.459 107.781 106.225 110.041 105.138 112.031C104.157 113.834 103.135 115.701 102.048 116.546C102.009 116.578 101.963 116.599 101.913 116.606C101.863 116.613 101.813 116.607 101.766 116.587C101.719 116.571 101.677 116.543 101.644 116.506C101.611 116.469 101.589 116.424 101.578 116.376C101.508 116.006 99.7628 107.282 101.237 103.26C101.853 101.705 102.606 100.208 103.488 98.7862C104.563 96.9368 105.491 95.3399 105.25 94.0247C105.121 93.2556 104.909 92.7918 104.663 92.692C104.21 92.5335 103.335 93.2028 102.459 93.9543C101.584 94.7058 100.051 97.2304 100.033 97.2538C99.9991 97.3106 99.947 97.3542 99.8852 97.3776C99.8233 97.401 99.7554 97.403 99.6923 97.383C99.6295 97.3614 99.5754 97.3199 99.5383 97.2648C99.5012 97.2097 99.4831 97.144 99.4867 97.0777C99.6393 95.7191 100.097 94.4125 100.826 93.2556C100.993 93.0684 101.108 92.8415 101.162 92.5969C101.215 92.3522 101.205 92.0979 101.132 91.8583C101.031 91.6968 100.889 91.5645 100.721 91.4749C100.553 91.3852 100.364 91.3413 100.174 91.3475C99.0872 91.2653 97.2366 92.0521 95.6327 94.4709C95.5941 94.5282 95.5366 94.5701 95.4702 94.5892C95.4038 94.6083 95.3328 94.6033 95.2697 94.5753C95.2066 94.5473 95.1553 94.4979 95.125 94.4359C95.0947 94.3738 95.0873 94.3031 95.104 94.2361C95.3918 93.0619 95.6033 91.2477 95.151 90.9131C94.9688 90.778 94.5928 90.9718 94.3872 91.0951C92.0901 92.4983 89.6402 98.0112 89.6167 98.064C89.5881 98.1297 89.5365 98.1826 89.4716 98.2129C89.4067 98.2432 89.3329 98.2487 89.2642 98.2284C89.196 98.2057 89.138 98.1597 89.1004 98.0985C89.0628 98.0373 89.048 97.9648 89.0586 97.8938C89.3817 96.0972 89.5873 93.0501 88.7825 92.5159C88.5651 92.3691 88.195 92.4396 87.7778 92.7331C84.9285 94.5884 83.6653 103.941 84.0942 108.303C84.4937 112.554 85.4278 122.523 82.6137 126.21C81.8265 127.214 79.453 131.018 75.5402 137.524Z" fill="#002947"/>
<path d="M131.077 102.661C129.837 101.775 128.415 104.792 129.314 109.231C130.213 113.669 135.53 123.075 139.613 126.979C140.688 128.001 142.304 131.429 144.113 135.927H163.624C158.818 126.85 154.712 119.129 154.359 118.636C153.466 117.392 152.532 109.513 152.779 104.88C152.98 100.643 152.669 96.3967 151.851 92.234C151.222 89.4805 150.229 88.5763 148.849 88.5763C147.468 88.5763 148.155 94.0423 148.155 94.0423C147.533 90.7839 145.4 87.0264 143.52 86.6506C141.64 86.2749 143.937 93.1969 143.937 93.1969C143.185 91.1948 139.084 84.7895 137.263 85.8052C136.676 86.134 135.189 86.5684 137.569 90.9541C139.948 95.3398 139.919 97.7235 139.919 97.7235C134.966 89.2691 131.106 89.5568 129.884 91.3299C128.662 93.1029 131.835 94.1715 134.326 97.9348C136.817 101.698 135.389 111.209 135.389 111.209C132.675 109.407 132.322 103.548 131.077 102.661ZM148.42 95.3633V95.2987V95.3633ZM148.379 95.1519L148.32 94.8349L148.379 95.1519ZM148.285 94.647C148.285 94.5531 148.249 94.4533 148.226 94.3417L148.285 94.647Z" fill="white"/>
<path d="M163.612 136.22H144.102C144.043 136.219 143.986 136.201 143.938 136.168C143.89 136.134 143.852 136.087 143.831 136.032C141.834 131.065 140.342 128.089 139.402 127.19C135.389 123.357 129.955 113.986 129.015 109.284C128.298 105.708 129.015 103.066 130.066 102.391C130.24 102.272 130.448 102.211 130.658 102.216C130.869 102.221 131.073 102.293 131.241 102.42C131.829 102.837 132.175 104.006 132.628 105.485C133.18 107.287 133.856 109.495 135.107 110.634C135.354 108.632 136.094 101.24 134.02 98.0699C133.162 96.8187 132.16 95.672 131.036 94.6529C129.678 93.3436 128.686 92.3984 129.584 91.1302C129.854 90.7492 130.217 90.4445 130.639 90.2459C131.061 90.0473 131.528 89.9616 131.993 89.9971C133.315 90.05 135.965 90.9717 139.372 96.3261C138.92 94.4767 138.214 92.6985 137.275 91.0422C136.147 88.9697 135.741 87.5195 136.018 86.5919C136.095 86.3595 136.222 86.1465 136.39 85.9672C136.557 85.788 136.76 85.6466 136.987 85.5527L137.087 85.494C137.267 85.3997 137.467 85.3475 137.67 85.3414C137.874 85.3353 138.076 85.3754 138.262 85.4588C139.719 85.9931 141.611 88.4824 142.885 90.5549C142.515 88.9638 142.263 87.1849 142.803 86.5743C142.899 86.4686 143.022 86.3909 143.158 86.3495C143.295 86.3081 143.44 86.3047 143.579 86.3394C145.13 86.6506 146.722 88.911 147.691 91.4003C147.691 90.2261 147.803 89.0519 148.243 88.5411C148.316 88.4549 148.405 88.3852 148.507 88.3366C148.608 88.288 148.719 88.2616 148.831 88.2593C150.494 88.2593 151.504 89.4335 152.115 92.1459C152.941 96.3354 153.257 100.609 153.055 104.874C152.802 109.571 153.784 117.327 154.577 118.442C154.894 118.883 157.931 124.548 163.865 135.762C163.89 135.806 163.903 135.856 163.903 135.906C163.903 135.956 163.89 136.006 163.865 136.05C163.842 136.098 163.806 136.139 163.762 136.169C163.717 136.199 163.666 136.216 163.612 136.22ZM144.301 135.633H163.101C156.022 122.253 154.289 119.088 154.083 118.806C153.131 117.474 152.197 109.524 152.45 104.863C152.65 100.653 152.341 96.4342 151.528 92.2986C150.84 89.275 149.765 88.8699 148.813 88.8699C148.781 88.8701 148.749 88.8782 148.72 88.8935C148.692 88.9089 148.667 88.931 148.649 88.9579C148.097 89.5803 148.208 92.3808 148.414 94.0012V94.0423C148.425 94.0826 148.425 94.1253 148.414 94.1656C148.439 94.1982 148.455 94.2366 148.461 94.2771L148.52 94.5824C148.525 94.6135 148.525 94.6453 148.52 94.6764C148.537 94.7051 148.549 94.737 148.555 94.7703L148.619 95.0815C148.604 95.1291 148.604 95.1806 148.619 95.2283H148.578L148.619 95.2811C148.622 95.2966 148.622 95.3125 148.619 95.3281C148.614 95.3898 148.588 95.448 148.547 95.4944C148.506 95.5408 148.451 95.573 148.39 95.5864C148.333 95.5972 148.274 95.5913 148.22 95.5694C148.165 95.5476 148.119 95.5107 148.085 95.4631C148.082 95.4456 148.082 95.4278 148.085 95.4103C148.082 95.3948 148.082 95.3788 148.085 95.3633V95.3104C148.082 95.2851 148.082 95.2595 148.085 95.2341C148.072 95.2102 148.062 95.1845 148.055 95.1578L148.05 94.9582V94.9112C148.047 94.8878 148.047 94.8642 148.05 94.8408C148.026 94.8076 148.01 94.7695 148.003 94.7292L147.944 94.4239C147.938 94.387 147.938 94.3493 147.944 94.3124C147.923 94.2803 147.909 94.2443 147.903 94.2067C147.899 94.1972 147.899 94.1868 147.903 94.1773C147.256 90.8308 145.118 87.3493 143.496 87.0264C143.35 86.997 143.303 87.0264 143.279 87.0792C142.744 87.6663 143.52 90.9952 144.237 93.1616C144.255 93.2328 144.246 93.3082 144.211 93.373C144.177 93.4377 144.119 93.4872 144.049 93.5115C143.98 93.5358 143.904 93.5333 143.837 93.5044C143.769 93.4755 143.715 93.4223 143.684 93.3554C143.026 91.5941 139.983 86.815 138.091 86.1222C137.989 86.0724 137.876 86.0465 137.762 86.0465C137.648 86.0465 137.536 86.0724 137.433 86.1222L137.316 86.1809C137.159 86.2398 137.018 86.3323 136.901 86.4521C136.784 86.5718 136.695 86.7158 136.64 86.8737C136.411 87.6252 136.817 88.9697 137.851 90.8719C140.242 95.2752 140.201 97.6882 140.201 97.788C140.198 97.8518 140.174 97.913 140.134 97.9626C140.094 98.0123 140.039 98.0478 139.977 98.064C139.916 98.0801 139.851 98.0756 139.793 98.0512C139.734 98.0268 139.686 97.9838 139.654 97.9289C136.029 91.7408 133.309 90.731 132.017 90.6782C131.65 90.6451 131.281 90.709 130.947 90.8636C130.613 91.0182 130.325 91.258 130.113 91.5588C129.526 92.3749 130.113 92.9972 131.494 94.3182C132.648 95.3695 133.675 96.5517 134.555 97.8409C137.075 101.657 135.73 110.928 135.665 111.344C135.659 111.393 135.64 111.439 135.61 111.479C135.58 111.518 135.54 111.548 135.495 111.567C135.451 111.591 135.403 111.603 135.354 111.603C135.305 111.603 135.256 111.591 135.213 111.567C133.538 110.452 132.751 107.869 132.117 105.796C131.729 104.534 131.365 103.342 130.942 103.043C130.868 102.983 130.775 102.951 130.68 102.951C130.585 102.951 130.493 102.983 130.419 103.043C129.69 103.518 128.926 105.843 129.626 109.331C130.53 113.851 135.971 123.227 139.842 126.944C140.812 127.725 142.28 130.625 144.301 135.633Z" fill="#002947"/>
<path d="M99.3336 135.927C98.8577 135.927 77.3435 128.623 77.3435 128.623C77.3435 128.623 67.5616 146.277 64.583 151.796L92.8887 156.334L99.3336 135.927Z" fill="#F8A8C3"/>
<path d="M161.128 127.361L138.479 131.582L144.631 153.499L173.377 151.321L161.128 127.361Z" fill="#F8A8C3"/>
<path d="M159.03 20.6656H73.4725C70.4679 20.6656 68.0322 23.0996 68.0322 26.1022V71.6677C68.0322 74.6702 70.4679 77.1043 73.4725 77.1043H159.03C162.035 77.1043 164.47 74.6702 164.47 71.6677V26.1022C164.47 23.0996 162.035 20.6656 159.03 20.6656Z" fill="white"/>
<path d="M159.024 77.3978H73.4723C71.952 77.3963 70.4944 76.792 69.4194 75.7178C68.3444 74.6435 67.7398 73.1869 67.7383 71.6676V26.1022C67.746 24.587 68.3534 23.1364 69.4277 22.0672C70.502 20.998 71.9561 20.397 73.4723 20.3955H159.024C160.544 20.3971 162.002 21.0013 163.077 22.0756C164.152 23.1498 164.756 24.6064 164.758 26.1257V71.6911C164.75 73.2063 164.143 74.6569 163.069 75.7261C161.994 76.7953 160.54 77.3963 159.024 77.3978ZM73.4723 20.9826C72.1078 20.9842 70.7997 21.5265 69.8349 22.4907C68.8701 23.4549 68.3273 24.7621 68.3258 26.1257V71.6911C68.3273 73.0547 68.8701 74.3619 69.8349 75.3261C70.7997 76.2903 72.1078 76.8326 73.4723 76.8342H159.024C160.388 76.8326 161.697 76.2903 162.661 75.3261C163.626 74.3619 164.169 73.0547 164.171 71.6911V26.1022C164.163 24.7427 163.617 23.4415 162.653 22.4824C161.689 21.5233 160.384 20.9841 159.024 20.9826H73.4723Z" fill="#002947"/>
<path d="M160.469 25.4564H72.8262V72.5776H160.469V25.4564Z" fill="#F8A8C3"/>
<path d="M160.469 72.8712H72.8494C72.7715 72.8712 72.6968 72.8403 72.6417 72.7852C72.5866 72.7302 72.5557 72.6555 72.5557 72.5777V25.4564C72.5557 25.3785 72.5866 25.3039 72.6417 25.2488C72.6968 25.1938 72.7715 25.1628 72.8494 25.1628H160.469C160.547 25.1628 160.622 25.1938 160.677 25.2488C160.732 25.3039 160.763 25.3785 160.763 25.4564V72.5777C160.763 72.6555 160.732 72.7302 160.677 72.7852C160.622 72.8403 160.547 72.8712 160.469 72.8712ZM73.1197 72.2841H160.175V25.7499H73.1197V72.2841Z" fill="#002947"/>
<path d="M160.469 31.4331H72.8494C72.7715 31.4331 72.6968 31.4022 72.6417 31.3471C72.5866 31.2921 72.5557 31.2174 72.5557 31.1396C72.5557 31.0617 72.5866 30.987 72.6417 30.932C72.6968 30.8769 72.7715 30.846 72.8494 30.846H160.469C160.547 30.846 160.622 30.8769 160.677 30.932C160.732 30.987 160.763 31.0617 160.763 31.1396C160.763 31.2174 160.732 31.2921 160.677 31.3471C160.622 31.4022 160.547 31.4331 160.469 31.4331Z" fill="#002947"/>
<path d="M76.1686 29.1727C76.7039 29.1727 77.1379 28.739 77.1379 28.204C77.1379 27.669 76.7039 27.2353 76.1686 27.2353C75.6332 27.2353 75.1992 27.669 75.1992 28.204C75.1992 28.739 75.6332 29.1727 76.1686 29.1727Z" fill="#002947"/>
<path d="M76.1694 29.4663C75.9195 29.4663 75.6753 29.3923 75.4676 29.2536C75.2599 29.1149 75.098 28.9178 75.0024 28.6871C74.9068 28.4565 74.8818 28.2027 74.9305 27.9578C74.9793 27.7129 75.0996 27.488 75.2762 27.3115C75.4529 27.135 75.6779 27.0147 75.9229 26.966C76.168 26.9173 76.4219 26.9423 76.6527 27.0379C76.8835 27.1334 77.0808 27.2952 77.2196 27.5028C77.3584 27.7103 77.4325 27.9544 77.4325 28.2041C77.4333 28.37 77.4011 28.5345 77.3379 28.688C77.2747 28.8415 77.1817 28.981 77.0643 29.0984C76.9468 29.2157 76.8073 29.3087 76.6537 29.3718C76.5001 29.435 76.3354 29.4671 76.1694 29.4663ZM76.1694 27.5348C76.0355 27.5348 75.9046 27.5745 75.7934 27.649C75.6822 27.7234 75.5956 27.8292 75.5446 27.9529C75.4937 28.0766 75.4806 28.2127 75.5072 28.3438C75.5337 28.4749 75.5987 28.5952 75.6937 28.6894C75.7888 28.7836 75.9098 28.8475 76.0412 28.8728C76.1726 28.8982 76.3087 28.884 76.432 28.832C76.5554 28.78 76.6605 28.6926 76.734 28.5808C76.8075 28.4689 76.8461 28.3378 76.845 28.2041C76.845 28.1157 76.8275 28.0282 76.7934 27.9466C76.7594 27.865 76.7096 27.7909 76.6467 27.7287C76.5839 27.6665 76.5094 27.6173 76.4275 27.584C76.3455 27.5507 76.2578 27.534 76.1694 27.5348Z" fill="#002947"/>
<path d="M80.569 29.1727C81.1044 29.1727 81.5384 28.739 81.5384 28.204C81.5384 27.669 81.1044 27.2353 80.569 27.2353C80.0336 27.2353 79.5996 27.669 79.5996 28.204C79.5996 28.739 80.0336 29.1727 80.569 29.1727Z" fill="#002947"/>
<path d="M80.5698 29.4663C80.3197 29.4675 80.0749 29.3944 79.8664 29.2564C79.6579 29.1185 79.4951 28.9217 79.3986 28.6912C79.3021 28.4606 79.2763 28.2066 79.3243 27.9614C79.3724 27.7162 79.4923 27.4907 79.6687 27.3136C79.8451 27.1364 80.0701 27.0156 80.3153 26.9665C80.5605 26.9173 80.8148 26.9419 81.0459 27.0373C81.277 27.1327 81.4747 27.2944 81.6137 27.5021C81.7528 27.7099 81.827 27.9541 81.827 28.204C81.827 28.5378 81.6947 28.858 81.4591 29.0945C81.2235 29.3311 80.9038 29.4648 80.5698 29.4663ZM80.5698 27.5347C80.4357 27.5336 80.3042 27.5723 80.1922 27.6461C80.0802 27.7198 79.9927 27.8252 79.9409 27.9488C79.889 28.0724 79.8751 28.2087 79.901 28.3402C79.9269 28.4717 79.9913 28.5925 80.0862 28.6873C80.181 28.7821 80.3019 28.8465 80.4335 28.8724C80.5652 28.8982 80.7015 28.8844 80.8252 28.8325C80.9489 28.7807 81.0543 28.6933 81.1281 28.5813C81.2019 28.4694 81.2407 28.3381 81.2395 28.204C81.238 28.027 81.1669 27.8577 81.0417 27.7325C80.9164 27.6073 80.7469 27.5363 80.5698 27.5347Z" fill="#002947"/>
<path d="M84.9635 29.1727C85.4989 29.1727 85.9329 28.739 85.9329 28.204C85.9329 27.669 85.4989 27.2353 84.9635 27.2353C84.4281 27.2353 83.9941 27.669 83.9941 28.204C83.9941 28.739 84.4281 29.1727 84.9635 29.1727Z" fill="#002947"/>
<path d="M84.9643 29.4663C84.7145 29.4663 84.4703 29.3923 84.2625 29.2536C84.0548 29.1149 83.8929 28.9178 83.7973 28.6871C83.7017 28.4565 83.6767 28.2027 83.7254 27.9578C83.7742 27.7129 83.8945 27.488 84.0711 27.3115C84.2478 27.135 84.4729 27.0147 84.7179 26.966C84.9629 26.9173 85.2169 26.9423 85.4477 27.0379C85.6785 27.1334 85.8758 27.2952 86.0145 27.5028C86.1533 27.7104 86.2274 27.9544 86.2274 28.2041C86.2274 28.5388 86.0943 28.8599 85.8575 29.0966C85.6206 29.3333 85.2993 29.4663 84.9643 29.4663ZM84.9643 27.5348C84.8304 27.5348 84.6996 27.5745 84.5883 27.649C84.4771 27.7234 84.3905 27.8292 84.3396 27.9529C84.2886 28.0766 84.2756 28.2127 84.3021 28.3438C84.3287 28.475 84.3936 28.5952 84.4887 28.6894C84.5838 28.7836 84.7047 28.8475 84.8361 28.8728C84.9676 28.8982 85.1036 28.884 85.2269 28.832C85.3503 28.78 85.4554 28.6926 85.5289 28.5808C85.6025 28.4689 85.6411 28.3378 85.6399 28.2041C85.6384 28.026 85.5665 27.8558 85.44 27.7304C85.3134 27.6051 85.1425 27.5347 84.9643 27.5348Z" fill="#002947"/>
<path d="M79.6004 72.8712C79.5225 72.8712 79.4478 72.8403 79.3927 72.7852C79.3376 72.7302 79.3066 72.6555 79.3066 72.5776V31.1396C79.3066 31.0617 79.3376 30.987 79.3927 30.932C79.4478 30.8769 79.5225 30.846 79.6004 30.846C79.6783 30.846 79.753 30.8769 79.8081 30.932C79.8632 30.987 79.8941 31.0617 79.8941 31.1396V72.5776C79.8941 72.6555 79.8632 72.7302 79.8081 72.7852C79.753 72.8403 79.6783 72.8712 79.6004 72.8712Z" fill="#002947"/>
<path d="M95.6977 34.4861H83.3602C83.2822 34.4861 83.2075 34.4552 83.1524 34.4001C83.0974 34.3451 83.0664 34.2704 83.0664 34.1925C83.0664 34.1147 83.0974 34.04 83.1524 33.985C83.2075 33.9299 83.2822 33.899 83.3602 33.899H95.6977C95.7756 33.899 95.8503 33.9299 95.9054 33.985C95.9605 34.04 95.9914 34.1147 95.9914 34.1925C95.9914 34.2704 95.9605 34.3451 95.9054 34.4001C95.8503 34.4552 95.7756 34.4861 95.6977 34.4861Z" fill="white"/>
<path d="M102.777 34.4861H98.7527C98.6748 34.4861 98.6001 34.4552 98.545 34.4001C98.4899 34.3451 98.459 34.2704 98.459 34.1925C98.459 34.1147 98.4899 34.04 98.545 33.985C98.6001 33.9299 98.6748 33.899 98.7527 33.899H102.777C102.855 33.899 102.93 33.9299 102.985 33.985C103.04 34.04 103.071 34.1147 103.071 34.1925C103.071 34.2704 103.04 34.3451 102.985 34.4001C102.93 34.4552 102.855 34.4861 102.777 34.4861Z" fill="#002947"/>
<path d="M113.704 34.4861H105.191C105.113 34.4861 105.039 34.4552 104.983 34.4001C104.928 34.3451 104.897 34.2704 104.897 34.1925C104.897 34.1147 104.928 34.04 104.983 33.985C105.039 33.9299 105.113 33.899 105.191 33.899H113.704C113.782 33.899 113.857 33.9299 113.912 33.985C113.967 34.04 113.998 34.1147 113.998 34.1925C113.998 34.2311 113.99 34.2693 113.975 34.3049C113.961 34.3405 113.939 34.3729 113.912 34.4001C113.885 34.4274 113.852 34.449 113.816 34.4638C113.781 34.4785 113.743 34.4861 113.704 34.4861Z" fill="#002947"/>
<path d="M91.7615 38.1966H83.3367C83.2588 38.1966 83.1841 38.1657 83.129 38.1106C83.0739 38.0556 83.043 37.9809 83.043 37.903C83.043 37.8252 83.0739 37.7505 83.129 37.6955C83.1841 37.6404 83.2588 37.6095 83.3367 37.6095H91.7615C91.8394 37.6095 91.9141 37.6404 91.9692 37.6955C92.0243 37.7505 92.0552 37.8252 92.0552 37.903C92.0537 37.9804 92.0223 38.0542 91.9675 38.109C91.9128 38.1637 91.8389 38.1951 91.7615 38.1966Z" fill="white"/>
<path d="M129.091 38.1966H94.323C94.2456 38.1951 94.1718 38.1637 94.117 38.109C94.0622 38.0542 94.0308 37.9804 94.0293 37.903C94.0293 37.8252 94.0602 37.7505 94.1153 37.6955C94.1704 37.6404 94.2451 37.6095 94.323 37.6095H129.091C129.169 37.6095 129.244 37.6404 129.299 37.6955C129.354 37.7505 129.385 37.8252 129.385 37.903C129.385 37.9416 129.377 37.9798 129.363 38.0154C129.348 38.051 129.326 38.0834 129.299 38.1106C129.272 38.1379 129.239 38.1595 129.204 38.1743C129.168 38.189 129.13 38.1966 129.091 38.1966Z" fill="#002947"/>
<path d="M148.72 38.1966H131.747C131.669 38.1966 131.594 38.1657 131.539 38.1106C131.484 38.0556 131.453 37.9809 131.453 37.903C131.453 37.8252 131.484 37.7505 131.539 37.6955C131.594 37.6404 131.669 37.6095 131.747 37.6095H148.72C148.798 37.6095 148.872 37.6404 148.927 37.6955C148.983 37.7505 149.013 37.8252 149.013 37.903C149.012 37.9804 148.981 38.0542 148.926 38.109C148.871 38.1637 148.797 38.1951 148.72 38.1966Z" fill="white"/>
<path d="M113.705 41.731H83.3367C83.2588 41.731 83.1841 41.7001 83.129 41.6451C83.0739 41.59 83.043 41.5153 83.043 41.4375C83.043 41.3596 83.0739 41.285 83.129 41.2299C83.1841 41.1749 83.2588 41.1439 83.3367 41.1439H113.705C113.783 41.1439 113.857 41.1749 113.912 41.2299C113.967 41.285 113.998 41.3596 113.998 41.4375C113.998 41.5153 113.967 41.59 113.912 41.6451C113.857 41.7001 113.783 41.731 113.705 41.731Z" fill="white"/>
<path d="M126.8 41.731H116.36C116.282 41.731 116.208 41.7001 116.152 41.6451C116.097 41.59 116.066 41.5153 116.066 41.4375C116.068 41.3601 116.099 41.2863 116.154 41.2316C116.209 41.1768 116.283 41.1454 116.36 41.1439H126.8C126.878 41.1439 126.953 41.1749 127.008 41.2299C127.063 41.285 127.094 41.3596 127.094 41.4375C127.094 41.5153 127.063 41.59 127.008 41.6451C126.953 41.7001 126.878 41.731 126.8 41.731Z" fill="#002947"/>
<path d="M87.5374 48.1364H83.325C83.2471 48.1364 83.1724 48.1054 83.1173 48.0504C83.0622 47.9953 83.0312 47.9207 83.0312 47.8428C83.0312 47.765 83.0622 47.6903 83.1173 47.6352C83.1724 47.5802 83.2471 47.5493 83.325 47.5493H87.5374C87.6148 47.5508 87.6886 47.5822 87.7434 47.6369C87.7982 47.6916 87.8296 47.7654 87.8311 47.8428C87.8311 47.9207 87.8002 47.9953 87.7451 48.0504C87.69 48.1054 87.6153 48.1364 87.5374 48.1364Z" fill="white"/>
<path d="M100.762 48.1364H90.1102C90.0322 48.1364 89.9575 48.1054 89.9024 48.0504C89.8474 47.9953 89.8164 47.9207 89.8164 47.8428C89.8179 47.7654 89.8493 47.6916 89.9041 47.6369C89.9589 47.5822 90.0327 47.5508 90.1102 47.5493H100.762C100.839 47.5493 100.914 47.5802 100.969 47.6352C101.024 47.6903 101.055 47.765 101.055 47.8428C101.055 47.9207 101.024 47.9953 100.969 48.0504C100.914 48.1054 100.839 48.1364 100.762 48.1364Z" fill="#002947"/>
<path d="M92.3079 51.4359H83.3367C83.2588 51.4359 83.1841 51.405 83.129 51.35C83.0739 51.2949 83.043 51.2202 83.043 51.1424C83.043 51.0645 83.0739 50.9899 83.129 50.9348C83.1841 50.8797 83.2588 50.8488 83.3367 50.8488H92.3079C92.3858 50.8488 92.4605 50.8797 92.5156 50.9348C92.5707 50.9899 92.6016 51.0645 92.6016 51.1424C92.6016 51.2202 92.5707 51.2949 92.5156 51.35C92.4605 51.405 92.3858 51.4359 92.3079 51.4359Z" fill="white"/>
<path d="M111.707 51.4359H94.323C94.2456 51.4344 94.1718 51.403 94.117 51.3483C94.0622 51.2936 94.0308 51.2198 94.0293 51.1424C94.0293 51.0645 94.0602 50.9899 94.1153 50.9348C94.1704 50.8797 94.2451 50.8488 94.323 50.8488H111.707C111.785 50.8488 111.86 50.8797 111.915 50.9348C111.97 50.9899 112.001 51.0645 112.001 51.1424C112.001 51.2202 111.97 51.2949 111.915 51.35C111.86 51.405 111.785 51.4359 111.707 51.4359Z" fill="#002947"/>
<path d="M123.563 51.4359H114.163C114.085 51.4344 114.012 51.403 113.957 51.3483C113.902 51.2936 113.871 51.2198 113.869 51.1424C113.869 51.0645 113.9 50.9899 113.955 50.9348C114.01 50.8797 114.085 50.8488 114.163 50.8488H123.563C123.641 50.8488 123.716 50.8797 123.771 50.9348C123.826 50.9899 123.857 51.0645 123.857 51.1424C123.857 51.2202 123.826 51.2949 123.771 51.35C123.716 51.405 123.641 51.4359 123.563 51.4359Z" fill="white"/>
<path d="M96.0972 54.9703H83.3367C83.2588 54.9703 83.1841 54.9393 83.129 54.8843C83.0739 54.8292 83.043 54.7546 83.043 54.6767C83.043 54.5989 83.0739 54.5242 83.129 54.4692C83.1841 54.4141 83.2588 54.3832 83.3367 54.3832H96.0972C96.1747 54.3847 96.2485 54.4161 96.3033 54.4708C96.358 54.5255 96.3895 54.5993 96.391 54.6767C96.391 54.7546 96.36 54.8292 96.3049 54.8843C96.2499 54.9393 96.1751 54.9703 96.0972 54.9703Z" fill="white"/>
<path d="M120.026 54.9703H98.7527C98.6748 54.9703 98.6001 54.9393 98.545 54.8843C98.4899 54.8292 98.459 54.7546 98.459 54.6767C98.459 54.5989 98.4899 54.5242 98.545 54.4692C98.6001 54.4141 98.6748 54.3832 98.7527 54.3832H120.026C120.104 54.3847 120.177 54.4161 120.232 54.4708C120.287 54.5255 120.318 54.5993 120.32 54.6767C120.32 54.7546 120.289 54.8292 120.234 54.8843C120.179 54.9393 120.104 54.9703 120.026 54.9703Z" fill="#002947"/>
<path d="M140.23 54.9703H123.075C122.997 54.9703 122.922 54.9393 122.867 54.8843C122.812 54.8292 122.781 54.7546 122.781 54.6767C122.783 54.5993 122.814 54.5255 122.869 54.4708C122.924 54.4161 122.998 54.3847 123.075 54.3832H140.23C140.308 54.3832 140.383 54.4141 140.438 54.4692C140.493 54.5242 140.524 54.5989 140.524 54.6767C140.524 54.7546 140.493 54.8292 140.438 54.8843C140.383 54.9393 140.308 54.9703 140.23 54.9703Z" fill="white"/>
<path d="M96.0972 61.2875H83.3367C83.2588 61.2875 83.1841 61.2566 83.129 61.2016C83.0739 61.1465 83.043 61.0718 83.043 60.994C83.043 60.9161 83.0739 60.8415 83.129 60.7864C83.1841 60.7314 83.2588 60.7004 83.3367 60.7004H96.0972C96.1751 60.7004 96.2499 60.7314 96.3049 60.7864C96.36 60.8415 96.391 60.9161 96.391 60.994C96.3895 61.0714 96.358 61.1452 96.3033 61.1999C96.2485 61.2546 96.1747 61.286 96.0972 61.2875Z" fill="white"/>
<path d="M103.018 61.2875H98.5232C98.4453 61.2875 98.3706 61.2566 98.3155 61.2016C98.2604 61.1465 98.2295 61.0718 98.2295 60.994C98.2295 60.9161 98.2604 60.8415 98.3155 60.7864C98.3706 60.7314 98.4453 60.7004 98.5232 60.7004H103.018C103.096 60.7004 103.17 60.7314 103.225 60.7864C103.28 60.8415 103.311 60.9161 103.311 60.994C103.31 61.0714 103.278 61.1452 103.224 61.1999C103.169 61.2546 103.095 61.286 103.018 61.2875Z" fill="#002947"/>
<path d="M114.162 61.2875H105.191C105.113 61.2875 105.039 61.2566 104.983 61.2016C104.928 61.1465 104.897 61.0718 104.897 60.994C104.897 60.9161 104.928 60.8415 104.983 60.7864C105.039 60.7314 105.113 60.7004 105.191 60.7004H114.162C114.24 60.7004 114.315 60.7314 114.37 60.7864C114.425 60.8415 114.456 60.9161 114.456 60.994C114.456 61.0718 114.425 61.1465 114.37 61.2016C114.315 61.2566 114.24 61.2875 114.162 61.2875Z" fill="#002947"/>
<path d="M91.7615 64.5813H83.3367C83.2588 64.5813 83.1841 64.5503 83.129 64.4953C83.0739 64.4402 83.043 64.3656 83.043 64.2877C83.043 64.2098 83.0739 64.1352 83.129 64.0801C83.1841 64.0251 83.2588 63.9941 83.3367 63.9941H91.7615C91.8394 63.9941 91.9141 64.0251 91.9692 64.0801C92.0243 64.1352 92.0552 64.2098 92.0552 64.2877C92.0537 64.3651 92.0223 64.4389 91.9675 64.4936C91.9128 64.5483 91.8389 64.5798 91.7615 64.5813Z" fill="white"/>
<path d="M129.091 64.5813H93.9588C93.8809 64.5813 93.8062 64.5503 93.7511 64.4953C93.696 64.4402 93.665 64.3656 93.665 64.2877C93.665 64.2098 93.696 64.1352 93.7511 64.0801C93.8062 64.0251 93.8809 63.9941 93.9588 63.9941H129.091C129.169 63.9941 129.244 64.0251 129.299 64.0801C129.354 64.1352 129.385 64.2098 129.385 64.2877C129.385 64.3262 129.377 64.3644 129.363 64.4C129.348 64.4357 129.326 64.468 129.299 64.4953C129.272 64.5225 129.239 64.5442 129.204 64.5589C129.168 64.5737 129.13 64.5813 129.091 64.5813Z" fill="#002947"/>
<path d="M149.812 64.5813H131.747C131.669 64.5813 131.594 64.5503 131.539 64.4953C131.484 64.4402 131.453 64.3656 131.453 64.2877C131.453 64.2098 131.484 64.1352 131.539 64.0801C131.594 64.0251 131.669 63.9941 131.747 63.9941H149.812C149.89 63.9941 149.965 64.0251 150.02 64.0801C150.075 64.1352 150.106 64.2098 150.106 64.2877C150.105 64.3651 150.073 64.4389 150.019 64.4936C149.964 64.5483 149.89 64.5798 149.812 64.5813Z" fill="#002947"/>
<path d="M113.704 68.2683H82.6668C82.5889 68.2683 82.5142 68.2373 82.4591 68.1823C82.404 68.1272 82.373 68.0526 82.373 67.9747C82.373 67.8969 82.404 67.8222 82.4591 67.7671C82.5142 67.7121 82.5889 67.6812 82.6668 67.6812H113.704C113.782 67.6812 113.857 67.7121 113.912 67.7671C113.967 67.8222 113.998 67.8969 113.998 67.9747C113.998 68.0133 113.991 68.0514 113.976 68.087C113.961 68.1227 113.939 68.155 113.912 68.1823C113.885 68.2095 113.852 68.2312 113.817 68.2459C113.781 68.2607 113.743 68.2683 113.704 68.2683Z" fill="white"/>
<path d="M125.884 68.2683H116.36C116.282 68.2683 116.208 68.2373 116.152 68.1823C116.097 68.1272 116.066 68.0526 116.066 67.9747C116.068 67.8973 116.099 67.8235 116.154 67.7688C116.209 67.7141 116.283 67.6827 116.36 67.6812H125.884C125.961 67.6812 126.036 67.7121 126.091 67.7671C126.146 67.8222 126.177 67.8969 126.177 67.9747C126.177 68.0526 126.146 68.1272 126.091 68.1823C126.036 68.2373 125.961 68.2683 125.884 68.2683Z" fill="#002947"/>
<path d="M75.9342 35.3726C76.4663 35.3726 76.8977 34.9415 76.8977 34.4098C76.8977 33.878 76.4663 33.4469 75.9342 33.4469C75.4021 33.4469 74.9707 33.878 74.9707 34.4098C74.9707 34.9415 75.4021 35.3726 75.9342 35.3726Z" fill="white"/>
<path d="M75.9342 38.8659C76.4663 38.8659 76.8977 38.4348 76.8977 37.903C76.8977 37.3713 76.4663 36.9402 75.9342 36.9402C75.4021 36.9402 74.9707 37.3713 74.9707 37.903C74.9707 38.4348 75.4021 38.8659 75.9342 38.8659Z" fill="white"/>
<path d="M75.9342 42.3592C76.4663 42.3592 76.8977 41.9281 76.8977 41.3963C76.8977 40.8646 76.4663 40.4335 75.9342 40.4335C75.4021 40.4335 74.9707 40.8646 74.9707 41.3963C74.9707 41.9281 75.4021 42.3592 75.9342 42.3592Z" fill="white"/>
<path d="M75.9342 48.8702C76.4663 48.8702 76.8977 48.4391 76.8977 47.9074C76.8977 47.3756 76.4663 46.9445 75.9342 46.9445C75.4021 46.9445 74.9707 47.3756 74.9707 47.9074C74.9707 48.4391 75.4021 48.8702 75.9342 48.8702Z" fill="white"/>
<path d="M75.9342 52.3635C76.4663 52.3635 76.8977 51.9324 76.8977 51.4007C76.8977 50.8689 76.4663 50.4378 75.9342 50.4378C75.4021 50.4378 74.9707 50.8689 74.9707 51.4007C74.9707 51.9324 75.4021 52.3635 75.9342 52.3635Z" fill="white"/>
<path d="M75.9342 55.8568C76.4663 55.8568 76.8977 55.4257 76.8977 54.8939C76.8977 54.3622 76.4663 53.9311 75.9342 53.9311C75.4021 53.9311 74.9707 54.3622 74.9707 54.8939C74.9707 55.4257 75.4021 55.8568 75.9342 55.8568Z" fill="white"/>
<path d="M75.9342 61.9569C76.4663 61.9569 76.8977 61.5258 76.8977 60.994C76.8977 60.4623 76.4663 60.0312 75.9342 60.0312C75.4021 60.0312 74.9707 60.4623 74.9707 60.994C74.9707 61.5258 75.4021 61.9569 75.9342 61.9569Z" fill="white"/>
<path d="M75.9342 65.4502C76.4663 65.4502 76.8977 65.0191 76.8977 64.4873C76.8977 63.9556 76.4663 63.5245 75.9342 63.5245C75.4021 63.5245 74.9707 63.9556 74.9707 64.4873C74.9707 65.0191 75.4021 65.4502 75.9342 65.4502Z" fill="white"/>
<path d="M75.9342 68.9376C76.4663 68.9376 76.8977 68.5065 76.8977 67.9747C76.8977 67.4429 76.4663 67.0118 75.9342 67.0118C75.4021 67.0118 74.9707 67.4429 74.9707 67.9747C74.9707 68.5065 75.4021 68.9376 75.9342 68.9376Z" fill="white"/>
<path d="M58.8847 28.0279H35.0557V49.2871H58.8847V28.0279Z" fill="white"/>
<path d="M58.8845 49.5807H35.0555C34.9776 49.5807 34.9028 49.5497 34.8478 49.4947C34.7927 49.4396 34.7617 49.365 34.7617 49.2871V28.0279C34.7617 27.9501 34.7927 27.8754 34.8478 27.8204C34.9028 27.7653 34.9776 27.7344 35.0555 27.7344H58.8845C58.9619 27.7359 59.0358 27.7673 59.0905 27.822C59.1453 27.8767 59.1767 27.9505 59.1782 28.0279V49.2871C59.1782 49.365 59.1473 49.4396 59.0922 49.4947C59.0371 49.5497 58.9624 49.5807 58.8845 49.5807ZM35.3492 48.9936H58.5907V28.3215H35.3492V48.9936Z" fill="#D1D3D4"/>
<path d="M42.7521 42.9816C42.6803 42.9807 42.6113 42.9535 42.5582 42.9052L38.3929 39.2358C38.3333 39.181 38.2975 39.1052 38.293 39.0245C38.2922 38.9461 38.3217 38.8704 38.3752 38.8131L42.5406 34.4274C42.5679 34.3999 42.6004 34.3781 42.6362 34.3632C42.672 34.3482 42.7104 34.3406 42.7492 34.3406C42.7879 34.3406 42.8263 34.3482 42.8621 34.3632C42.8979 34.3781 42.9304 34.3999 42.9577 34.4274C42.9851 34.4542 43.0068 34.4862 43.0217 34.5214C43.0365 34.5567 43.0441 34.5946 43.0441 34.6329C43.0441 34.6712 43.0365 34.7091 43.0217 34.7443C43.0068 34.7796 42.9851 34.8116 42.9577 34.8384L39.0097 38.9951L42.946 42.4649C43.0043 42.5169 43.04 42.5895 43.0455 42.6674C43.0509 42.7452 43.0258 42.8222 42.9754 42.8818C42.947 42.9129 42.9126 42.9378 42.8742 42.955C42.8357 42.9721 42.7942 42.9812 42.7521 42.9816Z" fill="#D1D3D4"/>
<path d="M50.3663 42.9815C50.3055 42.9834 50.2456 42.9663 50.1949 42.9327C50.1442 42.8991 50.1052 42.8506 50.0833 42.7939C50.0614 42.7372 50.0576 42.6751 50.0725 42.6161C50.0874 42.5572 50.1203 42.5043 50.1665 42.4649L54.1028 38.9951L50.1489 34.8325C50.1215 34.8057 50.0998 34.7737 50.085 34.7384C50.0701 34.7031 50.0625 34.6652 50.0625 34.627C50.0625 34.5887 50.0701 34.5508 50.085 34.5155C50.0998 34.4802 50.1215 34.4483 50.1489 34.4215C50.2048 34.3673 50.2796 34.337 50.3575 34.337C50.4353 34.337 50.5101 34.3673 50.566 34.4215L54.7314 38.8072C54.7583 38.8351 54.7789 38.8683 54.7921 38.9047C54.8053 38.9412 54.8106 38.9799 54.8078 39.0185C54.808 39.0584 54.7997 39.0979 54.7835 39.1343C54.7673 39.1707 54.7435 39.2033 54.7138 39.2299L50.5484 42.8993C50.4992 42.9472 50.4347 42.9762 50.3663 42.9815Z" fill="#D1D3D4"/>
<path d="M43.8507 44.1264C43.8033 44.1267 43.7567 44.1146 43.7155 44.0912C43.6812 44.0739 43.6508 44.0498 43.6259 44.0205C43.601 43.9912 43.5823 43.9572 43.5708 43.9205C43.5593 43.8839 43.5553 43.8453 43.5589 43.807C43.5626 43.7688 43.5739 43.7317 43.5922 43.6978L48.7622 33.764C48.7787 33.7273 48.8025 33.6943 48.8323 33.6672C48.8621 33.6401 48.8971 33.6194 48.9352 33.6064C48.9733 33.5934 49.0137 33.5883 49.0538 33.5916C49.094 33.5948 49.133 33.6063 49.1685 33.6253C49.2041 33.6442 49.2353 33.6703 49.2603 33.7018C49.2854 33.7333 49.3036 33.7697 49.314 33.8086C49.3244 33.8475 49.3266 33.8881 49.3206 33.9279C49.3146 33.9677 49.3005 34.0058 49.2792 34.0399L44.1092 43.9679C44.0846 44.0153 44.0475 44.0552 44.002 44.0831C43.9564 44.111 43.9041 44.126 43.8507 44.1264Z" fill="#D1D3D4"/>
<path d="M209.226 29.0612H172.378V83.3452H209.226V29.0612Z" fill="white"/>
<path d="M209.22 83.6387H172.378C172.3 83.6387 172.225 83.6078 172.17 83.5528C172.115 83.4977 172.084 83.423 172.084 83.3452V29.0612C172.084 28.9833 172.115 28.9087 172.17 28.8536C172.225 28.7986 172.3 28.7676 172.378 28.7676H209.22C209.298 28.7676 209.372 28.7986 209.428 28.8536C209.483 28.9087 209.514 28.9833 209.514 29.0612V83.3452C209.514 83.423 209.483 83.4977 209.428 83.5528C209.372 83.6078 209.298 83.6387 209.22 83.6387ZM172.671 83.0516H208.926V29.3547H172.671V83.0516Z" fill="#D1D3D4"/>
<path d="M209.22 32.9361H172.378C172.3 32.9361 172.225 32.9052 172.17 32.8501C172.115 32.7951 172.084 32.7204 172.084 32.6425C172.084 32.5647 172.115 32.49 172.17 32.435C172.225 32.3799 172.3 32.349 172.378 32.349H209.22C209.298 32.349 209.372 32.3799 209.428 32.435C209.483 32.49 209.514 32.5647 209.514 32.6425C209.514 32.7204 209.483 32.7951 209.428 32.8501C209.372 32.9052 209.298 32.9361 209.22 32.9361Z" fill="#D1D3D4"/>
<path d="M188.987 42.87H177.313C177.235 42.87 177.161 42.8391 177.106 42.784C177.05 42.729 177.02 42.6543 177.02 42.5765V36.0478C177.02 35.97 177.05 35.8953 177.106 35.8403C177.161 35.7852 177.235 35.7543 177.313 35.7543H188.987C189.065 35.7543 189.14 35.7852 189.195 35.8403C189.25 35.8953 189.281 35.97 189.281 36.0478V42.5765C189.281 42.6543 189.25 42.729 189.195 42.784C189.14 42.8391 189.065 42.87 188.987 42.87ZM177.607 42.2829H188.693V36.3414H177.607V42.2829Z" fill="#D1D3D4"/>
<path d="M205.407 58.0937H193.733C193.655 58.0937 193.581 58.0628 193.525 58.0077C193.47 57.9527 193.439 57.878 193.439 57.8002V51.2715C193.439 51.1937 193.47 51.119 193.525 51.064C193.581 51.0089 193.655 50.978 193.733 50.978H205.407C205.485 50.978 205.559 51.0089 205.615 51.064C205.67 51.119 205.701 51.1937 205.701 51.2715V57.8002C205.701 57.878 205.67 57.9527 205.615 58.0077C205.559 58.0628 205.485 58.0937 205.407 58.0937ZM194.027 57.5066H205.113V51.5651H194.027V57.5066Z" fill="#D1D3D4"/>
<path d="M188.987 61.3581H177.313C177.235 61.3581 177.161 61.3271 177.106 61.2721C177.05 61.217 177.02 61.1424 177.02 61.0645V54.5359C177.02 54.458 177.05 54.3833 177.106 54.3283C177.161 54.2732 177.235 54.2423 177.313 54.2423H188.987C189.064 54.2438 189.138 54.2752 189.193 54.33C189.248 54.3847 189.279 54.4585 189.281 54.5359V61.0645C189.281 61.1424 189.25 61.217 189.195 61.2721C189.14 61.3271 189.065 61.3581 188.987 61.3581ZM177.607 60.7709H188.693V54.8294H177.607V60.7709Z" fill="#D1D3D4"/>
<path d="M197.758 78.5192H186.085C186.007 78.5192 185.932 78.4882 185.877 78.4332C185.822 78.3781 185.791 78.3035 185.791 78.2256V71.7087C185.791 71.6309 185.822 71.5562 185.877 71.5011C185.932 71.4461 186.007 71.4152 186.085 71.4152H197.758C197.836 71.4167 197.91 71.4481 197.964 71.5028C198.019 71.5575 198.051 71.6313 198.052 71.7087V78.2374C198.049 78.3132 198.017 78.3848 197.962 78.4374C197.907 78.4899 197.834 78.5192 197.758 78.5192ZM186.379 77.9321H197.465V72.0023H186.379V77.9321Z" fill="#D1D3D4"/>
<path d="M199.574 51.5651C199.496 51.5651 199.421 51.5341 199.366 51.4791C199.311 51.424 199.28 51.3494 199.28 51.2715V47.9015H183.147C183.069 47.9015 182.995 47.8706 182.94 47.8155C182.884 47.7605 182.854 47.6858 182.854 47.608V42.5765C182.854 42.4986 182.884 42.4239 182.94 42.3689C182.995 42.3138 183.069 42.2829 183.147 42.2829C183.225 42.2829 183.3 42.3138 183.355 42.3689C183.41 42.4239 183.441 42.4986 183.441 42.5765V47.3144H199.574C199.651 47.3159 199.725 47.3473 199.78 47.4021C199.835 47.4568 199.866 47.5306 199.868 47.608V51.2715C199.868 51.3101 199.86 51.3482 199.845 51.3839C199.83 51.4195 199.809 51.4518 199.782 51.4791C199.754 51.5064 199.722 51.528 199.686 51.5427C199.651 51.5575 199.612 51.5651 199.574 51.5651Z" fill="#D1D3D4"/>
<path d="M183.147 54.8294C183.069 54.8294 182.995 54.7984 182.94 54.7434C182.884 54.6883 182.854 54.6137 182.854 54.5358V47.6079C182.855 47.5306 182.886 47.4568 182.941 47.402C182.996 47.3473 183.07 47.3159 183.147 47.3144C183.225 47.3144 183.3 47.3453 183.355 47.4004C183.41 47.4554 183.441 47.5301 183.441 47.6079V54.5358C183.441 54.5744 183.433 54.6125 183.419 54.6481C183.404 54.6838 183.382 54.7161 183.355 54.7434C183.328 54.7706 183.295 54.7923 183.26 54.807C183.224 54.8218 183.186 54.8294 183.147 54.8294Z" fill="#D1D3D4"/>
<path d="M192.412 71.7028C192.334 71.7028 192.26 71.6719 192.204 71.6168C192.149 71.5618 192.118 71.4871 192.118 71.4093V67.1469H183.147C183.069 67.1469 182.995 67.1159 182.94 67.0609C182.884 67.0058 182.854 66.9312 182.854 66.8533V61.0644C182.855 60.987 182.886 60.9132 182.941 60.8585C182.996 60.8038 183.07 60.7724 183.147 60.7709C183.225 60.7709 183.3 60.8018 183.355 60.8569C183.41 60.9119 183.441 60.9866 183.441 61.0644V66.5598H192.412C192.49 66.5598 192.565 66.5907 192.62 66.6457C192.675 66.7008 192.706 66.7755 192.706 66.8533V71.4093C192.706 71.4871 192.675 71.5618 192.62 71.6168C192.565 71.6719 192.49 71.7028 192.412 71.7028Z" fill="#D1D3D4"/>
<path d="M58.8845 31.1807H35.0555C34.9776 31.1807 34.9028 31.1497 34.8478 31.0947C34.7927 31.0396 34.7617 30.965 34.7617 30.8871C34.7617 30.8093 34.7927 30.7346 34.8478 30.6795C34.9028 30.6245 34.9776 30.5936 35.0555 30.5936H58.8845C58.9619 30.5951 59.0358 30.6265 59.0905 30.6812C59.1453 30.7359 59.1767 30.8097 59.1782 30.8871C59.1782 30.965 59.1473 31.0396 59.0922 31.0947C59.0371 31.1497 58.9624 31.1807 58.8845 31.1807Z" fill="#D1D3D4"/>
<path d="M62.4922 62.0038H25.7793V100.195H62.4922V62.0038Z" fill="white"/>
<path d="M62.4861 100.489H25.7791C25.7012 100.489 25.6265 100.458 25.5714 100.403C25.5163 100.348 25.4854 100.273 25.4854 100.195V62.0332C25.4854 61.9553 25.5163 61.8807 25.5714 61.8256C25.6265 61.7706 25.7012 61.7396 25.7791 61.7396H62.4861C62.564 61.7396 62.6387 61.7706 62.6938 61.8256C62.7489 61.8807 62.7798 61.9553 62.7798 62.0332V100.195C62.7798 100.273 62.7489 100.348 62.6938 100.403C62.6387 100.458 62.564 100.489 62.4861 100.489ZM26.0611 99.9017H62.1806V62.3267H26.0729L26.0611 99.9017Z" fill="#D1D3D4"/>
<path d="M62.4861 66.0725H25.7791C25.7012 66.0725 25.6265 66.0416 25.5714 65.9865C25.5163 65.9315 25.4854 65.8568 25.4854 65.779C25.4854 65.7011 25.5163 65.6264 25.5714 65.5714C25.6265 65.5163 25.7012 65.4854 25.7791 65.4854H62.4861C62.564 65.4854 62.6387 65.5163 62.6938 65.5714C62.7489 65.6264 62.7798 65.7011 62.7798 65.779C62.7798 65.8568 62.7489 65.9315 62.6938 65.9865C62.6387 66.0416 62.564 66.0725 62.4861 66.0725Z" fill="#D1D3D4"/>
<path d="M33.4873 69.1254H28.993C28.9151 69.1254 28.8403 69.0945 28.7853 69.0394C28.7302 68.9844 28.6992 68.9097 28.6992 68.8319C28.6992 68.754 28.7302 68.6794 28.7853 68.6243C28.8403 68.5693 28.9151 68.5383 28.993 68.5383H33.4873C33.5653 68.5383 33.64 68.5693 33.6951 68.6243C33.7501 68.6794 33.7811 68.754 33.7811 68.8319C33.7811 68.9097 33.7501 68.9844 33.6951 69.0394C33.64 69.0945 33.5653 69.1254 33.4873 69.1254Z" fill="#D1D3D4"/>
<path d="M44.7843 69.1254H35.8367C35.7588 69.1254 35.6841 69.0945 35.629 69.0394C35.5739 68.9844 35.543 68.9097 35.543 68.8319C35.5445 68.7545 35.5759 68.6807 35.6307 68.626C35.6854 68.5712 35.7593 68.5398 35.8367 68.5383H44.7843C44.8622 68.5383 44.937 68.5693 44.9921 68.6243C45.0471 68.6794 45.0781 68.754 45.0781 68.8319C45.0781 68.9097 45.0471 68.9844 44.9921 69.0394C44.937 69.0945 44.8622 69.1254 44.7843 69.1254Z" fill="#D1D3D4"/>
<path d="M47.4816 72.5248H38.534C38.4561 72.5248 38.3814 72.4939 38.3263 72.4388C38.2712 72.3838 38.2402 72.3091 38.2402 72.2312C38.2402 72.1534 38.2712 72.0787 38.3263 72.0237C38.3814 71.9686 38.4561 71.9377 38.534 71.9377H47.4816C47.5595 71.9377 47.6342 71.9686 47.6893 72.0237C47.7444 72.0787 47.7754 72.1534 47.7754 72.2312C47.7754 72.3091 47.7444 72.3838 47.6893 72.4388C47.6342 72.4939 47.5595 72.5248 47.4816 72.5248Z" fill="#D1D3D4"/>
<path d="M34.5332 72.5248H30.0447C29.9668 72.5248 29.8921 72.4939 29.837 72.4388C29.7819 72.3838 29.751 72.3091 29.751 72.2312C29.7525 72.1538 29.7839 72.0801 29.8387 72.0253C29.8934 71.9706 29.9673 71.9392 30.0447 71.9377H34.5332C34.6107 71.9392 34.6845 71.9706 34.7393 72.0253C34.794 72.0801 34.8255 72.1538 34.827 72.2312C34.827 72.3091 34.796 72.3838 34.7409 72.4388C34.6858 72.4939 34.6111 72.5248 34.5332 72.5248Z" fill="#D1D3D4"/>
<path d="M34.7028 75.9242H31.0955C31.0176 75.9242 30.9429 75.8933 30.8878 75.8382C30.8327 75.7832 30.8018 75.7085 30.8018 75.6306C30.8033 75.5533 30.8347 75.4795 30.8895 75.4247C30.9442 75.37 31.0181 75.3386 31.0955 75.3371H34.7028C34.7802 75.3386 34.854 75.37 34.9088 75.4247C34.9636 75.4795 34.995 75.5533 34.9965 75.6306C34.9965 75.7085 34.9656 75.7832 34.9105 75.8382C34.8554 75.8933 34.7807 75.9242 34.7028 75.9242Z" fill="#D1D3D4"/>
<path d="M49.0794 75.9242H37.8816C37.8037 75.9242 37.729 75.8933 37.6739 75.8382C37.6188 75.7832 37.5879 75.7085 37.5879 75.6306C37.5879 75.5528 37.6188 75.4781 37.6739 75.4231C37.729 75.368 37.8037 75.3371 37.8816 75.3371H49.0794C49.1573 75.3371 49.232 75.368 49.2871 75.4231C49.3422 75.4781 49.3731 75.5528 49.3731 75.6306C49.3731 75.7085 49.3422 75.7832 49.2871 75.8382C49.232 75.8933 49.1573 75.9242 49.0794 75.9242Z" fill="#D1D3D4"/>
<path d="M36.6357 79.3235H32.1531C32.0752 79.3235 32.0005 79.2926 31.9454 79.2375C31.8903 79.1825 31.8594 79.1078 31.8594 79.03C31.8594 78.9521 31.8903 78.8774 31.9454 78.8224C32.0005 78.7673 32.0752 78.7364 32.1531 78.7364H36.6357C36.7137 78.7364 36.7884 78.7673 36.8435 78.8224C36.8985 78.8774 36.9295 78.9521 36.9295 79.03C36.9295 79.1078 36.8985 79.1825 36.8435 79.2375C36.7884 79.2926 36.7137 79.3235 36.6357 79.3235Z" fill="#D1D3D4"/>
<path d="M51.3995 79.3235H38.0809C38.003 79.3235 37.9282 79.2926 37.8731 79.2375C37.8181 79.1825 37.7871 79.1078 37.7871 79.03C37.7871 78.9521 37.8181 78.8774 37.8731 78.8224C37.9282 78.7673 38.003 78.7364 38.0809 78.7364H51.3995C51.4769 78.7379 51.5508 78.7693 51.6055 78.824C51.6603 78.8788 51.6917 78.9526 51.6932 79.03C51.6932 79.1078 51.6623 79.1825 51.6072 79.2375C51.5521 79.2926 51.4774 79.3235 51.3995 79.3235Z" fill="#D1D3D4"/>
<path d="M35.4434 82.7229H30.9607C30.8828 82.7229 30.8081 82.6919 30.753 82.6369C30.6979 82.5818 30.667 82.5072 30.667 82.4293C30.667 82.3514 30.6979 82.2768 30.753 82.2217C30.8081 82.1667 30.8828 82.1357 30.9607 82.1357H35.4434C35.5213 82.1357 35.596 82.1667 35.6511 82.2217C35.7062 82.2768 35.7371 82.3514 35.7371 82.4293C35.7371 82.5072 35.7062 82.5818 35.6511 82.6369C35.596 82.6919 35.5213 82.7229 35.4434 82.7229Z" fill="#D1D3D4"/>
<path d="M44.3852 82.7229H37.1648C37.0869 82.7229 37.0122 82.6919 36.9571 82.6369C36.902 82.5818 36.8711 82.5072 36.8711 82.4293C36.8711 82.3514 36.902 82.2768 36.9571 82.2217C37.0122 82.1667 37.0869 82.1357 37.1648 82.1357H44.3852C44.4631 82.1357 44.5378 82.1667 44.5929 82.2217C44.648 82.2768 44.679 82.3514 44.679 82.4293C44.679 82.5072 44.648 82.5818 44.5929 82.6369C44.5378 82.6919 44.4631 82.7229 44.3852 82.7229Z" fill="#D1D3D4"/>
<path d="M54.3667 82.7229H47.1463C47.0684 82.7229 46.9937 82.6919 46.9386 82.6369C46.8835 82.5818 46.8525 82.5072 46.8525 82.4293C46.8525 82.3514 46.8835 82.2768 46.9386 82.2217C46.9937 82.1667 47.0684 82.1357 47.1463 82.1357H54.3667C54.4446 82.1357 54.5193 82.1667 54.5744 82.2217C54.6295 82.2768 54.6604 82.3514 54.6604 82.4293C54.6604 82.5072 54.6295 82.5818 54.5744 82.6369C54.5193 82.6919 54.4446 82.7229 54.3667 82.7229Z" fill="#D1D3D4"/>
<path d="M32.5059 86.1516H30.9607C30.8828 86.1516 30.8081 86.1207 30.753 86.0656C30.6979 86.0106 30.667 85.9359 30.667 85.8581C30.667 85.7802 30.6979 85.7056 30.753 85.6505C30.8081 85.5954 30.8828 85.5645 30.9607 85.5645H32.5059C32.5838 85.5645 32.6585 85.5954 32.7136 85.6505C32.7687 85.7056 32.7996 85.7802 32.7996 85.8581C32.7996 85.9359 32.7687 86.0106 32.7136 86.0656C32.6585 86.1207 32.5838 86.1516 32.5059 86.1516Z" fill="#D1D3D4"/>
<path d="M44.3847 86.1516H35.1375C35.0596 86.1516 34.9849 86.1207 34.9298 86.0656C34.8747 86.0106 34.8438 85.9359 34.8438 85.8581C34.8453 85.7807 34.8767 85.7069 34.9315 85.6522C34.9862 85.5974 35.0601 85.566 35.1375 85.5645H44.3847C44.4627 85.5645 44.5374 85.5954 44.5925 85.6505C44.6475 85.7056 44.6785 85.7802 44.6785 85.8581C44.6785 85.9359 44.6475 86.0106 44.5925 86.0656C44.5374 86.1207 44.4627 86.1516 44.3847 86.1516Z" fill="#D1D3D4"/>
<path d="M48.0281 86.1516H45.449C45.3711 86.1516 45.2964 86.1207 45.2413 86.0656C45.1862 86.0106 45.1553 85.9359 45.1553 85.8581C45.1553 85.7802 45.1862 85.7056 45.2413 85.6505C45.2964 85.5954 45.3711 85.5645 45.449 85.5645H48.0281C48.106 85.5645 48.1808 85.5954 48.2359 85.6505C48.2909 85.7056 48.3219 85.7802 48.3219 85.8581C48.3219 85.9359 48.2909 86.0106 48.2359 86.0656C48.1808 86.1207 48.106 86.1516 48.0281 86.1516Z" fill="#D1D3D4"/>
<path d="M33.3871 89.5216H30.9607C30.8828 89.5216 30.8081 89.4907 30.753 89.4356C30.6979 89.3806 30.667 89.3059 30.667 89.2281C30.667 89.1502 30.6979 89.0755 30.753 89.0205C30.8081 88.9654 30.8828 88.9345 30.9607 88.9345H33.3871C33.465 88.9345 33.5397 88.9654 33.5948 89.0205C33.6499 89.0755 33.6809 89.1502 33.6809 89.2281C33.6809 89.3059 33.6499 89.3806 33.5948 89.4356C33.5397 89.4907 33.465 89.5216 33.3871 89.5216Z" fill="#D1D3D4"/>
<path d="M46.6472 89.5216H35.6727C35.5947 89.5216 35.52 89.4907 35.4649 89.4356C35.4099 89.3806 35.3789 89.3059 35.3789 89.2281C35.3804 89.1507 35.4118 89.0769 35.4666 89.0222C35.5214 88.9674 35.5952 88.936 35.6727 88.9345H46.6472C46.7251 88.9345 46.7998 88.9654 46.8549 89.0205C46.91 89.0755 46.9409 89.1502 46.9409 89.2281C46.9409 89.3059 46.91 89.3806 46.8549 89.4356C46.7998 89.4907 46.7251 89.5216 46.6472 89.5216Z" fill="#D1D3D4"/>
<path d="M52.2168 89.5216H47.7342C47.6563 89.5216 47.5816 89.4907 47.5265 89.4356C47.4714 89.3806 47.4404 89.3059 47.4404 89.2281C47.4404 89.1502 47.4714 89.0755 47.5265 89.0205C47.5816 88.9654 47.6563 88.9345 47.7342 88.9345H52.2168C52.2947 88.9345 52.3694 88.9654 52.4245 89.0205C52.4796 89.0755 52.5106 89.1502 52.5106 89.2281C52.5106 89.3059 52.4796 89.3806 52.4245 89.4356C52.3694 89.4907 52.2947 89.5216 52.2168 89.5216Z" fill="#D1D3D4"/>
<path d="M32.3119 92.9209H29.909C29.8311 92.9209 29.7564 92.89 29.7013 92.835C29.6462 92.7799 29.6152 92.7052 29.6152 92.6274C29.6152 92.5495 29.6462 92.4748 29.7013 92.4198C29.7564 92.3647 29.8311 92.3338 29.909 92.3338H32.3119C32.3893 92.3353 32.4631 92.3667 32.5179 92.4214C32.5727 92.4762 32.6041 92.55 32.6056 92.6274C32.6056 92.7052 32.5747 92.7799 32.5196 92.835C32.4645 92.89 32.3898 92.9209 32.3119 92.9209Z" fill="#D1D3D4"/>
<path d="M45.4484 92.9209H35.0555C34.9776 92.9209 34.9028 92.89 34.8478 92.835C34.7927 92.7799 34.7617 92.7052 34.7617 92.6274C34.7632 92.55 34.7947 92.4762 34.8494 92.4214C34.9042 92.3667 34.978 92.3353 35.0555 92.3338H45.4484C45.5263 92.3338 45.601 92.3647 45.6561 92.4198C45.7112 92.4748 45.7421 92.5495 45.7421 92.6274C45.7421 92.7052 45.7112 92.7799 45.6561 92.835C45.601 92.89 45.5263 92.9209 45.4484 92.9209Z" fill="#D1D3D4"/>
<path d="M34.3916 96.3203H29.909C29.8311 96.3203 29.7564 96.2893 29.7013 96.2343C29.6462 96.1792 29.6152 96.1046 29.6152 96.0267C29.6152 95.9489 29.6462 95.8742 29.7013 95.8191C29.7564 95.7641 29.8311 95.7332 29.909 95.7332H34.3916C34.4695 95.7332 34.5442 95.7641 34.5993 95.8191C34.6544 95.8742 34.6854 95.9489 34.6854 96.0267C34.6854 96.1046 34.6544 96.1792 34.5993 96.2343C34.5442 96.2893 34.4695 96.3203 34.3916 96.3203Z" fill="#D1D3D4"/>
<path d="M59.2728 79.3235H53.2098C53.1319 79.3235 53.0571 79.2926 53.0021 79.2375C52.947 79.1825 52.916 79.1078 52.916 79.03C52.916 78.9521 52.947 78.8774 53.0021 78.8224C53.0571 78.7673 53.1319 78.7364 53.2098 78.7364H59.2728C59.3507 78.7364 59.4254 78.7673 59.4805 78.8224C59.5356 78.8774 59.5665 78.9521 59.5665 79.03C59.5665 79.1078 59.5356 79.1825 59.4805 79.2375C59.4254 79.2926 59.3507 79.3235 59.2728 79.3235Z" fill="#D1D3D4"/>
<path d="M50.1959 69.1255C47.1585 69.1255 47.0939 69.1255 47.0586 69.1255C46.9849 69.1024 46.9233 69.0513 46.887 68.9832C46.8507 68.9151 46.8427 68.8354 46.8648 68.7615C46.884 68.6936 46.9276 68.6351 46.9872 68.5972C47.0468 68.5593 47.1182 68.5447 47.1879 68.556C47.5463 68.556 53.4154 68.556 57.2929 68.556C57.3708 68.556 57.4455 68.5869 57.5006 68.642C57.5557 68.697 57.5866 68.7717 57.5866 68.8495C57.5866 68.9274 57.5557 69.002 57.5006 69.0571C57.4455 69.1122 57.3708 69.1431 57.2929 69.1431C53.95 69.1255 51.6999 69.1255 50.1959 69.1255Z" fill="#D1D3D4"/>
<path d="M51.1886 92.9209H46.6473C46.5694 92.9209 46.4946 92.89 46.4396 92.835C46.3845 92.7799 46.3535 92.7052 46.3535 92.6274C46.355 92.55 46.3864 92.4762 46.4412 92.4214C46.496 92.3667 46.5698 92.3353 46.6473 92.3338H51.1886C51.2661 92.3353 51.3399 92.3667 51.3947 92.4214C51.4495 92.4762 51.4809 92.55 51.4824 92.6274C51.4824 92.7052 51.4515 92.7799 51.3964 92.835C51.3413 92.89 51.2666 92.9209 51.1886 92.9209Z" fill="#D1D3D4"/>
<path d="M40.7782 96.3203H37.4354C37.3574 96.3203 37.2827 96.2893 37.2276 96.2343C37.1725 96.1792 37.1416 96.1046 37.1416 96.0267C37.1431 95.9493 37.1745 95.8755 37.2293 95.8208C37.2841 95.7661 37.3579 95.7347 37.4354 95.7332H40.7782C40.8557 95.7347 40.9295 95.7661 40.9843 95.8208C41.039 95.8755 41.0705 95.9493 41.072 96.0267C41.072 96.1046 41.041 96.1792 40.9859 96.2343C40.9308 96.2893 40.8561 96.3203 40.7782 96.3203Z" fill="#D1D3D4"/>
<path d="M49.9779 96.3203H42.0408C41.9629 96.3203 41.8882 96.2893 41.8331 96.2343C41.778 96.1792 41.7471 96.1046 41.7471 96.0267C41.7486 95.9493 41.78 95.8755 41.8348 95.8208C41.8895 95.7661 41.9634 95.7347 42.0408 95.7332H49.9779C50.0554 95.7347 50.1292 95.7661 50.184 95.8208C50.2387 95.8755 50.2702 95.9493 50.2717 96.0267C50.2717 96.1046 50.2407 96.1792 50.1856 96.2343C50.1306 96.2893 50.0558 96.3203 49.9779 96.3203Z" fill="#D1D3D4"/>
<path d="M189.281 119.681C197.464 119.681 204.097 113.052 204.097 104.874C204.097 96.6968 197.464 90.0676 189.281 90.0676C181.098 90.0676 174.464 96.6968 174.464 104.874C174.464 113.052 181.098 119.681 189.281 119.681Z" fill="white"/>
<path d="M189.28 119.975C186.292 119.975 183.37 119.089 180.885 117.43C178.401 115.771 176.464 113.412 175.32 110.653C174.176 107.894 173.877 104.858 174.46 101.929C175.043 98.9993 176.482 96.3087 178.596 94.1969C180.709 92.085 183.401 90.6469 186.333 90.0642C189.264 89.4816 192.302 89.7806 195.063 90.9235C197.824 92.0664 200.184 94.0019 201.844 96.4851C203.505 98.9684 204.391 101.888 204.391 104.874C204.386 108.878 202.793 112.716 199.96 115.547C197.127 118.378 193.287 119.97 189.28 119.975ZM189.28 90.367C186.408 90.367 183.6 91.2184 181.211 92.8134C178.823 94.4084 176.961 96.6754 175.862 99.3277C174.763 101.98 174.476 104.898 175.037 107.714C175.598 110.529 176.982 113.115 179.013 115.145C181.045 117.174 183.633 118.556 186.451 119.115C189.268 119.675 192.189 119.387 194.842 118.287C197.496 117.188 199.764 115.327 201.359 112.939C202.954 110.552 203.805 107.745 203.803 104.874C203.799 101.027 202.267 97.3391 199.544 94.6192C196.821 91.8994 193.13 90.3701 189.28 90.367Z" fill="#002947"/>
<path d="M195.788 115.688L195.793 115.685C196.489 115.282 196.726 114.391 196.323 113.695L194.536 110.618C194.132 109.922 193.241 109.686 192.545 110.089L192.54 110.092C191.843 110.496 191.607 111.387 192.01 112.082L193.797 115.16C194.201 115.855 195.092 116.092 195.788 115.688Z" fill="white"/>
<path d="M195.05 116.182C194.897 116.183 194.745 116.163 194.597 116.123C194.374 116.065 194.166 115.963 193.983 115.823C193.8 115.683 193.648 115.507 193.534 115.307L191.771 112.237C191.54 111.834 191.477 111.357 191.596 110.909C191.715 110.46 192.006 110.077 192.406 109.841C192.808 109.61 193.286 109.547 193.735 109.666C194.184 109.785 194.567 110.076 194.803 110.475L196.565 113.552C196.796 113.955 196.858 114.433 196.738 114.881C196.618 115.33 196.326 115.713 195.925 115.947C195.659 116.1 195.357 116.181 195.05 116.182ZM193.287 110.223C193.081 110.223 192.879 110.276 192.7 110.376C192.433 110.532 192.239 110.788 192.16 111.087C192.08 111.386 192.122 111.704 192.277 111.973L194.039 115.043C194.213 115.272 194.464 115.429 194.745 115.485C195.027 115.541 195.319 115.492 195.567 115.347C195.815 115.203 196.001 114.973 196.091 114.7C196.181 114.428 196.168 114.132 196.054 113.869L194.292 110.798C194.138 110.531 193.884 110.335 193.587 110.252C193.488 110.231 193.388 110.221 193.287 110.223Z" fill="#002947"/>
<path d="M189.281 113.769C194.417 113.769 198.581 109.608 198.581 104.475C198.581 99.3423 194.417 95.1813 189.281 95.1813C184.144 95.1813 179.98 99.3423 179.98 104.475C179.98 109.608 184.144 113.769 189.281 113.769Z" fill="white"/>
<path d="M189.298 114.069C188.463 114.068 187.632 113.96 186.825 113.746C185.605 113.425 184.461 112.867 183.459 112.102C182.456 111.337 181.616 110.381 180.985 109.29C179.926 107.464 179.499 105.34 179.771 103.247C180.043 101.154 180.998 99.2091 182.489 97.7141C183.98 96.2191 185.922 95.2573 188.016 94.978C190.109 94.6986 192.236 95.1174 194.067 96.1692C195.898 97.221 197.33 98.8471 198.142 100.795C198.954 102.744 199.1 104.905 198.557 106.945C198.014 108.984 196.813 110.788 195.141 112.076C193.468 113.364 191.416 114.064 189.304 114.069H189.298ZM189.298 95.4807C187.718 95.4824 186.166 95.8998 184.798 96.691C183.431 97.4822 182.296 98.6192 181.507 99.9879C180.719 101.357 180.305 102.909 180.307 104.488C180.309 106.067 180.728 107.618 181.52 108.984C182.311 110.353 183.449 111.489 184.819 112.278C186.19 113.068 187.744 113.483 189.325 113.481C190.907 113.48 192.46 113.063 193.829 112.271C195.198 111.479 196.334 110.341 197.123 108.971C197.912 107.601 198.327 106.048 198.324 104.468C198.322 102.887 197.903 101.335 197.11 99.9675C196.317 98.6 195.177 97.4654 193.806 96.6778C192.435 95.8902 190.88 95.4773 189.298 95.4807Z" fill="#002947"/>
<path d="M189.28 112.102C193.495 112.102 196.912 108.687 196.912 104.475C196.912 100.263 193.495 96.8487 189.28 96.8487C185.065 96.8487 181.648 100.263 181.648 104.475C181.648 108.687 185.065 112.102 189.28 112.102Z" fill="#002947"/>
</svg>
