<svg width="235" height="177" viewBox="0 0 235 177" fill="none" xmlns="http://www.w3.org/2000/svg">
<path d="M189.334 26.0376H79.6768V132.404H189.334V26.0376Z" fill="white"/>
<path d="M189.333 26.0376V132.41H79.6762V26.0376H189.333ZM189.333 25.5034H79.6762C79.5344 25.5034 79.3984 25.5596 79.2982 25.6598C79.1979 25.76 79.1416 25.8959 79.1416 26.0376V132.41C79.1416 132.552 79.1979 132.687 79.2982 132.788C79.3984 132.888 79.5344 132.944 79.6762 132.944H189.333C189.403 132.944 189.473 132.93 189.538 132.903C189.603 132.877 189.661 132.837 189.711 132.788C189.761 132.738 189.8 132.679 189.827 132.614C189.854 132.549 189.868 132.48 189.868 132.41V26.0376C189.868 25.9675 189.854 25.898 189.827 25.8332C189.8 25.7683 189.761 25.7095 189.711 25.6598C189.661 25.6102 189.603 25.5709 189.538 25.544C189.473 25.5172 189.403 25.5034 189.333 25.5034Z" fill="#002947"/>
<path d="M136.465 39.2593H111.502C111.148 39.2593 110.861 39.5458 110.861 39.8992V40.5392C110.861 40.8926 111.148 41.1791 111.502 41.1791H136.465C136.818 41.1791 137.105 40.8926 137.105 40.5392V39.8992C137.105 39.5458 136.818 39.2593 136.465 39.2593Z" fill="#D1D3D4"/>
<path d="M121.507 48.3477H111.684V59.403H121.507V48.3477Z" fill="#D1D3D4"/>
<path d="M174.522 49.1697H127.569C126.771 49.1697 126.124 49.8163 126.124 50.614V50.6198C126.124 51.4175 126.771 52.0641 127.569 52.0641H174.522C175.32 52.0641 175.968 51.4175 175.968 50.6198V50.614C175.968 49.8163 175.32 49.1697 174.522 49.1697Z" fill="#D1D3D4"/>
<path d="M159.664 54.7003H127.569C126.771 54.7003 126.124 55.3469 126.124 56.1445V56.1504C126.124 56.9481 126.771 57.5947 127.569 57.5947H159.664C160.463 57.5947 161.11 56.9481 161.11 56.1504V56.1445C161.11 55.3469 160.463 54.7003 159.664 54.7003Z" fill="#D1D3D4"/>
<path d="M121.507 94.3887H111.684V105.444H121.507V94.3887Z" fill="#D1D3D4"/>
<path d="M174.522 95.2166H127.569C126.771 95.2166 126.124 95.8632 126.124 96.6608V96.6667C126.124 97.4644 126.771 98.111 127.569 98.111H174.522C175.32 98.111 175.968 97.4644 175.968 96.6667V96.6608C175.968 95.8632 175.32 95.2166 174.522 95.2166Z" fill="#D1D3D4"/>
<path d="M159.664 100.741H127.569C126.771 100.741 126.124 101.388 126.124 102.185V102.191C126.124 102.989 126.771 103.636 127.569 103.636H159.664C160.463 103.636 161.11 102.989 161.11 102.191V102.185C161.11 101.388 160.463 100.741 159.664 100.741Z" fill="#D1D3D4"/>
<path d="M121.507 111.538H111.684V122.593H121.507V111.538Z" fill="#D1D3D4"/>
<path d="M174.522 112.366H127.569C126.771 112.366 126.124 113.013 126.124 113.81V113.816C126.124 114.614 126.771 115.26 127.569 115.26H174.522C175.32 115.26 175.968 114.614 175.968 113.816V113.81C175.968 113.013 175.32 112.366 174.522 112.366Z" fill="#D1D3D4"/>
<path d="M159.664 117.891H127.569C126.771 117.891 126.124 118.537 126.124 119.335V119.341C126.124 120.139 126.771 120.785 127.569 120.785H159.664C160.463 120.785 161.11 120.139 161.11 119.341V119.335C161.11 118.537 160.463 117.891 159.664 117.891Z" fill="#D1D3D4"/>
<path d="M84.1057 30.94C84.7546 30.94 85.2807 30.4143 85.2807 29.7658C85.2807 29.1173 84.7546 28.5916 84.1057 28.5916C83.4567 28.5916 82.9307 29.1173 82.9307 29.7658C82.9307 30.4143 83.4567 30.94 84.1057 30.94Z" fill="#F8A8C3"/>
<path d="M88.2189 30.94C88.8679 30.94 89.394 30.4143 89.394 29.7658C89.394 29.1173 88.8679 28.5916 88.2189 28.5916C87.57 28.5916 87.0439 29.1173 87.0439 29.7658C87.0439 30.4143 87.57 30.94 88.2189 30.94Z" fill="#D1D3D4"/>
<path d="M92.3312 30.94C92.9802 30.94 93.5062 30.4143 93.5062 29.7658C93.5062 29.1173 92.9802 28.5916 92.3312 28.5916C91.6823 28.5916 91.1562 29.1173 91.1562 29.7658C91.1562 30.4143 91.6823 30.94 92.3312 30.94Z" fill="#D1D3D4"/>
<path d="M103.294 33.4998H102.706V132.41H103.294V33.4998Z" fill="#D1D3D4"/>
<path d="M189.334 33.2062H79.6768V33.7933H189.334V33.2062Z" fill="#D1D3D4"/>
<path d="M204.714 144.757H39.4324C39.3545 144.757 39.2798 144.726 39.2247 144.671C39.1696 144.616 39.1387 144.541 39.1387 144.463C39.1387 144.385 39.1696 144.311 39.2247 144.256C39.2798 144.201 39.3545 144.17 39.4324 144.17H204.714C204.792 144.17 204.866 144.201 204.922 144.256C204.977 144.311 205.008 144.385 205.008 144.463C205.006 144.541 204.975 144.614 204.92 144.669C204.865 144.724 204.791 144.755 204.714 144.757Z" fill="#D1D3D4"/>
<path d="M186.759 113.91C186.836 112.825 186.606 111.741 186.096 110.781C185.591 110.145 185.12 109.482 184.686 108.796C184.098 107.522 184.509 106.031 184.368 104.634C184.248 103.463 183.732 102.367 182.905 101.528C182.171 100.788 181.231 100.283 180.555 99.5142C179.38 98.246 179.081 96.473 178.435 94.8937C177.508 92.6676 175.908 90.787 173.858 89.5157C175.103 92.0227 172.26 95.2107 173.547 97.7C173.958 98.4926 174.722 99.068 175.039 99.9017C175.761 101.921 173.353 104.111 174.122 106.107C174.504 107.111 175.579 107.687 176.079 108.638C176.748 109.918 176.22 111.468 176.278 112.912C176.349 114.902 177.565 116.681 179.004 118.061C179.903 118.918 180.902 119.664 181.871 120.439C183.046 121.366 183.516 122.341 184.539 120.85C185.935 118.8 186.707 116.389 186.759 113.91Z" fill="#002947"/>
<path d="M188.052 115.049C187.682 113.511 187.417 111.838 188.052 110.387C188.763 108.743 190.537 107.581 190.743 105.802C190.878 104.628 190.285 103.454 190.52 102.279C190.755 101.105 191.694 100.348 192.47 99.4965C194.253 97.5356 195.314 95.0256 195.478 92.3808C196.676 93.7983 197.643 95.3951 198.345 97.1129C198.933 98.8742 198.968 100.923 197.928 102.456C197.63 102.81 197.384 103.205 197.199 103.63C196.853 104.763 197.822 105.82 198.322 106.894C198.633 107.514 198.766 108.208 198.707 108.899C198.648 109.591 198.399 110.252 197.987 110.81C196.97 112.078 195.002 112.571 194.503 114.121C194.378 114.7 194.319 115.291 194.326 115.883C194.221 116.905 193.811 117.873 193.151 118.661C192.49 119.449 191.608 120.021 190.619 120.304C189.415 120.591 189.444 120.116 189.221 119.129C188.904 117.726 188.381 116.411 188.052 115.049Z" fill="#002947"/>
<path d="M184.216 103.97C183.364 101.035 183.041 97.9173 182.119 94.9758C181.349 92.6739 180.412 90.4311 179.316 88.2652L182.988 89.8152C184.163 90.3083 185.438 90.8954 185.996 92.0462C186.966 94.0482 185.227 96.6139 186.243 98.5924C186.683 99.2345 187.168 99.8447 187.694 100.418C188.775 101.939 188.611 104.023 188.017 105.79C187.765 106.548 186.648 110.487 185.667 109.389C185.268 108.949 185.233 107.323 185.08 106.724C184.798 105.802 184.475 104.892 184.216 103.97Z" fill="#002947"/>
<path d="M186.237 143.289C185.502 138.451 183.211 121.402 183.188 121.231L183.775 121.149C183.775 121.319 186.09 138.369 186.824 143.201L186.237 143.289Z" fill="#002947"/>
<path d="M187.065 147.857H186.478C186.519 142.115 188.91 120.175 190.29 118.666L190.725 119.065C189.809 120.063 187.118 139.989 187.065 147.857Z" fill="#002947"/>
<path d="M188.311 146.765L187.723 146.735C188.27 134.353 185.644 108.338 185.614 108.08L186.202 108.021C186.237 108.28 188.857 134.336 188.311 146.765Z" fill="#002947"/>
<path d="M179.934 129.427H193.605L192.647 144.95C192.483 147.634 190.491 149.718 188.094 149.718H185.444C183.047 149.718 181.056 147.634 180.891 144.95L179.934 129.427Z" fill="white"/>
<path d="M188.094 150.023H185.444C182.894 150.023 180.744 147.798 180.585 144.968L179.628 129.445C179.625 129.404 179.631 129.363 179.645 129.325C179.659 129.286 179.681 129.251 179.71 129.222C179.739 129.192 179.774 129.168 179.812 129.152C179.85 129.136 179.892 129.128 179.933 129.128H193.604C193.646 129.128 193.687 129.136 193.725 129.152C193.764 129.168 193.799 129.192 193.828 129.222C193.856 129.251 193.879 129.286 193.893 129.325C193.907 129.363 193.913 129.404 193.91 129.445L192.952 144.968C192.776 147.798 190.643 150.023 188.094 150.023ZM180.256 129.733L181.19 144.933C181.343 147.446 183.217 149.412 185.444 149.412H188.094C190.32 149.412 192.206 147.446 192.347 144.933L193.287 129.733H180.256Z" fill="#002947"/>
<path d="M72.2618 139.989C72.1795 140.506 72.6965 146.536 72.6965 146.536C72.6965 146.536 80.0755 147.804 80.1167 147.316C80.1578 146.829 82.3492 144.581 82.3492 144.581L79.3764 143.195L79.112 135.915L72.2618 139.989Z" fill="white"/>
<path d="M79.5232 147.681C77.2182 147.526 74.9247 147.231 72.6553 146.8C72.5963 146.789 72.5426 146.758 72.5023 146.714C72.462 146.669 72.4374 146.613 72.4321 146.553C72.3792 145.966 71.9092 140.483 71.9973 139.948C72.0028 139.91 72.0167 139.873 72.038 139.841C72.0593 139.808 72.0876 139.781 72.1207 139.76L78.9768 135.686C79.017 135.663 79.0626 135.651 79.109 135.651C79.1554 135.651 79.201 135.663 79.2412 135.686C79.2816 135.71 79.3155 135.743 79.3401 135.783C79.3647 135.823 79.3791 135.868 79.3822 135.915L79.6348 143.025L82.4665 144.346C82.5054 144.363 82.5392 144.39 82.5649 144.424C82.5905 144.458 82.6072 144.497 82.6134 144.539C82.621 144.581 82.6186 144.625 82.6064 144.665C82.5941 144.706 82.5724 144.744 82.5429 144.774C81.5501 145.796 80.4397 147.07 80.3809 147.352C80.3762 147.396 80.3623 147.439 80.34 147.477C80.3177 147.515 80.2877 147.549 80.2517 147.575C80.0219 147.672 79.7711 147.708 79.5232 147.681ZM72.949 146.307C75.9805 146.817 79.2705 147.252 79.8874 147.146C80.4521 146.239 81.127 145.405 81.8967 144.663L79.2588 143.436C79.2143 143.414 79.1765 143.381 79.1496 143.34C79.1226 143.298 79.1076 143.25 79.106 143.201L78.8593 136.379L72.5202 140.166C72.5084 140.87 72.761 144.134 72.949 146.307Z" fill="#002947"/>
<path d="M49.9023 140.512L48.8271 147.956H53.7151L56.5763 139.989L49.9023 140.512Z" fill="white"/>
<path d="M53.7146 148.227H48.8266C48.7877 148.226 48.7493 148.217 48.7139 148.201C48.6785 148.185 48.6469 148.162 48.6209 148.133C48.5972 148.103 48.5797 148.069 48.5696 148.033C48.5595 147.997 48.557 147.959 48.5622 147.921L49.6373 140.471C49.6462 140.411 49.6747 140.356 49.7184 140.315C49.762 140.273 49.8182 140.248 49.8782 140.242L56.5522 139.719C56.5971 139.716 56.6421 139.724 56.6831 139.742C56.7241 139.761 56.7599 139.789 56.7872 139.825C56.8149 139.86 56.8332 139.902 56.8404 139.946C56.8476 139.99 56.8434 140.035 56.8283 140.077L53.9672 148.05C53.948 148.102 53.9136 148.146 53.8684 148.178C53.8233 148.209 53.7696 148.226 53.7146 148.227ZM49.1379 147.692H53.5266L56.1821 140.289L50.1367 140.758L49.1379 147.692Z" fill="#002947"/>
<path d="M66.2403 39.5C66.0747 39.4788 65.9079 39.469 65.741 39.4706C64.9526 39.6416 64.1846 39.8955 63.4497 40.228C62.2747 39.406 60.6473 39.5587 59.2902 40.046C55.918 41.2202 54.0673 44.1557 52.4047 47.1441C51.6586 48.4886 50.5717 49.9153 50.0195 51.3243C49.1793 53.4497 49.0853 55.2756 47.599 57.1954C46.1948 59.0213 44.4617 60.5654 42.9518 62.3091C40.9073 64.6576 39.2506 67.4933 38.8393 70.5932C37.9463 77.2275 44.2855 83.7503 50.7303 83.263C57.1752 82.7757 64.1547 81.1142 68.091 75.977C72.4385 70.3114 72.8673 61.6692 72.2035 54.8411C71.8392 51.2656 71.9332 47.4494 70.3998 44.1205C69.8135 42.7104 69.0216 41.3947 68.0498 40.2163C67.5456 39.7789 66.9074 39.5263 66.2403 39.5Z" fill="white"/>
<path d="M50.0778 83.5742C48.5222 83.5234 46.9927 83.1611 45.5798 82.5086C44.167 81.8561 42.8996 80.9267 41.8528 79.7756C40.6609 78.5802 39.7511 77.1339 39.1901 75.5422C38.629 73.9505 38.4308 72.2537 38.6098 70.5756C38.9917 67.7516 40.3723 64.9159 42.7928 62.1506C43.3803 61.4344 44.0795 60.7416 44.7257 60.0664C45.6813 59.1109 46.5835 58.1034 47.4282 57.0487C48.2317 55.9125 48.8046 54.63 49.1143 53.2736C49.3082 52.6278 49.5021 51.9584 49.7782 51.2598C50.2022 50.2898 50.7134 49.3603 51.3057 48.4828C51.623 47.9837 51.8932 47.514 52.1811 47.0444C53.8437 44.0677 55.7472 41.0617 59.2311 39.8229C60.2064 39.4707 62.0394 39.0362 63.4964 39.9462C64.2215 39.6289 64.9723 39.3736 65.7406 39.183C65.8992 39.183 66.0872 39.183 66.2694 39.183C66.9911 39.2419 67.6739 39.5346 68.214 40.0167C69.2251 41.206 70.0384 42.55 70.6227 43.9973C71.8388 46.6275 72.0504 49.5572 72.256 52.3929C72.3147 53.2031 72.3735 54.0075 72.4557 54.8059C72.9904 60.0488 73.1666 69.7948 68.3432 76.1121C65.0239 80.4449 59.2781 82.8579 50.7887 83.5038C50.5243 83.5625 50.307 83.5742 50.0778 83.5742ZM61.4283 39.911C60.7337 39.9246 60.0465 40.0556 59.3956 40.2985C56.1056 41.4727 54.2608 44.4082 52.6511 47.2792C52.3808 47.7606 52.0636 48.2597 51.764 48.7411C51.1907 49.5902 50.6934 50.488 50.2776 51.4242C50.0073 52.1052 49.8194 52.7569 49.6313 53.391C49.3014 54.8293 48.6861 56.1869 47.8218 57.3833C46.97 58.4593 46.0558 59.4846 45.0841 60.4539C44.4437 61.1173 43.7799 61.8042 43.1688 62.5146C40.8188 65.1977 39.4793 67.9395 39.1151 70.6578C38.9453 72.2567 39.1357 73.8733 39.6725 75.389C40.2093 76.9048 41.0787 78.2812 42.2171 79.4175C44.5671 81.9009 47.7513 83.2513 50.7241 83.0223C59.0548 82.3941 64.6713 80.0457 67.8908 75.8479C72.6261 69.6715 72.444 60.084 71.9211 54.9175C71.8388 54.119 71.7801 53.3029 71.7214 52.4927C71.5157 49.704 71.3101 46.8213 70.1351 44.2732C69.5723 42.8848 68.7952 41.5932 67.8321 40.4453C67.3789 40.0509 66.8099 39.814 66.2106 39.7701C66.0461 39.7701 65.8816 39.7701 65.7406 39.7701C65.0328 39.9475 64.3379 40.1731 63.6609 40.4453C63.6169 40.4935 63.5571 40.5242 63.4923 40.5317C63.4275 40.5393 63.3622 40.5232 63.3084 40.4864C62.7564 40.1048 62.0995 39.9037 61.4283 39.911Z" fill="#002947"/>
<path d="M75.8228 85.1359L70.8467 59.0448L56.5293 60.1838L56.5763 82.5526L75.8228 85.1359Z" fill="white"/>
<path d="M75.8225 85.4001H75.7873L56.5408 82.8168C56.4759 82.8096 56.416 82.7786 56.3726 82.7298C56.3292 82.681 56.3054 82.6179 56.3058 82.5526L56.2588 60.1838C56.26 60.1171 56.2859 60.0532 56.3314 60.0044C56.377 59.9556 56.439 59.9254 56.5055 59.9196L70.8229 58.7806C70.8892 58.775 70.9553 58.7941 71.0084 58.8342C71.0615 58.8743 71.098 58.9326 71.1108 58.9978L76.081 85.083C76.0894 85.1245 76.0879 85.1674 76.0767 85.2082C76.0655 85.249 76.0448 85.2865 76.0164 85.3179C75.9652 85.3698 75.8955 85.3994 75.8225 85.4001ZM56.8463 82.3178L75.4877 84.8188L70.629 59.3325L56.7934 60.4363L56.8463 82.3178Z" fill="#002947"/>
<path d="M56.5763 82.5526C56.5763 82.5526 50.5661 124.948 48.8271 140.888L56.5293 142.097C56.5293 142.097 61.7815 119.94 66.7518 105.597L71.5281 142.097L80.1174 140.987L77.456 82.5526H56.5763Z" fill="#002947"/>
<path d="M44.4854 72.4015L53.2273 74.9378L51.9407 96.7195L61.9282 96.426L59.9249 61.5224L68.0676 61.1995C68.0676 61.5107 70.6585 89.9267 71.4986 96.7019L81.2335 93.7311L77.2443 73.6227L82.7081 70.8281C82.7081 70.8281 79.3123 57.3833 68.0558 58.035C57.663 58.6221 61.2937 58.6221 61.4993 58.6221C61.2937 58.6221 53.2744 58.6573 49.579 63.5949C47.5018 66.2943 45.7892 69.2553 44.4854 72.4015Z" fill="#F8A8C3"/>
<path d="M66.8928 56.5848L67.8269 61.6398C67.8269 61.6398 67.8798 64.5754 64.6251 64.3347C63.6618 64.2533 62.7286 63.9588 61.8934 63.4723C61.0581 62.9859 60.3416 62.3199 59.7958 61.5224C59.4472 59.4362 59.1026 57.35 58.7618 55.2639C58.3799 52.9506 57.7454 50.52 57.6221 48.1775C60.0661 48.9583 63.0799 45.876 63.8496 43.874C64.042 44.494 64.0711 45.1531 63.9343 45.7876C63.7974 46.4221 63.4991 47.0107 63.0682 47.4964C63.7493 47.2555 64.3651 46.8596 64.8667 46.3399C65.3684 45.8202 65.7422 45.1911 65.9587 44.5022C66.6783 45.0559 67.354 45.6644 67.9797 46.3222C68.5155 47.0847 68.9279 47.9267 69.2017 48.8174C69.6776 50.3791 70.0829 52.7217 69.2898 54.2364C68.2617 56.2091 66.8928 56.5848 66.8928 56.5848Z" fill="white"/>
<path d="M65.0002 64.6165H64.6007C63.595 64.5355 62.6204 64.2296 61.7489 63.7215C60.8774 63.2134 60.1313 62.516 59.5659 61.681C59.548 61.6502 59.5361 61.6163 59.5306 61.5812L58.4966 55.3108C58.3732 54.577 58.2322 53.8372 58.0854 53.0916C57.7274 51.4766 57.484 49.8384 57.3568 48.1892C57.3544 48.1462 57.3629 48.1032 57.3813 48.0642C57.3998 48.0253 57.4277 47.9915 57.4626 47.9661C57.4962 47.9399 57.5355 47.9219 57.5774 47.9137C57.6193 47.9056 57.6625 47.9074 57.7035 47.9192C59.9595 48.6472 62.8735 45.6647 63.5785 43.7742C63.598 43.723 63.6325 43.6789 63.6777 43.6478C63.7228 43.6167 63.7763 43.6 63.8311 43.6C63.8859 43.6 63.9394 43.6167 63.9846 43.6478C64.0297 43.6789 64.0643 43.723 64.0837 43.7742C64.4009 44.7794 64.3124 45.8687 63.837 46.8095C64.7169 46.2525 65.3706 45.4016 65.6817 44.4083C65.6969 44.3592 65.7251 44.3153 65.7635 44.2812C65.8018 44.247 65.8487 44.224 65.8991 44.2145C66.2457 44.1558 68.161 46.1285 68.1786 46.1461C68.7329 46.9325 69.1574 47.8027 69.4359 48.7235C69.7707 49.8155 70.4464 52.5456 69.5122 54.3421C69.0274 55.3865 68.1975 56.2324 67.1622 56.7375C67.3444 57.718 68.0552 61.5753 68.0552 61.5753C68.0625 62.4165 67.7374 63.2267 67.1505 63.8298C66.5626 64.3602 65.7918 64.6421 65.0002 64.6165ZM60.0535 61.4226C60.5785 62.1715 61.2614 62.7962 62.0542 63.2526C62.847 63.7091 63.7303 63.9863 64.6419 64.0646C65.0242 64.127 65.4155 64.1069 65.7894 64.0057C66.1633 63.9044 66.5112 63.7243 66.8097 63.4775C67.2791 62.9889 67.5458 62.3406 67.5559 61.6634C67.5559 61.6634 66.6394 56.7023 66.6276 56.6553C66.6148 56.5886 66.6277 56.5195 66.6636 56.4618C66.6996 56.4042 66.7559 56.3621 66.8215 56.3442C66.8215 56.3442 68.1022 55.9567 69.054 54.1308C69.8941 52.5103 69.2537 49.9447 68.9424 48.9172C68.6827 48.0533 68.286 47.2366 67.7674 46.4984C67.6499 46.3457 66.5924 45.3594 66.0989 44.9425C65.8391 45.5953 65.4425 46.1851 64.9359 46.6722C64.4292 47.1592 63.8242 47.5324 63.1614 47.7665C63.1052 47.7877 63.0435 47.7888 62.9867 47.7695C62.9299 47.7502 62.8815 47.7118 62.85 47.6608C62.8128 47.6141 62.7926 47.5561 62.7926 47.4964C62.7926 47.4367 62.8128 47.3788 62.85 47.332C63.1658 46.9788 63.4063 46.565 63.5568 46.1158C63.7073 45.6666 63.7646 45.1915 63.7254 44.7194C62.6502 46.5982 60.1475 48.9349 57.8974 48.5415C58.0398 50.0412 58.2713 51.5312 58.5906 53.0035C58.7375 53.755 58.8844 54.5065 59.0077 55.2404L60.0535 61.4226Z" fill="#002947"/>
<path d="M58.9674 51.6531C58.8162 51.2933 58.5496 50.9938 58.2096 50.8018C57.8859 50.6346 57.5363 50.5235 57.1755 50.473C56.9821 50.43 56.7815 50.43 56.588 50.473C56.4532 50.5144 56.3289 50.5845 56.2238 50.6785C55.952 50.8708 55.7581 51.1541 55.6774 51.477C55.6413 51.741 55.6737 52.0099 55.7714 52.2578C55.8483 52.5382 55.963 52.8068 56.1122 53.0563C56.2684 53.3004 56.4714 53.5112 56.7096 53.6766C56.9477 53.8419 57.2163 53.9585 57.4997 54.0196C57.7832 54.0807 58.0759 54.0852 58.3611 54.0327C58.6463 53.9802 58.9182 53.8719 59.1613 53.7139" fill="white"/>
<path d="M57.9504 54.2951C57.5435 54.2955 57.1431 54.1929 56.7866 53.9968C56.4301 53.8007 56.1291 53.5175 55.9118 53.1737C55.7493 52.9078 55.6229 52.6216 55.5357 52.3224C55.4351 52.0344 55.4029 51.7268 55.4418 51.4242C55.5295 51.0464 55.7533 50.7142 56.0704 50.4907C56.2004 50.3783 56.3525 50.2943 56.5169 50.2441C56.7449 50.1912 56.9821 50.1912 57.2101 50.2441C57.5993 50.2985 57.9765 50.4176 58.3264 50.5963C58.7102 50.8147 59.0115 51.153 59.1841 51.5592C59.1966 51.5873 59.2033 51.6176 59.2039 51.6483C59.2044 51.679 59.1988 51.7095 59.1872 51.738C59.1757 51.7665 59.1586 51.7924 59.1369 51.8141C59.1151 51.8358 59.0893 51.853 59.0608 51.8645C59.033 51.8771 59.0031 51.8841 58.9726 51.8851C58.9421 51.886 58.9118 51.8809 58.8833 51.8699C58.8549 51.859 58.8289 51.8425 58.8069 51.8214C58.7849 51.8003 58.7674 51.775 58.7553 51.7471C58.619 51.4343 58.3864 51.173 58.0914 51.0014C57.7913 50.8495 57.4674 50.7502 57.1338 50.7079C56.9734 50.6704 56.8065 50.6704 56.6461 50.7079C56.54 50.7426 56.4421 50.7985 56.3583 50.8723C56.1364 51.0266 55.9746 51.2526 55.9 51.5122C55.8744 51.7411 55.9047 51.9728 55.9881 52.1874C56.0582 52.4459 56.1651 52.6931 56.3054 52.9213C56.449 53.1421 56.6352 53.3321 56.8531 53.4803C57.0709 53.6285 57.3161 53.7318 57.5744 53.7843C58.085 53.8921 58.6175 53.7929 59.0549 53.5084C59.1081 53.4749 59.1723 53.4635 59.2337 53.4767C59.2952 53.4899 59.3491 53.5265 59.3839 53.5788C59.4171 53.6311 59.4283 53.6943 59.4151 53.7548C59.4019 53.8153 59.3653 53.8681 59.3134 53.9018C58.908 54.1647 58.4336 54.3016 57.9504 54.2951Z" fill="#002947"/>
<path d="M67.1741 58.5927C67.1741 58.5927 65.206 59.5791 63.608 58.4753C63.1616 58.1999 62.7803 57.831 62.4902 57.3942C62.2001 56.9574 62.0082 56.4629 61.9277 55.9449C61.9277 55.9449 64.9122 57.4361 66.898 56.6905L67.1741 58.5927Z" fill="#002947"/>
<path d="M65.3706 59.262C64.6888 59.2677 64.0219 59.0626 63.4612 58.6749C62.9866 58.3766 62.5829 57.9782 62.2785 57.5076C61.974 57.0371 61.7761 56.5057 61.6987 55.9507C61.696 55.9055 61.7054 55.8605 61.7261 55.8202C61.7468 55.7799 61.7779 55.7459 61.8162 55.7218C61.8553 55.6985 61.9 55.6862 61.9455 55.6862C61.991 55.6862 62.0356 55.6985 62.0747 55.7218C62.0747 55.7218 64.977 57.1484 66.8335 56.4498C66.8685 56.4339 66.9066 56.4257 66.9451 56.4257C66.9836 56.4257 67.0217 56.4339 67.0567 56.4498C67.0911 56.4678 67.1207 56.4937 67.1431 56.5253C67.1656 56.557 67.1803 56.5934 67.186 56.6318L67.4562 58.5399C67.4649 58.5934 67.4565 58.6482 67.4323 58.6967C67.408 58.7452 67.3691 58.7848 67.3211 58.81C66.711 59.0989 66.0457 59.2531 65.3706 59.262ZM62.2745 56.3911C62.5442 57.1585 63.0607 57.815 63.7432 58.2581C64.9182 59.0859 66.387 58.628 66.8746 58.4342L66.6748 57.0252C65.1238 57.442 63.1733 56.7609 62.2745 56.3911Z" fill="#002947"/>
<path d="M66.1758 48.5062C66.1758 48.5062 68.2966 50.6139 67.997 51.113C67.6974 51.612 66.5518 51.5533 66.5518 51.5533" fill="white"/>
<path d="M66.6867 51.8176H66.534C66.5003 51.8161 66.4672 51.8079 66.4367 51.7934C66.4063 51.7789 66.379 51.7585 66.3565 51.7333C66.3341 51.7081 66.3169 51.6787 66.306 51.6468C66.2951 51.6149 66.2907 51.5811 66.2931 51.5475C66.293 51.513 66.3 51.4789 66.3139 51.4474C66.3277 51.4158 66.348 51.3875 66.3735 51.3643C66.399 51.341 66.429 51.3234 66.4617 51.3125C66.4944 51.3016 66.5291 51.2976 66.5634 51.3009C66.8865 51.3009 67.6032 51.2657 67.7736 50.9897C67.7736 50.749 66.9746 49.6746 66.0111 48.7C65.9627 48.6506 65.9355 48.5842 65.9355 48.5151C65.9355 48.4459 65.9627 48.3795 66.0111 48.3301C66.0595 48.2821 66.125 48.2551 66.1932 48.2551C66.2615 48.2551 66.327 48.2821 66.3754 48.3301C67.4094 49.3576 68.5726 50.6786 68.2319 51.2657C67.8911 51.8528 67.0451 51.8176 66.6867 51.8176Z" fill="#002947"/>
<path d="M63.7164 49.724C63.9246 49.6332 63.9891 49.3211 63.8605 49.0269C63.732 48.7327 63.459 48.5679 63.2509 48.6587C63.0428 48.7495 62.9782 49.0617 63.1068 49.3558C63.2353 49.65 63.5083 49.8149 63.7164 49.724Z" fill="#002947"/>
<path d="M68.2067 48.918C68.4148 48.8271 68.4793 48.515 68.3508 48.2208C68.2222 47.9266 67.9493 47.7618 67.7411 47.8526C67.533 47.9435 67.4685 48.2556 67.597 48.5498C67.7256 48.844 67.9985 49.0088 68.2067 48.918Z" fill="#002947"/>
<path d="M68.7666 52.3812C68.7666 52.3812 67.7326 54.8412 64.7422 53.2736L68.7666 52.3812Z" fill="white"/>
<path d="M66.5811 54.0544C65.8938 54.0324 65.2222 53.8429 64.6247 53.5025C64.5947 53.4867 64.568 53.4652 64.5462 53.439C64.5245 53.4129 64.5081 53.3828 64.498 53.3504C64.4879 53.3179 64.4843 53.2838 64.4874 53.25C64.4905 53.2162 64.5002 53.1833 64.5161 53.1532C64.5319 53.1231 64.5535 53.0965 64.5796 53.0747C64.6057 53.053 64.6359 53.0366 64.6683 53.0265C64.7008 53.0165 64.7349 53.0129 64.7688 53.016C64.8026 53.0191 64.8355 53.0288 64.8656 53.0446C65.2226 53.2727 65.6236 53.4235 66.0425 53.4872C66.4615 53.5509 66.8891 53.5261 67.2979 53.4145C67.8347 53.2037 68.2729 52.7994 68.5258 52.2813C68.5374 52.2481 68.5558 52.2177 68.5797 52.1918C68.6036 52.1659 68.6326 52.1452 68.6648 52.131C68.697 52.1167 68.7318 52.1091 68.767 52.1088C68.8022 52.1084 68.8372 52.1153 68.8696 52.1289C68.9021 52.1425 68.9315 52.1626 68.9559 52.188C68.9803 52.2134 68.9993 52.2435 69.0117 52.2765C69.024 52.3094 69.0295 52.3446 69.0278 52.3798C69.0261 52.4149 69.0172 52.4494 69.0016 52.481C68.6989 53.1345 68.153 53.6442 67.48 53.9018C67.1921 54.0065 66.8875 54.0582 66.5811 54.0544Z" fill="#002947"/>
<path d="M76.4219 73.7343C76.4219 73.7343 83.0136 92.099 87.5844 89.9443C89.5642 89.0108 98.9349 74.4564 99.2521 74.157C99.8925 73.5346 100.827 73.611 101.426 72.9828C101.729 72.6308 101.976 72.2348 102.16 71.8085C102.483 71.1803 102.783 70.3408 102.301 69.8241C102.201 69.7243 102.072 69.6245 102.078 69.4836C102.084 69.3427 102.213 69.2664 102.331 69.1959L103.124 68.738C103.306 68.6323 103.517 68.4562 103.464 68.2565C103.412 68.0569 103.088 68.0158 102.877 68.0628C100.633 68.5207 98.0007 69.9826 96.0679 71.1334C96.1825 70.5341 96.259 69.9282 96.297 69.3192C96.297 68.8436 96.2147 68.2272 95.7447 68.145C95.2747 68.0628 94.9634 68.5618 94.7871 68.9904C93.8765 71.1627 93.3125 72.8653 91.8849 74.7558C90.4572 76.6463 88.9474 78.619 87.4786 80.5447C86.7149 80.4214 82.7257 70.7928 82.7257 70.7928" fill="white"/>
<path d="M86.7966 90.3905C86.467 90.3856 86.1416 90.3157 85.839 90.185C81.4269 88.3591 76.3744 74.4094 76.1687 73.8223C76.1459 73.7545 76.1503 73.6805 76.181 73.6159C76.2117 73.5513 76.2662 73.5011 76.3332 73.4759C76.4003 73.4533 76.4735 73.4578 76.5372 73.4886C76.6009 73.5193 76.65 73.5738 76.674 73.6403C76.7269 73.7812 81.8499 87.9481 86.074 89.686C86.2958 89.7889 86.5374 89.8423 86.7819 89.8423C87.0265 89.8423 87.2681 89.7889 87.4899 89.686C88.9586 88.9932 95.051 79.9048 97.6536 76.0298C98.7346 74.4094 98.999 74.0219 99.0812 73.9456C99.4216 73.6492 99.8226 73.4308 100.256 73.3057C100.622 73.212 100.96 73.0329 101.243 72.7831C101.523 72.4601 101.755 72.0982 101.931 71.7087C102.342 70.9044 102.401 70.3349 102.107 70.0296L102.066 69.9826C101.986 69.9193 101.925 69.8365 101.887 69.7423C101.849 69.6482 101.837 69.5459 101.85 69.4453C101.864 69.3448 101.903 69.2495 101.965 69.1688C102.026 69.088 102.108 69.0246 102.201 68.9845L102.994 68.5207C103.159 68.4268 103.205 68.3563 103.211 68.3387C103.115 68.3168 103.014 68.3168 102.918 68.3387C100.738 68.7791 98.1765 70.194 96.1908 71.3741C96.1482 71.4026 96.0981 71.4178 96.0468 71.4178C95.9956 71.4178 95.9455 71.4026 95.9029 71.3741C95.8608 71.3455 95.8279 71.3053 95.8081 71.2584C95.7883 71.2116 95.7824 71.16 95.7913 71.1099C95.9022 70.5278 95.9787 69.9396 96.0204 69.3485C96.0204 69.0433 95.9793 68.5031 95.6796 68.4503C95.38 68.3974 95.0921 68.9611 95.0216 69.1372C94.8689 69.4895 94.7338 69.83 94.5986 70.1646C93.99 71.8706 93.1457 73.4832 92.09 74.9554C90.6252 76.9125 89.1545 78.8441 87.6779 80.7502C87.6478 80.7886 87.6079 80.8182 87.5624 80.8357C87.5169 80.8533 87.4675 80.8582 87.4194 80.85C86.6321 80.7208 83.9766 74.5856 82.4667 70.9396C82.4525 70.9069 82.4449 70.8717 82.4446 70.8361C82.4443 70.8004 82.4512 70.7651 82.4649 70.7322C82.4787 70.6992 82.4989 70.6694 82.5245 70.6446C82.55 70.6197 82.5803 70.6002 82.6136 70.5873C82.6459 70.5731 82.6807 70.5657 82.716 70.5654C82.7513 70.5652 82.7862 70.5722 82.8187 70.5859C82.8511 70.5997 82.8804 70.6199 82.9048 70.6454C82.9291 70.6709 82.948 70.7011 82.9603 70.7341C84.6875 74.9026 86.732 79.3587 87.4194 80.2042C88.8353 78.3548 90.257 76.4995 91.6611 74.6325C92.6889 73.1881 93.5095 71.6072 94.0993 69.9357L94.5223 68.9024C94.8336 68.1626 95.2801 67.8045 95.7795 67.8984C96.4023 68.0158 96.5903 68.7262 96.555 69.3544C96.53 69.7832 96.4829 70.2104 96.414 70.6343C98.3528 69.4953 100.732 68.2448 102.812 67.8221C103.276 67.7281 103.634 67.8808 103.728 68.2037C103.775 68.374 103.775 68.6969 103.264 68.9904L102.471 69.4542C102.425 69.4764 102.384 69.5062 102.348 69.5423C102.348 69.5423 102.412 69.5775 102.442 69.6069L102.501 69.6656C103.2 70.4053 102.6 71.5737 102.407 71.9553C102.213 72.399 101.954 72.8108 101.637 73.1765C101.304 73.4859 100.901 73.7096 100.462 73.8282C100.094 73.9255 99.7528 74.1041 99.4631 74.3507C99.3868 74.4388 98.7934 75.3194 98.106 76.3469C93.5529 83.1397 89.1408 89.5216 87.7308 90.1909C87.4383 90.3266 87.119 90.3948 86.7966 90.3905Z" fill="#002947"/>
<path d="M52.3572 89.9619C52.286 89.9574 52.2194 89.9255 52.1712 89.873C52.123 89.8205 52.097 89.7513 52.0987 89.6801L53.2267 65.368C53.2351 65.2984 53.2681 65.2341 53.3199 65.1867C53.3716 65.1393 53.4386 65.112 53.5087 65.1097C53.5799 65.1142 53.6465 65.1461 53.6947 65.1986C53.7429 65.2511 53.7689 65.3202 53.7672 65.3915L52.6392 89.7036C52.6347 89.7747 52.6028 89.8413 52.5502 89.8895C52.4977 89.9376 52.4285 89.9636 52.3572 89.9619Z" fill="#002947"/>
<path d="M75.1522 70.3349C75.0998 70.3331 75.049 70.3168 75.0055 70.2877C74.9619 70.2587 74.9272 70.2181 74.9054 70.1705L72.8786 65.4737C72.851 65.4082 72.8504 65.3345 72.8768 65.2686C72.9031 65.2027 72.9544 65.1498 73.0196 65.1214C73.0519 65.107 73.0868 65.0991 73.1222 65.0984C73.1576 65.0977 73.1928 65.1041 73.2257 65.1173C73.2585 65.1304 73.2884 65.15 73.3136 65.1749C73.3387 65.1999 73.3586 65.2296 73.3721 65.2623L75.3989 69.9591C75.4134 69.9914 75.4212 70.0263 75.4219 70.0617C75.4226 70.0971 75.4162 70.1323 75.4031 70.1651C75.3899 70.198 75.3703 70.2278 75.3454 70.253C75.3204 70.2781 75.2907 70.298 75.258 70.3114C75.2243 70.3254 75.1885 70.3333 75.1522 70.3349Z" fill="#002947"/>
<path d="M54.602 144.751C54.602 144.751 50.2193 142.326 48.3687 144.751C47.2161 146.38 46.5185 148.287 46.3477 150.276C46.3477 150.276 55.5714 151.814 55.6419 150.276C55.7124 148.737 54.602 144.751 54.602 144.751Z" fill="#002947"/>
<path d="M161.768 61.1819H100.004C98.203 61.1819 96.7432 62.6407 96.7432 64.4403V79.7345C96.7432 81.5341 98.203 82.9929 100.004 82.9929H161.768C163.568 82.9929 165.028 81.5341 165.028 79.7345V64.4403C165.028 62.6407 163.568 61.1819 161.768 61.1819Z" fill="white"/>
<path d="M161.762 83.263H100.004C99.0686 83.263 98.172 82.8919 97.511 82.2312C96.8499 81.5706 96.4785 80.6746 96.4785 79.7404V64.4286C96.4785 63.4943 96.8499 62.5983 97.511 61.9377C98.172 61.2771 99.0686 60.9059 100.004 60.9059H161.762C162.696 60.9059 163.593 61.2771 164.254 61.9377C164.915 62.5983 165.287 63.4943 165.287 64.4286V79.6934C165.293 80.1599 165.206 80.6231 165.032 81.0559C164.857 81.4887 164.599 81.8826 164.271 82.2147C163.943 82.5468 163.552 82.8105 163.121 82.9904C162.691 83.1704 162.228 83.263 161.762 83.263ZM100.004 61.452C99.2093 61.4535 98.4481 61.7695 97.8866 62.3307C97.325 62.8919 97.0088 63.6526 97.0073 64.4462V79.711C97.0088 80.5046 97.325 81.2654 97.8866 81.8265C98.4481 82.3877 99.2093 82.7037 100.004 82.7053H161.762C162.556 82.7037 163.317 82.3877 163.878 81.8265C164.44 81.2654 164.756 80.5046 164.758 79.711V64.4286C164.756 63.6349 164.44 62.8742 163.878 62.3131C163.317 61.7519 162.556 61.4359 161.762 61.4343L100.004 61.452Z" fill="#002947"/>
<path d="M112.1 66.5598H102.277V77.6151H112.1V66.5598Z" fill="#F8A8C3"/>
<path d="M151.787 67.8808H119.691C118.893 67.8808 118.246 68.5274 118.246 69.3251V69.331C118.246 70.1286 118.893 70.7753 119.691 70.7753H151.787C152.585 70.7753 153.232 70.1286 153.232 69.331V69.3251C153.232 68.5274 152.585 67.8808 151.787 67.8808Z" fill="#D1D3D4"/>
<path d="M141.358 73.4055H119.691C118.893 73.4055 118.246 74.0521 118.246 74.8498V74.8557C118.246 75.6533 118.893 76.3 119.691 76.3H141.358C142.157 76.3 142.804 75.6533 142.804 74.8557V74.8498C142.804 74.0521 142.157 73.4055 141.358 73.4055Z" fill="#D1D3D4"/>
<path d="M69.3293 95.8773L31.9611 105.953C30.7551 106.278 30.0412 107.519 30.3666 108.724L34.8738 125.418C35.1992 126.623 36.4407 127.336 37.6468 127.011L75.0149 116.935C76.221 116.61 76.9349 115.369 76.6095 114.164L72.1023 97.4707C71.7768 96.2655 70.5353 95.5521 69.3293 95.8773Z" fill="white"/>
<path d="M37.0532 127.361C36.4979 127.357 35.9591 127.172 35.5189 126.834C35.0786 126.496 34.7612 126.023 34.615 125.488L30.1089 108.796C29.9339 108.152 30.0209 107.464 30.3511 106.884C30.6812 106.303 31.2277 105.876 31.8714 105.696L69.2364 95.6217C69.8814 95.4467 70.5695 95.5337 71.1505 95.8637C71.7316 96.1936 72.1586 96.7397 72.3384 97.383L76.8446 114.074C77.0212 114.719 76.9349 115.407 76.6045 115.989C76.2741 116.57 75.7266 116.996 75.0821 117.174L37.717 127.249C37.5015 127.315 37.2783 127.352 37.0532 127.361ZM69.912 96.0679C69.7373 96.0682 69.5635 96.0919 69.3951 96.1383L32.03 106.213C31.7773 106.281 31.5404 106.398 31.333 106.558C31.1256 106.718 30.9517 106.917 30.8213 107.143C30.6909 107.37 30.6065 107.621 30.573 107.88C30.5394 108.139 30.5574 108.403 30.6259 108.655L35.132 125.347C35.1985 125.6 35.3148 125.838 35.4742 126.045C35.6336 126.253 35.8328 126.427 36.0603 126.556C36.5195 126.82 37.0642 126.892 37.576 126.756L74.941 116.681C75.1944 116.613 75.4317 116.495 75.6394 116.335C75.8471 116.175 76.021 115.975 76.1513 115.748C76.2822 115.522 76.3668 115.272 76.4001 115.013C76.4334 114.754 76.4147 114.491 76.3452 114.239L71.839 97.5415C71.7243 97.1186 71.4734 96.7451 71.1251 96.4788C70.7769 96.2125 70.3506 96.0681 69.912 96.0679Z" fill="#002947"/>
<path d="M46.1342 108.18L36.6504 110.738L39.5323 121.411L49.0161 118.854L46.1342 108.18Z" fill="#D1D3D4"/>
<path d="M66.7564 103.193L50.5851 107.553C49.8364 107.755 49.3933 108.525 49.5953 109.274L49.6182 109.359C49.8202 110.107 50.591 110.55 51.3397 110.348L67.511 105.987C68.2597 105.786 68.7028 105.015 68.5008 104.267L68.4779 104.182C68.2758 103.434 67.5051 102.991 66.7564 103.193Z" fill="#D1D3D4"/>
<path d="M64.5356 109.516L51.8867 112.926C51.2163 113.107 50.8195 113.797 51.0004 114.467L51.0999 114.835C51.2807 115.505 51.9708 115.902 52.6412 115.721L65.2901 112.31C65.9605 112.129 66.3573 111.44 66.1764 110.77L66.077 110.401C65.8961 109.731 65.206 109.335 64.5356 109.516Z" fill="#D1D3D4"/>
<path d="M44.4847 72.4016C44.4847 72.4016 38.1045 87.6664 38.7625 89.4277C39.4205 91.189 46.0005 102.168 46.0005 102.168C46.0005 102.168 47.9392 108.162 50.5536 106.771C52.2397 105.878 51.3526 100.724 51.3526 100.724L53.2796 100.207C53.2796 100.207 50.113 98.8977 49.7546 98.2695C49.3962 97.6413 45.9946 88.2887 45.9946 88.2887L51.8343 74.5151" fill="white"/>
<path d="M49.7672 107.252C49.5193 107.249 49.2742 107.199 49.0446 107.105C47.147 106.336 45.8838 102.679 45.7546 102.279C45.3198 101.557 39.1687 91.2653 38.5166 89.5275C37.8645 87.7896 43.5808 73.8752 44.2388 72.3017C44.2661 72.2356 44.3186 72.183 44.3847 72.1555C44.4508 72.128 44.5251 72.1278 44.5913 72.155C44.6565 72.1835 44.7082 72.236 44.7355 72.3016C44.7629 72.3673 44.7638 72.4409 44.7382 72.5072C42.1885 78.6073 38.5636 88.1184 39.016 89.3396C39.6622 91.054 46.1658 101.921 46.2305 102.033C46.2327 102.05 46.2327 102.068 46.2305 102.086C46.2305 102.127 47.4877 105.908 49.2208 106.606C49.4088 106.686 49.6127 106.721 49.8166 106.709C50.0205 106.697 50.2187 106.638 50.3958 106.536C51.6355 105.878 51.2888 102.15 51.0538 100.771C51.044 100.705 51.0581 100.638 51.0938 100.582C51.1294 100.526 51.184 100.484 51.2477 100.465L52.4227 100.148C51.4122 99.702 49.7731 98.9153 49.4852 98.3869C49.1268 97.747 45.8486 88.776 45.7076 88.4061C45.6815 88.3421 45.6815 88.2705 45.7076 88.2065L51.5943 74.4095C51.6273 74.352 51.6802 74.3086 51.7431 74.2876C51.806 74.2666 51.8744 74.2694 51.9353 74.2955C51.9962 74.3216 52.0454 74.3691 52.0736 74.4291C52.1017 74.4891 52.1068 74.5573 52.0878 74.6208L46.2892 88.2945C47.2586 90.9541 49.7202 97.6237 49.9963 98.1169C50.1902 98.4574 51.8705 99.2911 53.3803 99.9369C53.4333 99.9569 53.4784 99.9934 53.5091 100.041C53.5398 100.088 53.5544 100.145 53.5507 100.201C53.5457 100.257 53.5239 100.309 53.4882 100.352C53.4526 100.395 53.4047 100.427 53.351 100.442L51.659 100.9C51.8293 102.033 52.3228 106.113 50.6837 106.988C50.4043 107.149 50.0897 107.24 49.7672 107.252Z" fill="#002947"/>
<path d="M81.368 142.79L79.0474 145.796L71.4569 144.275L71.1338 148.227C71.1338 148.227 87.2665 151.55 87.9245 149.771C88.5825 147.992 81.368 142.79 81.368 142.79Z" fill="#002947"/>
</svg>
