<svg width="235" height="177" viewBox="0 0 235 177" fill="none" xmlns="http://www.w3.org/2000/svg">
<path d="M201.901 24.746H57.499V123.832H201.901V24.746Z" fill="white"/>
<path d="M201.9 124.132H57.4988C57.4209 124.132 57.3462 124.101 57.2911 124.046C57.236 123.991 57.2051 123.916 57.2051 123.838V24.746C57.2051 24.6682 57.236 24.5935 57.2911 24.5384C57.3462 24.4834 57.4209 24.4525 57.4988 24.4525H201.9C201.978 24.454 202.052 24.4854 202.106 24.5401C202.161 24.5948 202.193 24.6686 202.194 24.746V123.838C202.193 123.915 202.161 123.989 202.106 124.044C202.052 124.099 201.978 124.13 201.9 124.132ZM57.7926 123.545H201.607V25.0396H57.7926V123.545Z" fill="#002947"/>
<path d="M201.901 18.6049H57.499V24.746H201.901V18.6049Z" fill="white"/>
<path d="M201.9 25.0395H57.4988C57.4209 25.0395 57.3462 25.0086 57.2911 24.9536C57.236 24.8985 57.2051 24.8238 57.2051 24.746V18.6342C57.2051 18.5563 57.236 18.4817 57.2911 18.4266C57.3462 18.3716 57.4209 18.3406 57.4988 18.3406H201.9C201.978 18.3406 202.053 18.3716 202.108 18.4266C202.163 18.4817 202.194 18.5563 202.194 18.6342V24.746C202.194 24.8238 202.163 24.8985 202.108 24.9536C202.053 25.0086 201.978 25.0395 201.9 25.0395ZM57.7926 24.4524H201.607V18.9043H57.7926V24.4524Z" fill="#002947"/>
<path d="M114.046 86.4334H113.975C107.483 84.7249 107.26 72.4602 106.978 56.9371V56.8549C106.772 45.4122 103.559 45.2419 103.529 45.2419C103.452 45.2404 103.378 45.209 103.323 45.1543C103.269 45.0995 103.237 45.0257 103.236 44.9483C103.234 44.9104 103.24 44.8724 103.254 44.8369C103.267 44.8013 103.288 44.7689 103.314 44.7414C103.34 44.714 103.372 44.6922 103.407 44.6773C103.442 44.6624 103.48 44.6548 103.518 44.6548C103.768 44.6707 104.014 44.7365 104.238 44.8485C104.463 44.9604 104.664 45.1161 104.828 45.3065C106.003 46.422 107.43 49.3282 107.565 56.8431V56.9253C107.842 72.1901 108.065 84.2728 114.128 85.8639C114.202 85.8845 114.266 85.9337 114.304 86.0007C114.343 86.0678 114.353 86.1473 114.333 86.222C114.316 86.2845 114.279 86.3394 114.226 86.3777C114.174 86.4161 114.11 86.4357 114.046 86.4334Z" fill="#D1D3D4"/>
<path d="M106.925 107.387C106.861 107.389 106.799 107.368 106.749 107.329C106.688 107.281 106.648 107.212 106.637 107.135C106.626 107.058 106.645 106.98 106.69 106.918C106.726 106.871 110.021 102.485 110.021 93.0853C110.021 87.2612 114.134 87.0909 114.134 87.0909C114.21 87.0922 114.283 87.1218 114.338 87.1739C114.394 87.226 114.428 87.2969 114.434 87.3728C114.435 87.4118 114.429 87.4507 114.415 87.4873C114.401 87.5239 114.381 87.5574 114.354 87.5859C114.327 87.6143 114.295 87.6371 114.259 87.6529C114.223 87.6688 114.185 87.6773 114.146 87.6781C114.005 87.6781 110.585 87.8542 110.585 93.0853C110.585 102.702 107.278 107.094 107.137 107.276C107.111 107.307 107.078 107.333 107.042 107.353C107.006 107.372 106.966 107.384 106.925 107.387Z" fill="#D1D3D4"/>
<path d="M150.436 100.501H150.401C146.065 99.6022 144.32 88.9815 143.574 84.449C143.462 83.7621 143.374 83.2337 143.31 82.9166C142.851 80.7913 140.225 79.9224 140.196 79.9106C140.118 79.8865 140.053 79.8324 140.015 79.7603C139.977 79.6882 139.969 79.6039 139.993 79.5261C140.017 79.4482 140.072 79.3832 140.144 79.3452C140.216 79.3072 140.3 79.2994 140.378 79.3235C140.501 79.3646 143.357 80.3157 143.903 82.764C143.968 83.0869 144.056 83.627 144.173 84.3257C144.837 88.3591 146.594 99.0797 150.536 99.8958C150.575 99.8996 150.612 99.9111 150.646 99.9294C150.68 99.9477 150.711 99.9725 150.735 100.003C150.76 100.033 150.778 100.067 150.789 100.104C150.8 100.141 150.804 100.18 150.8 100.219C150.796 100.257 150.785 100.295 150.767 100.329C150.748 100.363 150.724 100.393 150.694 100.418C150.664 100.442 150.629 100.461 150.592 100.472C150.555 100.483 150.516 100.487 150.477 100.483L150.436 100.501Z" fill="#D1D3D4"/>
<path d="M141.147 78.666C140.831 78.6662 140.518 78.6065 140.225 78.4898C140.155 78.4555 140.1 78.3956 140.073 78.3224C140.046 78.2492 140.047 78.1684 140.078 78.0965C140.094 78.0614 140.116 78.0299 140.145 78.0038C140.173 77.9776 140.206 77.9574 140.242 77.9442C140.278 77.9311 140.317 77.9253 140.355 77.9273C140.393 77.9292 140.431 77.9388 140.466 77.9556C140.894 78.1164 141.366 78.1164 141.793 77.9556C142.125 77.7995 142.422 77.5789 142.667 77.3067C142.912 77.0345 143.101 76.7162 143.221 76.3704C143.703 75.2666 143.903 71.9553 144.155 67.7634C144.496 62.1448 144.919 55.1582 146.235 49.3399C147.169 45.2302 151.752 42.5882 151.945 42.4767C152.014 42.4406 152.094 42.4328 152.169 42.4547C152.243 42.4766 152.307 42.5266 152.345 42.5941C152.383 42.6618 152.393 42.7419 152.372 42.8167C152.351 42.8916 152.301 42.9551 152.233 42.9933C152.186 42.9933 147.686 45.5883 146.805 49.4515C145.501 55.2228 145.083 62.1859 144.743 67.781C144.484 72.0317 144.279 75.4134 143.756 76.5876C143.606 77.0073 143.373 77.3923 143.07 77.7193C142.767 78.0463 142.4 78.3084 141.993 78.4898C141.725 78.6003 141.438 78.66 141.147 78.666Z" fill="#D1D3D4"/>
<path d="M140.16 62.8728H114.11V106.648H140.16V62.8728Z" fill="white"/>
<path d="M140.166 106.941H114.11C114.032 106.941 113.958 106.91 113.902 106.855C113.847 106.8 113.816 106.725 113.816 106.648V62.8728C113.818 62.7954 113.849 62.7216 113.904 62.6669C113.959 62.6121 114.033 62.5807 114.11 62.5792H140.166C140.243 62.5807 140.317 62.6121 140.372 62.6669C140.427 62.7216 140.458 62.7954 140.46 62.8728V106.648C140.46 106.725 140.429 106.8 140.374 106.855C140.318 106.91 140.244 106.941 140.166 106.941ZM114.404 106.354H139.872V63.1663H114.404V106.354Z" fill="#002947"/>
<path d="M176.386 73.2352H150.336V117.01H176.386V73.2352Z" fill="white"/>
<path d="M176.391 117.304H150.336C150.258 117.304 150.183 117.273 150.128 117.218C150.073 117.163 150.042 117.088 150.042 117.01V73.2352C150.042 73.1573 150.073 73.0827 150.128 73.0276C150.183 72.9726 150.258 72.9417 150.336 72.9417H176.391C176.469 72.9417 176.544 72.9726 176.599 73.0276C176.654 73.0827 176.685 73.1573 176.685 73.2352V117.01C176.685 117.088 176.654 117.163 176.599 117.218C176.544 117.273 176.469 117.304 176.391 117.304ZM150.63 116.716H176.098V73.5288H150.63V116.716Z" fill="#002947"/>
<path d="M103.365 33.4998H77.3154V77.2745H103.365V33.4998Z" fill="white"/>
<path d="M103.4 77.5681H77.3152C77.2373 77.5681 77.1626 77.5372 77.1075 77.4821C77.0524 77.4271 77.0215 77.3524 77.0215 77.2746V33.4998C77.0215 33.4219 77.0524 33.3473 77.1075 33.2922C77.1626 33.2372 77.2373 33.2062 77.3152 33.2062H103.4C103.478 33.2062 103.553 33.2372 103.608 33.2922C103.663 33.3473 103.694 33.4219 103.694 33.4998V77.2746C103.694 77.3524 103.663 77.4271 103.608 77.4821C103.553 77.5372 103.478 77.5681 103.4 77.5681ZM77.6384 76.981H103.106V33.7933H77.609L77.6384 76.981Z" fill="#002947"/>
<path d="M99.5702 62.6673H81.8924C81.8145 62.6673 81.7398 62.6364 81.6847 62.5813C81.6296 62.5263 81.5986 62.4516 81.5986 62.3738C81.5986 62.2959 81.6296 62.2212 81.6847 62.1662C81.7398 62.1111 81.8145 62.0802 81.8924 62.0802H99.5702C99.6482 62.0802 99.7229 62.1111 99.778 62.1662C99.8331 62.2212 99.864 62.2959 99.864 62.3738C99.864 62.4516 99.8331 62.5263 99.778 62.5813C99.7229 62.6364 99.6482 62.6673 99.5702 62.6673Z" fill="#002947"/>
<path d="M106.714 93.9778H79.583V116.793H106.714V93.9778Z" fill="white"/>
<path d="M106.714 117.086H79.5828C79.5049 117.086 79.4302 117.055 79.3751 117C79.32 116.945 79.2891 116.871 79.2891 116.793V93.9778C79.2891 93.8999 79.32 93.8252 79.3751 93.7702C79.4302 93.7151 79.5049 93.6842 79.5828 93.6842H106.714C106.791 93.6857 106.865 93.7171 106.92 93.7718C106.974 93.8266 107.006 93.9004 107.007 93.9778V116.793C107.007 116.871 106.976 116.945 106.921 117C106.866 117.055 106.791 117.086 106.714 117.086ZM79.8766 116.499H106.42V94.2713H79.9001L79.8766 116.499Z" fill="#002947"/>
<path d="M179.276 32.7072H152.146V55.5222H179.276V32.7072Z" fill="white"/>
<path d="M179.276 55.8099H152.163C152.085 55.8099 152.01 55.7789 151.955 55.7239C151.9 55.6688 151.869 55.5942 151.869 55.5163V32.7248C151.869 32.6469 151.9 32.5722 151.955 32.5172C152.01 32.4621 152.085 32.4312 152.163 32.4312H179.294C179.372 32.4312 179.446 32.4621 179.501 32.5172C179.556 32.5722 179.587 32.6469 179.587 32.7248V55.5163C179.587 55.5564 179.579 55.596 179.563 55.6329C179.548 55.6697 179.524 55.7029 179.495 55.7304C179.466 55.7579 179.432 55.7791 179.394 55.7928C179.356 55.8064 179.316 55.8123 179.276 55.8099ZM152.439 55.2227H178.982V33.0007H152.439V55.2227Z" fill="#002947"/>
<path d="M177.484 38.2612H154.325C154.247 38.2612 154.172 38.2302 154.117 38.1752C154.062 38.1201 154.031 38.0455 154.031 37.9676C154.031 37.8898 154.062 37.8151 154.117 37.7601C154.172 37.705 154.247 37.6741 154.325 37.6741H177.484C177.562 37.6756 177.636 37.707 177.69 37.7617C177.745 37.8164 177.776 37.8902 177.778 37.9676C177.778 38.0455 177.747 38.1201 177.692 38.1752C177.637 38.2302 177.562 38.2612 177.484 38.2612Z" fill="#D1D3D4"/>
<path d="M172.767 44.2438H158.984C158.906 44.2438 158.832 44.2129 158.776 44.1579C158.721 44.1028 158.69 44.0281 158.69 43.9503C158.69 43.8724 158.721 43.7978 158.776 43.7427C158.832 43.6877 158.906 43.6567 158.984 43.6567H172.767C172.845 43.6567 172.92 43.6877 172.975 43.7427C173.03 43.7978 173.061 43.8724 173.061 43.9503C173.061 44.0281 173.03 44.1028 172.975 44.1579C172.92 44.2129 172.845 44.2438 172.767 44.2438Z" fill="#D1D3D4"/>
<path d="M169.683 47.4905H158.984C158.906 47.4905 158.832 47.4596 158.776 47.4046C158.721 47.3495 158.69 47.2748 158.69 47.197C158.69 47.1191 158.721 47.0445 158.776 46.9894C158.832 46.9344 158.906 46.9034 158.984 46.9034H169.683C169.76 46.9049 169.834 46.9364 169.889 46.9911C169.943 47.0458 169.975 47.1196 169.976 47.197C169.976 47.2748 169.945 47.3495 169.89 47.4046C169.835 47.4596 169.76 47.4905 169.683 47.4905Z" fill="#D1D3D4"/>
<path d="M173.7 77.7266H153.026V108.145H173.7V77.7266Z" fill="white"/>
<path d="M173.7 108.462H153.026C152.948 108.462 152.874 108.431 152.818 108.376C152.763 108.321 152.732 108.246 152.732 108.168V77.756C152.732 77.6781 152.763 77.6034 152.818 77.5484C152.874 77.4933 152.948 77.4624 153.026 77.4624H173.7C173.778 77.4624 173.853 77.4933 173.908 77.5484C173.963 77.6034 173.994 77.6781 173.994 77.756V108.168C173.994 108.246 173.963 108.321 173.908 108.376C173.853 108.431 173.778 108.462 173.7 108.462ZM153.338 107.875H173.424V78.0495H153.338V107.875Z" fill="#D1D3D4"/>
<path d="M168.466 111.573H158.038C157.96 111.573 157.885 111.542 157.83 111.487C157.775 111.432 157.744 111.358 157.744 111.28C157.746 111.202 157.777 111.129 157.832 111.074C157.887 111.019 157.96 110.988 158.038 110.986H168.46C168.538 110.986 168.613 111.017 168.668 111.072C168.723 111.127 168.754 111.202 168.754 111.28C168.754 111.357 168.724 111.431 168.67 111.485C168.616 111.54 168.543 111.572 168.466 111.573Z" fill="#D1D3D4"/>
<path d="M168.466 113.558H158.038C157.96 113.558 157.885 113.527 157.83 113.472C157.775 113.417 157.744 113.342 157.744 113.264C157.746 113.187 157.777 113.113 157.832 113.058C157.887 113.004 157.96 112.972 158.038 112.971H168.46C168.538 112.971 168.613 113.002 168.668 113.057C168.723 113.112 168.754 113.186 168.754 113.264C168.754 113.341 168.724 113.415 168.67 113.47C168.616 113.525 168.543 113.556 168.466 113.558Z" fill="#D1D3D4"/>
<path d="M134.885 94.694H119.921C118.838 94.694 117.959 95.572 117.959 96.655V98.1873C117.959 99.2703 118.838 100.148 119.921 100.148H134.885C135.969 100.148 136.847 99.2703 136.847 98.1873V96.655C136.847 95.572 135.969 94.694 134.885 94.694Z" fill="#F8A8C3"/>
<path d="M134.885 86.6506H119.921C118.838 86.6506 117.959 87.5286 117.959 88.6116V90.1439C117.959 91.2269 118.838 92.1049 119.921 92.1049H134.885C135.969 92.1049 136.847 91.2269 136.847 90.1439V88.6116C136.847 87.5286 135.969 86.6506 134.885 86.6506Z" fill="white"/>
<path d="M134.885 92.3984H119.927C119.328 92.3984 118.754 92.1611 118.33 91.7384C117.906 91.3158 117.667 90.7424 117.665 90.1439V88.6174C117.667 88.0184 117.905 87.4444 118.329 87.0208C118.753 86.5972 119.328 86.3586 119.927 86.3571H134.885C135.484 86.3586 136.057 86.5974 136.48 87.0212C136.903 87.4449 137.141 88.0189 137.141 88.6174V90.1439C137.141 90.7418 136.903 91.3153 136.48 91.7381C136.057 92.1609 135.483 92.3984 134.885 92.3984ZM119.927 86.9442C119.483 86.9457 119.058 87.1225 118.745 87.436C118.431 87.7494 118.254 88.1741 118.253 88.6174V90.1439C118.254 90.5867 118.431 91.0108 118.745 91.3233C119.059 91.6358 119.484 91.8113 119.927 91.8113H134.885C135.327 91.8113 135.752 91.6356 136.064 91.3229C136.377 91.0102 136.553 90.5861 136.553 90.1439V88.6174C136.553 88.1747 136.378 87.75 136.065 87.4363C135.752 87.1227 135.328 86.9457 134.885 86.9442H119.927Z" fill="#D1D3D4"/>
<path d="M134.885 78.6072H119.921C118.838 78.6072 117.959 79.4852 117.959 80.5682V82.1005C117.959 83.1835 118.838 84.0615 119.921 84.0615H134.885C135.969 84.0615 136.847 83.1835 136.847 82.1005V80.5682C136.847 79.4852 135.969 78.6072 134.885 78.6072Z" fill="white"/>
<path d="M134.885 84.3551H119.927C119.328 84.3551 118.754 84.1177 118.33 83.6951C117.906 83.2725 117.667 82.699 117.665 82.1006V80.5682C117.667 79.9698 117.906 79.3963 118.33 78.9737C118.754 78.5511 119.328 78.3137 119.927 78.3137H134.885C135.483 78.3137 136.057 78.5512 136.48 78.974C136.903 79.3968 137.141 79.9703 137.141 80.5682V82.1006C137.141 82.6985 136.903 83.2719 136.48 83.6947C136.057 84.1175 135.483 84.3551 134.885 84.3551ZM119.927 78.9008C119.484 78.9008 119.059 79.0763 118.745 79.3888C118.431 79.7014 118.254 80.1255 118.253 80.5682V82.1006C118.254 82.5433 118.431 82.9674 118.745 83.2799C119.059 83.5925 119.484 83.768 119.927 83.768H134.885C135.327 83.768 135.752 83.5923 136.064 83.2796C136.377 82.9669 136.553 82.5428 136.553 82.1006V80.5682C136.553 80.126 136.377 79.7019 136.064 79.3892C135.752 79.0765 135.327 78.9008 134.885 78.9008H119.927Z" fill="#D1D3D4"/>
<path d="M134.885 70.5639H119.921C118.838 70.5639 117.959 71.4418 117.959 72.5248V74.0572C117.959 75.1402 118.838 76.0181 119.921 76.0181H134.885C135.969 76.0181 136.847 75.1402 136.847 74.0572V72.5248C136.847 71.4418 135.969 70.5639 134.885 70.5639Z" fill="white"/>
<path d="M134.885 76.3116H119.927C119.328 76.3101 118.753 76.0714 118.329 75.6479C117.905 75.2243 117.667 74.6503 117.665 74.0513V72.5248C117.667 71.9263 117.906 71.3529 118.33 70.9303C118.754 70.5077 119.328 70.2703 119.927 70.2703H134.885C135.483 70.2703 136.057 70.5078 136.48 70.9306C136.903 71.3534 137.141 71.9269 137.141 72.5248V74.0513C137.141 74.6497 136.903 75.2238 136.48 75.6475C136.057 76.0712 135.484 76.3101 134.885 76.3116ZM119.927 70.8868C119.484 70.8868 119.059 71.0623 118.745 71.3748C118.431 71.6873 118.254 72.1114 118.253 72.5542V74.0806C118.254 74.5239 118.431 74.9486 118.745 75.2621C119.058 75.5755 119.483 75.7523 119.927 75.7539H134.885C135.328 75.7523 135.752 75.5754 136.065 75.2617C136.378 74.9481 136.553 74.5234 136.553 74.0806V72.5542C136.553 72.1119 136.377 71.6878 136.064 71.3751C135.752 71.0625 135.327 70.8868 134.885 70.8868H119.927Z" fill="#D1D3D4"/>
<path d="M133.069 67.2761H121.613C121.535 67.2761 121.46 67.2452 121.405 67.1901C121.35 67.1351 121.319 67.0604 121.319 66.9825C121.319 66.9047 121.35 66.83 121.405 66.7749C121.46 66.7199 121.535 66.689 121.613 66.689H133.069C133.147 66.689 133.222 66.7199 133.277 66.7749C133.332 66.83 133.363 66.9047 133.363 66.9825C133.362 67.0599 133.33 67.1337 133.275 67.1884C133.221 67.2432 133.147 67.2746 133.069 67.2761Z" fill="#D1D3D4"/>
<path d="M99.3227 37.6682H80.793V53.0446H99.3227V37.6682Z" fill="white"/>
<path d="M99.3235 53.3322H80.7938C80.7158 53.3322 80.6411 53.3013 80.586 53.2463C80.5309 53.1912 80.5 53.1165 80.5 53.0387V37.6682C80.5 37.5903 80.5309 37.5157 80.586 37.4606C80.6411 37.4056 80.7158 37.3746 80.7938 37.3746H99.3235C99.4014 37.3746 99.4761 37.4056 99.5312 37.4606C99.5863 37.5157 99.6172 37.5903 99.6172 37.6682V53.0387C99.6172 53.1165 99.5863 53.1912 99.5312 53.2463C99.4761 53.3013 99.4014 53.3322 99.3235 53.3322ZM81.111 52.7451H99.0533V37.9617H81.0757L81.111 52.7451Z" fill="#D1D3D4"/>
<path d="M104.282 96.8428H81.7861V113.816H104.282V96.8428Z" fill="white"/>
<path d="M104.287 114.11H81.7859C81.708 114.11 81.6333 114.079 81.5782 114.024C81.5231 113.969 81.4922 113.894 81.4922 113.816V96.8428C81.4937 96.7654 81.5251 96.6916 81.5799 96.6369C81.6347 96.5822 81.7085 96.5508 81.7859 96.5493H104.287C104.365 96.5508 104.438 96.5822 104.493 96.6369C104.548 96.6916 104.579 96.7654 104.581 96.8428V113.816C104.581 113.894 104.55 113.969 104.495 114.024C104.44 114.079 104.365 114.11 104.287 114.11ZM82.0797 113.523H103.988V97.1364H82.0738L82.0797 113.523Z" fill="#D1D3D4"/>
<path d="M81.7861 109.847L91.051 99.931L100.98 109.19" fill="white"/>
<path d="M81.7864 110.141C81.7283 110.143 81.671 110.127 81.622 110.096C81.5729 110.065 81.5344 110.02 81.5116 109.967C81.4887 109.913 81.4825 109.854 81.4938 109.797C81.5051 109.74 81.5334 109.688 81.5749 109.648L90.8397 99.7314C90.8946 99.6776 90.9685 99.6475 91.0454 99.6475C91.1223 99.6475 91.1961 99.6776 91.251 99.7314L101.18 108.99C101.208 109.017 101.231 109.049 101.246 109.084C101.262 109.119 101.271 109.157 101.272 109.196C101.273 109.235 101.267 109.273 101.253 109.309C101.239 109.346 101.218 109.379 101.191 109.407C101.165 109.435 101.133 109.458 101.098 109.473C101.062 109.489 101.024 109.498 100.985 109.499C100.947 109.5 100.908 109.494 100.872 109.48C100.836 109.466 100.803 109.445 100.774 109.419L91.063 100.348L81.9979 110.053C81.9418 110.109 81.8658 110.141 81.7864 110.141Z" fill="#D1D3D4"/>
<path d="M97.4492 105.99L100.534 102.244L104.288 106.43" fill="white"/>
<path d="M104.287 106.73C104.245 106.729 104.204 106.72 104.165 106.703C104.127 106.686 104.092 106.661 104.064 106.63L100.539 102.696L97.6663 106.178C97.6423 106.208 97.6125 106.233 97.5787 106.252C97.5449 106.27 97.5077 106.282 97.4693 106.285C97.431 106.289 97.3923 106.285 97.3554 106.274C97.3186 106.262 97.2845 106.244 97.255 106.219C97.1954 106.17 97.1576 106.099 97.1499 106.022C97.1422 105.945 97.1652 105.868 97.2139 105.808L100.304 102.056C100.331 102.025 100.365 102 100.402 101.982C100.439 101.963 100.48 101.953 100.522 101.951C100.608 101.953 100.69 101.988 100.751 102.05L104.499 106.237C104.553 106.292 104.583 106.367 104.583 106.445C104.583 106.523 104.553 106.598 104.499 106.653C104.44 106.703 104.365 106.73 104.287 106.73Z" fill="#D1D3D4"/>
<path d="M194.774 55.3284H185.95V64.2525H194.774V55.3284Z" fill="white"/>
<path d="M194.774 64.5461H185.962C185.884 64.5461 185.809 64.5151 185.754 64.4601C185.699 64.405 185.668 64.3304 185.668 64.2525V55.3285C185.668 55.2506 185.699 55.1759 185.754 55.1209C185.809 55.0658 185.884 55.0349 185.962 55.0349H194.774C194.852 55.0349 194.927 55.0658 194.982 55.1209C195.037 55.1759 195.068 55.2506 195.068 55.3285V64.2525C195.068 64.3304 195.037 64.405 194.982 64.4601C194.927 64.5151 194.852 64.5461 194.774 64.5461ZM186.244 63.9589H194.469V55.622H186.238L186.244 63.9589Z" fill="#D1D3D4"/>
<path d="M192.701 57.9704H188.071C187.993 57.9704 187.918 57.9395 187.863 57.8844C187.808 57.8294 187.777 57.7547 187.777 57.6769C187.777 57.599 187.808 57.5243 187.863 57.4693C187.918 57.4142 187.993 57.3833 188.071 57.3833H192.701C192.778 57.3833 192.853 57.4142 192.908 57.4693C192.963 57.5243 192.994 57.599 192.994 57.6769C192.994 57.7547 192.963 57.8294 192.908 57.8844C192.853 57.9395 192.778 57.9704 192.701 57.9704Z" fill="#D1D3D4"/>
<path d="M192.701 59.8903H188.071C187.993 59.8903 187.918 59.8593 187.863 59.8043C187.808 59.7492 187.777 59.6746 187.777 59.5967C187.777 59.5189 187.808 59.4442 187.863 59.3891C187.918 59.3341 187.993 59.3032 188.071 59.3032H192.701C192.778 59.3032 192.853 59.3341 192.908 59.3891C192.963 59.4442 192.994 59.5189 192.994 59.5967C192.994 59.6746 192.963 59.7492 192.908 59.8043C192.853 59.8593 192.778 59.8903 192.701 59.8903Z" fill="#D1D3D4"/>
<path d="M191.273 62.1741H188.048C187.97 62.1741 187.895 62.1432 187.84 62.0882C187.785 62.0331 187.754 61.9584 187.754 61.8806C187.754 61.8027 187.785 61.7281 187.84 61.673C187.895 61.618 187.97 61.587 188.048 61.587H191.273C191.351 61.587 191.426 61.618 191.481 61.673C191.536 61.7281 191.567 61.8027 191.567 61.8806C191.567 61.9584 191.536 62.0331 191.481 62.0882C191.426 62.1432 191.351 62.1741 191.273 62.1741Z" fill="#D1D3D4"/>
<path d="M190.403 56.4322C190.325 56.4322 190.251 56.4012 190.195 56.3462C190.14 56.2911 190.109 56.2165 190.109 56.1386V54.3773C190.109 54.2994 190.14 54.2248 190.195 54.1697C190.251 54.1147 190.325 54.0837 190.403 54.0837C190.481 54.0837 190.556 54.1147 190.611 54.1697C190.666 54.2248 190.697 54.2994 190.697 54.3773V56.1386C190.697 56.2165 190.666 56.2911 190.611 56.3462C190.556 56.4012 190.481 56.4322 190.403 56.4322Z" fill="#D1D3D4"/>
<path d="M127.288 35.6544H118.464V44.5785H127.288V35.6544Z" fill="white"/>
<path d="M127.282 44.872H118.47C118.392 44.872 118.317 44.8411 118.262 44.786C118.207 44.731 118.176 44.6563 118.176 44.5785V35.6603C118.176 35.5825 118.207 35.5078 118.262 35.4527C118.317 35.3977 118.392 35.3668 118.47 35.3668H127.282C127.36 35.3668 127.435 35.3977 127.49 35.4527C127.545 35.5078 127.576 35.5825 127.576 35.6603V44.5843C127.574 44.6612 127.543 44.7343 127.488 44.7881C127.433 44.8419 127.359 44.872 127.282 44.872ZM118.757 44.2849H126.982V35.948H118.757V44.2849Z" fill="#D1D3D4"/>
<path d="M125.191 38.3199H120.555C120.478 38.3199 120.403 38.289 120.348 38.2339C120.293 38.1789 120.262 38.1042 120.262 38.0263C120.262 37.9485 120.293 37.8738 120.348 37.8188C120.403 37.7637 120.478 37.7328 120.555 37.7328H125.191C125.269 37.7328 125.343 37.7637 125.399 37.8188C125.454 37.8738 125.485 37.9485 125.485 38.0263C125.485 38.1042 125.454 38.1789 125.399 38.2339C125.343 38.289 125.269 38.3199 125.191 38.3199Z" fill="#D1D3D4"/>
<path d="M125.191 40.2163H120.555C120.478 40.2163 120.403 40.1853 120.348 40.1303C120.293 40.0752 120.262 40.0006 120.262 39.9227C120.262 39.8449 120.293 39.7702 120.348 39.7151C120.403 39.6601 120.478 39.6292 120.555 39.6292H125.191C125.269 39.6292 125.343 39.6601 125.399 39.7151C125.454 39.7702 125.485 39.8449 125.485 39.9227C125.485 40.0006 125.454 40.0752 125.399 40.1303C125.343 40.1853 125.269 40.2163 125.191 40.2163Z" fill="#D1D3D4"/>
<path d="M123.781 42.506H120.555C120.478 42.5045 120.404 42.4731 120.349 42.4184C120.295 42.3636 120.263 42.2898 120.262 42.2124C120.262 42.1346 120.293 42.0599 120.348 42.0049C120.403 41.9498 120.478 41.9189 120.555 41.9189H123.781C123.859 41.9189 123.933 41.9498 123.989 42.0049C124.044 42.0599 124.075 42.1346 124.075 42.2124C124.075 42.2903 124.044 42.365 123.989 42.42C123.933 42.4751 123.859 42.506 123.781 42.506Z" fill="#D1D3D4"/>
<path d="M122.911 36.7641C122.833 36.7626 122.76 36.7312 122.705 36.6764C122.65 36.6217 122.619 36.5479 122.617 36.4705V34.7092C122.617 34.6313 122.648 34.5567 122.703 34.5016C122.758 34.4466 122.833 34.4156 122.911 34.4156C122.989 34.4156 123.064 34.4466 123.119 34.5016C123.174 34.5567 123.205 34.6313 123.205 34.7092V36.4705C123.205 36.5484 123.174 36.623 123.119 36.6781C123.064 36.7332 122.989 36.7641 122.911 36.7641Z" fill="#D1D3D4"/>
<path d="M204.703 41.6077H195.879V50.5318H204.703V41.6077Z" fill="white"/>
<path d="M204.697 50.8253H195.885C195.807 50.8253 195.732 50.7944 195.677 50.7393C195.622 50.6843 195.591 50.6096 195.591 50.5317V41.6077C195.591 41.5298 195.622 41.4552 195.677 41.4001C195.732 41.3451 195.807 41.3141 195.885 41.3141H204.697C204.775 41.3141 204.85 41.3451 204.905 41.4001C204.96 41.4552 204.991 41.5298 204.991 41.6077V50.5317C204.991 50.6096 204.96 50.6843 204.905 50.7393C204.85 50.7944 204.775 50.8253 204.697 50.8253ZM196.172 50.2382H204.397V41.9013H196.172V50.2382Z" fill="#D1D3D4"/>
<path d="M202.606 44.2732H197.988C197.911 44.2717 197.837 44.2403 197.782 44.1856C197.727 44.1308 197.696 44.057 197.694 43.9797C197.694 43.9018 197.725 43.8271 197.78 43.7721C197.835 43.717 197.91 43.6861 197.988 43.6861H202.623C202.701 43.6861 202.776 43.717 202.831 43.7721C202.886 43.8271 202.917 43.9018 202.917 43.9797C202.916 44.0195 202.908 44.0588 202.892 44.0952C202.875 44.1316 202.852 44.1645 202.823 44.1918C202.794 44.2192 202.76 44.2404 202.723 44.2544C202.685 44.2684 202.646 44.2748 202.606 44.2732Z" fill="#D1D3D4"/>
<path d="M202.606 46.1696H197.988C197.911 46.1681 197.837 46.1366 197.782 46.0819C197.727 46.0272 197.696 45.9534 197.694 45.876C197.694 45.7982 197.725 45.7235 197.78 45.6684C197.835 45.6134 197.91 45.5825 197.988 45.5825H202.623C202.701 45.5825 202.776 45.6134 202.831 45.6684C202.886 45.7235 202.917 45.7982 202.917 45.876C202.916 45.9158 202.908 45.9551 202.892 45.9916C202.875 46.028 202.852 46.0608 202.823 46.0882C202.794 46.1155 202.76 46.1368 202.723 46.1508C202.685 46.1647 202.646 46.1711 202.606 46.1696Z" fill="#D1D3D4"/>
<path d="M200.338 42.7056C200.26 42.7056 200.185 42.6747 200.13 42.6196C200.075 42.5646 200.044 42.4899 200.044 42.4121V40.6507C200.045 40.5733 200.077 40.4995 200.132 40.4448C200.186 40.3901 200.26 40.3587 200.338 40.3572C200.416 40.3572 200.49 40.3881 200.545 40.4432C200.601 40.4982 200.631 40.5729 200.631 40.6507V42.4121C200.631 42.4899 200.601 42.5646 200.545 42.6196C200.49 42.6747 200.416 42.7056 200.338 42.7056Z" fill="#D1D3D4"/>
<path d="M145.036 112.924H133.457C133.379 112.924 133.304 112.893 133.249 112.838C133.194 112.783 133.163 112.708 133.163 112.63C133.165 112.553 133.196 112.479 133.251 112.424C133.306 112.37 133.379 112.338 133.457 112.337H145.036C145.114 112.337 145.189 112.368 145.244 112.423C145.299 112.478 145.33 112.552 145.33 112.63C145.33 112.708 145.299 112.783 145.244 112.838C145.189 112.893 145.114 112.924 145.036 112.924Z" fill="#D1D3D4"/>
<path d="M145.036 115.9H133.457C133.379 115.9 133.304 115.869 133.249 115.814C133.194 115.759 133.163 115.685 133.163 115.607C133.165 115.529 133.196 115.456 133.251 115.401C133.306 115.346 133.379 115.315 133.457 115.313H145.036C145.114 115.313 145.189 115.344 145.244 115.399C145.299 115.454 145.33 115.529 145.33 115.607C145.33 115.685 145.299 115.759 145.244 115.814C145.189 115.869 145.114 115.9 145.036 115.9Z" fill="#D1D3D4"/>
<path d="M136.436 52.4222H127.171C127.093 52.4222 127.018 52.3913 126.963 52.3363C126.908 52.2812 126.877 52.2065 126.877 52.1287C126.878 52.0513 126.91 51.9775 126.965 51.9228C127.019 51.8681 127.093 51.8366 127.171 51.8351H136.436C136.513 51.8351 136.588 51.8661 136.643 51.9211C136.698 51.9762 136.729 52.0508 136.729 52.1287C136.729 52.1672 136.722 52.2054 136.707 52.241C136.692 52.2766 136.671 52.309 136.643 52.3363C136.616 52.3635 136.584 52.3851 136.548 52.3999C136.512 52.4146 136.474 52.4222 136.436 52.4222Z" fill="#D1D3D4"/>
<path d="M133.128 55.7277H125.848C125.771 55.7277 125.696 55.6967 125.641 55.6417C125.586 55.5866 125.555 55.512 125.555 55.4341C125.556 55.3567 125.588 55.2829 125.642 55.2282C125.697 55.1735 125.771 55.1421 125.848 55.1406H133.128C133.205 55.1406 133.28 55.1715 133.335 55.2265C133.39 55.2816 133.421 55.3563 133.421 55.4341C133.421 55.512 133.39 55.5866 133.335 55.6417C133.28 55.6967 133.205 55.7277 133.128 55.7277Z" fill="#D1D3D4"/>
<path d="M217.246 135.739H17.7547C17.6768 135.739 17.6021 135.708 17.547 135.653C17.4919 135.598 17.4609 135.523 17.4609 135.445C17.4609 135.367 17.4919 135.293 17.547 135.238C17.6021 135.183 17.6768 135.152 17.7547 135.152H217.246C217.324 135.152 217.399 135.183 217.454 135.238C217.509 135.293 217.54 135.367 217.54 135.445C217.54 135.523 217.509 135.598 217.454 135.653C217.399 135.708 217.324 135.739 217.246 135.739Z" fill="#D1D3D4"/>
<path d="M36.4251 146.436C36.4251 146.436 34.5509 151.561 35.3793 152.06C36.2077 152.559 52.7458 152.06 51.7529 151.068C50.7601 150.076 46.3479 146.77 46.3479 146.77" fill="white"/>
<path d="M39.157 152.53C37.0479 152.53 35.4558 152.454 35.2149 152.307C34.316 151.767 35.4088 148.338 36.1373 146.336C36.1653 146.265 36.22 146.208 36.2897 146.176C36.3593 146.145 36.4386 146.142 36.5105 146.168C36.5824 146.194 36.6413 146.247 36.6747 146.315C36.7082 146.384 36.7135 146.463 36.6895 146.536C35.7671 149.06 35.2208 151.526 35.5145 151.82C36.6601 152.325 49.5616 151.726 51.377 151.121C50.155 149.994 46.2246 147.046 46.1776 147.011C46.1166 146.964 46.0764 146.894 46.0654 146.818C46.0545 146.741 46.0736 146.663 46.1189 146.6C46.142 146.569 46.171 146.543 46.2042 146.524C46.2374 146.504 46.2742 146.491 46.3123 146.486C46.3505 146.48 46.3894 146.482 46.4268 146.492C46.4642 146.502 46.4993 146.518 46.5301 146.542C46.7123 146.677 50.9716 149.87 51.9704 150.863C52.0439 150.931 52.089 151.025 52.0966 151.125C52.1043 151.225 52.0739 151.324 52.0115 151.403C51.4005 152.154 43.9393 152.53 39.157 152.53Z" fill="#002947"/>
<path d="M53.1455 48.5767C52.3641 48.5414 51.5827 48.4064 50.6721 48.3301C49.7615 48.2538 48.7392 47.9426 48.7275 47.0972C48.7275 46.3691 49.5794 45.7762 49.3914 45.0775C49.3241 44.8901 49.2225 44.7169 49.0917 44.5667C47.8873 42.9488 47.3549 40.9284 47.6056 38.9275C47.8563 36.9266 48.8707 35.0998 50.4371 33.8285C50.2021 33.9107 49.9495 33.6759 49.926 33.4293C49.9204 33.1682 50.0174 32.9152 50.1962 32.7248C50.8249 32.0319 51.6413 31.5363 52.5462 31.2981C55.4056 30.4173 58.4641 30.4173 61.3235 31.2981C63.5149 31.938 66.1469 33.6876 65.859 36.3296C65.8281 36.8156 65.6299 37.2758 65.2978 37.6322C64.9658 37.9887 64.5206 38.2192 64.0378 38.2847C63.5501 41.1145 62.0638 43.052 60.1955 45.101C58.9419 46.5078 57.3596 47.5828 55.5895 48.2303C54.8054 48.5045 53.975 48.6222 53.1455 48.5767Z" fill="white"/>
<path d="M53.4923 48.882H53.1339C52.6639 48.882 52.2057 48.8057 51.7181 48.747C51.3773 48.7059 51.0248 48.6648 50.6488 48.6295C49.2741 48.518 48.4457 47.9485 48.4339 47.1148C48.4579 46.7189 48.5945 46.338 48.8276 46.0169C49.0156 45.6999 49.1801 45.4298 49.1096 45.1656C49.0562 45.029 48.9807 44.9021 48.8863 44.7899C47.6719 43.1849 47.0996 41.1853 47.281 39.1814C47.4624 37.1774 48.3845 35.313 49.8674 33.9519C49.7335 33.8226 49.6502 33.6498 49.6324 33.4646C49.6123 33.1367 49.722 32.814 49.9379 32.5663C50.6072 31.8336 51.4711 31.3063 52.4289 31.0457C55.3446 30.1532 58.4609 30.1532 61.3766 31.0457C63.9498 31.7972 66.4114 33.7464 66.1177 36.3942C66.0745 36.9011 65.8733 37.3817 65.5423 37.7683C65.2114 38.1548 64.7674 38.4279 64.2729 38.5489C63.6854 41.4844 62.0463 43.4806 60.3954 45.3006C59.1175 46.7404 57.5028 47.8417 55.6954 48.5063C54.989 48.7604 54.2431 48.8876 53.4923 48.882ZM50.3962 33.5291C50.452 33.5295 50.5068 33.5443 50.5552 33.572C50.6035 33.5998 50.6439 33.6397 50.6723 33.6877C50.709 33.7461 50.7244 33.8154 50.7158 33.8839C50.7072 33.9524 50.6753 34.0158 50.6253 34.0634C49.1189 35.288 48.1448 37.0475 47.9072 38.9736C47.6696 40.8996 48.1867 42.8429 49.3504 44.3965C49.5022 44.5685 49.6198 44.7677 49.6971 44.9836C49.7356 45.2167 49.7247 45.4553 49.6649 45.6839C49.6052 45.9125 49.4981 46.126 49.3504 46.3105C49.1785 46.5404 49.071 46.812 49.0391 47.0972C49.0391 47.8604 50.4373 48.019 50.7134 48.0424C51.1012 48.0424 51.4596 48.1188 51.8062 48.1599C52.2821 48.2127 52.7286 48.2655 53.1751 48.289C53.9729 48.3357 54.772 48.2219 55.5251 47.9544C57.248 47.324 58.788 46.2771 60.0077 44.9073C62.0522 42.6528 63.3271 40.8445 63.7794 38.2319C63.7939 38.1724 63.8266 38.1189 63.8729 38.0789C63.9193 38.0389 63.977 38.0144 64.0379 38.0088C64.4424 37.9439 64.8132 37.7446 65.0904 37.4431C65.3676 37.1416 65.5349 36.7555 65.5654 36.3473C65.8533 33.7053 62.9863 32.1377 61.2414 31.6504C58.4391 30.7898 55.4428 30.7898 52.6404 31.6504C51.7886 31.867 51.02 32.3308 50.4314 32.9831C50.3042 33.1074 50.2286 33.2752 50.2199 33.4528C50.2317 33.5088 50.2629 33.5587 50.3081 33.5937C50.3326 33.5663 50.3626 33.5443 50.3962 33.5291Z" fill="#002947"/>
<path d="M91.9855 54.2717L99.8874 60.5478L100.099 60.9177L101.151 62.7436L99.1354 62.133L98.7241 62.0097L90.8223 55.7336L91.9855 54.2717Z" fill="#002947"/>
<path d="M101.15 63.0371H101.068L98.6414 62.3032C98.6047 62.2929 98.5707 62.2749 98.5415 62.2504L90.6396 55.9625C90.609 55.9393 90.5834 55.9102 90.5642 55.8769C90.545 55.8436 90.5327 55.8068 90.528 55.7687C90.5231 55.691 90.546 55.614 90.5926 55.5515L91.7676 54.0896C91.7911 54.059 91.8206 54.0334 91.8542 54.0144C91.8878 53.9954 91.9249 53.9834 91.9633 53.979C92.0017 53.9746 92.0405 53.978 92.0776 53.9889C92.1146 53.9998 92.149 54.0181 92.1789 54.0426L100.069 60.3188C100.098 60.3405 100.123 60.3686 100.139 60.401L101.403 62.5968C101.435 62.6453 101.453 62.7026 101.453 62.7612C101.453 62.8198 101.435 62.877 101.403 62.9256C101.373 62.9631 101.334 62.9928 101.29 63.0122C101.246 63.0316 101.198 63.0402 101.15 63.0371ZM98.8587 61.7455L100.533 62.2504L99.6636 60.7415L92.0261 54.6826L91.2271 55.6865L98.8587 61.7455Z" fill="#002947"/>
<path d="M89.0258 53.9858L89.8811 52.9102C89.919 52.8625 89.9659 52.8227 90.0192 52.7932C90.0725 52.7636 90.1311 52.7448 90.1917 52.7379C90.2522 52.731 90.3136 52.736 90.3722 52.7528C90.4308 52.7695 90.4855 52.7977 90.5332 52.8356L94.2866 55.8159L92.8502 57.6224L89.1014 54.6457C89.0524 54.6078 89.0115 54.5605 88.9811 54.5066C88.9507 54.4526 88.9314 54.3932 88.9244 54.3317C88.9174 54.2702 88.9227 54.2079 88.9401 54.1485C88.9575 54.0891 88.9867 54.0337 89.0258 53.9858Z" fill="#002947"/>
<path d="M92.8553 57.9176C92.7891 57.9167 92.7251 57.894 92.6731 57.853L88.919 54.8705C88.8408 54.8093 88.7755 54.7332 88.7271 54.6465C88.6786 54.5598 88.648 54.4643 88.637 54.3656C88.6218 54.2621 88.628 54.1566 88.6553 54.0556C88.6826 53.9546 88.7304 53.8603 88.7957 53.7785L89.0248 53.9605L88.7957 53.7785L89.6534 52.7041C89.7146 52.6258 89.7908 52.5606 89.8776 52.5122C89.9643 52.4638 90.0599 52.4333 90.1587 52.4223C90.3583 52.3997 90.5589 52.4566 90.7168 52.5808L94.4709 55.622C94.5013 55.6462 94.5265 55.6764 94.5446 55.7108C94.5628 55.7451 94.5737 55.7828 94.5766 55.8216C94.5818 55.859 94.5793 55.897 94.5692 55.9334C94.5591 55.9697 94.5416 56.0036 94.5179 56.033L93.0844 57.8354C93.0612 57.866 93.032 57.8916 92.9987 57.9108C92.9654 57.9299 92.9286 57.9422 92.8905 57.9469L92.8553 57.9176ZM90.2468 53.0329C90.2208 53.0322 90.1949 53.0377 90.1714 53.0489C90.1479 53.0601 90.1275 53.0768 90.1117 53.0974L89.2539 54.1718C89.2396 54.1899 89.2291 54.2106 89.223 54.2328C89.217 54.255 89.2155 54.2782 89.2187 54.301C89.221 54.3231 89.228 54.3444 89.2391 54.3636C89.2503 54.3829 89.2653 54.3995 89.2833 54.4126L92.8083 57.2131L93.8775 55.8686L90.3525 53.0681C90.3217 53.0459 90.2848 53.0336 90.2468 53.0329Z" fill="#002947"/>
<path d="M91.8323 58.3344C91.7661 58.3336 91.7021 58.3109 91.6502 58.2698C91.4446 58.1113 89.6762 56.7199 89.4295 56.5085C89.1056 55.9686 88.892 55.37 88.8008 54.7472C88.7851 54.6686 88.801 54.587 88.845 54.52C88.8889 54.4531 88.9575 54.406 89.0358 54.3891C89.0748 54.3805 89.1151 54.3798 89.1544 54.387C89.1937 54.3942 89.2311 54.4092 89.2645 54.4311C89.2979 54.453 89.3265 54.4813 89.3488 54.5144C89.3711 54.5475 89.3865 54.5848 89.3942 54.6239C89.4824 55.1303 89.6344 55.6235 89.8466 56.0917C90.0404 56.2678 91.4798 57.4068 92.0203 57.853C92.0524 57.8766 92.0794 57.9065 92.0996 57.9409C92.1198 57.9753 92.1327 58.0134 92.1377 58.053C92.1426 58.0926 92.1394 58.1327 92.1284 58.171C92.1173 58.2093 92.0985 58.2449 92.0732 58.2757C92.0396 58.3021 92.0007 58.321 91.9591 58.3311C91.9176 58.3413 91.8743 58.3424 91.8323 58.3344Z" fill="#002947"/>
<path d="M41.3601 65.6028C41.3601 65.6028 35.25 78.0025 35.7377 81.8011C36.2253 85.5997 48.8096 84.1143 48.8096 84.1143L48.1751 65.274L41.3601 65.6028Z" fill="white"/>
<path d="M43.611 84.6956H42.436C38.018 84.5547 35.6621 83.5977 35.4389 81.8598C34.9336 78.0143 40.838 66.0079 41.0906 65.4913C41.1134 65.4445 41.1483 65.4046 41.1917 65.3757C41.2351 65.3468 41.2853 65.33 41.3374 65.3269L48.1171 64.9981C48.1566 64.9955 48.1962 65.001 48.2336 65.0141C48.2709 65.0272 48.3053 65.0477 48.3345 65.0744C48.391 65.1284 48.4246 65.2019 48.4285 65.2799L49.0865 84.1261C49.0899 84.1996 49.0649 84.2715 49.0169 84.3272C48.9688 84.3829 48.9012 84.4181 48.828 84.4255C47.0949 84.6069 45.3535 84.6971 43.611 84.6956ZM41.5489 65.9081C40.8497 67.3524 35.5799 78.3431 36.0322 81.7894C36.3965 84.5958 44.9094 84.2729 48.5048 83.8795L47.8645 65.6028L41.5489 65.9081Z" fill="#002947"/>
<path d="M65.6768 144.011L66.0116 152.06C66.0116 152.06 81.1163 152.166 80.235 151.068C79.3538 149.97 72.5153 145.115 72.5153 145.115L71.4108 139.162L65.6768 144.011Z" fill="white"/>
<path d="M67.9443 152.36H66.0056C65.9311 152.357 65.8604 152.327 65.8072 152.274C65.7539 152.222 65.722 152.152 65.7177 152.078L65.3828 144.029C65.3823 143.984 65.3915 143.94 65.4097 143.9C65.428 143.859 65.4549 143.823 65.4886 143.794L71.2226 138.944C71.2623 138.912 71.3095 138.89 71.3598 138.881C71.4101 138.872 71.4619 138.876 71.5105 138.892C71.5588 138.91 71.6018 138.94 71.6356 138.979C71.6694 139.018 71.6931 139.064 71.7043 139.115L72.7853 144.95C73.6548 145.573 79.618 149.829 80.464 150.886C80.518 150.947 80.5525 151.022 80.563 151.103C80.5735 151.184 80.5595 151.266 80.5227 151.338C80.1056 152.195 73.1555 152.36 67.9443 152.36ZM66.2935 151.773C72.3388 151.808 78.7896 151.579 79.8882 151.127C78.913 150.105 74.6007 146.952 72.3447 145.361C72.2834 145.316 72.2415 145.249 72.2272 145.174L71.2167 139.719L65.9762 144.152L66.2935 151.773Z" fill="#002947"/>
<path d="M68.4148 87.4608L74.2898 146.219L64.5843 146.436L53.551 104.939L47.441 146.776L36.1963 146.224C36.1963 146.224 38.1527 122.858 39.1749 113.963C40.1972 105.068 41.7717 89.6742 41.7717 89.6742L68.4148 87.4608Z" fill="#002947"/>
<path d="M64.8018 42.4003C64.8018 42.4003 66.8287 45.7351 66.3528 46.3868C65.8769 47.0385 64.4258 46.5394 64.4258 46.5394" fill="white"/>
<path d="M65.4769 47.0208C65.0774 47.0133 64.6814 46.946 64.3019 46.8212C64.2285 46.7946 64.1685 46.7405 64.1345 46.6703C64.1004 46.6001 64.0952 46.5195 64.1197 46.4455C64.1451 46.3726 64.1982 46.3127 64.2675 46.2786C64.3367 46.2446 64.4166 46.2391 64.4899 46.2635C64.9011 46.4044 65.8294 46.5746 66.0879 46.2165C66.3464 45.8584 65.5004 44.2145 64.5251 42.553C64.5047 42.5207 64.491 42.4846 64.4847 42.447C64.4784 42.4093 64.4797 42.3708 64.4884 42.3337C64.4972 42.2965 64.5132 42.2615 64.5357 42.2306C64.5581 42.1997 64.5865 42.1736 64.6191 42.1537C64.6519 42.1332 64.6884 42.1194 64.7265 42.113C64.7646 42.1067 64.8037 42.1079 64.8413 42.1166C64.879 42.1253 64.9145 42.1414 64.946 42.1639C64.9774 42.1864 65.0041 42.2148 65.0245 42.2477C65.6649 43.2986 67.0925 45.8231 66.5637 46.557C66.4319 46.7144 66.2648 46.8384 66.0759 46.919C65.887 46.9996 65.6818 47.0345 65.4769 47.0208Z" fill="#002947"/>
<path d="M64.5076 38.0909C65.8354 39.2652 65.3477 41.6136 65.2772 43.1342C65.1774 45.2948 65.0246 47.4436 64.8249 49.5924C64.7015 50.9545 61.1589 50.8488 60.5479 50.4143L60.8945 55.8333L53.5625 52.6864L54.0501 46.4748C54.0501 46.4748 56.4001 46.5805 57.8689 43.8798C59.3376 41.1791 59.4669 36.8345 59.4669 36.8345C59.4669 36.8345 63.2151 36.952 64.5076 38.0909Z" fill="white"/>
<path d="M60.8945 56.1328C60.8558 56.141 60.8158 56.141 60.777 56.1328L53.4627 52.9741C53.4078 52.9478 53.3618 52.9059 53.3305 52.8538C53.2992 52.8016 53.2838 52.7414 53.2864 52.6806L53.7623 46.4514C53.7683 46.3756 53.8035 46.3051 53.8605 46.2547C53.9175 46.2043 53.9918 46.178 54.0678 46.1813C54.1559 46.1813 56.2474 46.24 57.628 43.7096C59.0674 41.0735 59.1908 36.8698 59.1908 36.8287C59.1921 36.7899 59.2011 36.7518 59.2172 36.7165C59.2333 36.6813 59.2563 36.6495 59.2848 36.6232C59.312 36.595 59.345 36.573 59.3815 36.5588C59.418 36.5446 59.4572 36.5386 59.4963 36.541C59.6549 36.541 63.3679 36.676 64.7191 37.8737C65.9353 38.9423 65.7766 40.8093 65.6474 42.324C65.6474 42.6176 65.6004 42.9111 65.5886 43.1518C65.4888 45.3065 65.336 47.4847 65.1363 49.61C65.1056 49.8432 65.0101 50.0632 64.8605 50.2448C64.711 50.4265 64.5134 50.5625 64.2903 50.6375C63.1995 51.0302 62.0188 51.1015 60.8886 50.8429L61.2059 55.8099C61.2091 55.8599 61.1995 55.9099 61.1779 55.9551C61.1563 56.0003 61.1234 56.0392 61.0825 56.0682C61.0288 56.1101 60.9626 56.1328 60.8945 56.1328ZM53.8445 52.5162L60.542 55.3813L60.2248 50.4378C60.2227 50.3823 60.2358 50.3273 60.2627 50.2786C60.2897 50.23 60.3293 50.1896 60.3775 50.1619C60.4244 50.1334 60.4783 50.1183 60.5332 50.1183C60.5881 50.1183 60.642 50.1334 60.6889 50.1619C61.7694 50.4987 62.93 50.476 63.9965 50.0973C64.3138 49.9525 64.4841 49.7705 64.5076 49.5513C64.7015 47.4201 64.8543 45.2478 64.9541 43.0931C64.9541 42.8289 64.9894 42.5471 65.0129 42.2477C65.1304 40.868 65.2773 39.1595 64.2844 38.2847C63.2915 37.4099 60.6067 37.1692 59.7195 37.1105C59.6667 38.1438 59.3964 41.5842 58.098 43.9562C56.7997 46.3281 54.9902 46.6627 54.2852 46.7214L53.8445 52.5162Z" fill="#002947"/>
<path d="M75.788 67.4933C75.788 67.4933 67.1165 58.3344 63.6796 54.894C60.4954 51.7001 51.2246 48.7998 47.0122 53.3675C47.0122 53.3675 40.0621 63.043 38.7402 68.6617L42.794 71.1393C41.9044 77.8007 41.3788 84.5056 41.2195 91.2242C48.857 97.2773 68.4384 87.4608 68.4384 87.4608L66.6759 73.6756L69.8425 76.8342L75.788 67.4933Z" fill="#F8A8C3"/>
<path d="M64.8368 47.9896C64.8368 47.9896 63.1272 48.9583 62.2988 47.1911L64.8368 47.9896Z" fill="white"/>
<path d="M63.8088 48.5415C63.6095 48.5436 63.4111 48.5139 63.2213 48.4534C62.9525 48.3534 62.7085 48.1968 62.5058 47.9942C62.303 47.7916 62.1463 47.5477 62.0463 47.2792C62.0295 47.2446 62.0199 47.207 62.0179 47.1686C62.016 47.1302 62.0218 47.0918 62.0349 47.0557C62.0481 47.0196 62.0683 46.9865 62.0945 46.9583C62.1206 46.9301 62.1522 46.9075 62.1873 46.8917C62.2223 46.8749 62.2604 46.8651 62.2992 46.8631C62.3381 46.8611 62.3769 46.8668 62.4135 46.8799C62.4502 46.893 62.4838 46.9133 62.5125 46.9395C62.5413 46.9657 62.5645 46.9973 62.5809 47.0326C62.6538 47.2222 62.7657 47.3944 62.9094 47.538C63.0531 47.6816 63.2254 47.7935 63.4151 47.8663C63.8518 47.9672 64.3102 47.9089 64.7076 47.7019C64.7754 47.6639 64.8556 47.6543 64.9304 47.6752C65.0053 47.6961 65.0689 47.7458 65.1071 47.8134C65.1436 47.8815 65.1524 47.9611 65.1316 48.0355C65.1108 48.1099 65.062 48.1734 64.9955 48.2127C64.6315 48.4145 64.2248 48.5272 63.8088 48.5415Z" fill="#002947"/>
<path d="M60.613 43.6274C60.5736 43.0855 60.3844 42.5652 60.0667 42.1244C59.8748 41.7538 59.6293 41.4135 59.3382 41.1145C59.1855 40.9632 59.0004 40.8486 58.7968 40.7794C58.5932 40.7102 58.3765 40.6883 58.1632 40.7153C57.9814 40.7531 57.8098 40.8292 57.6599 40.9385C57.51 41.0479 57.3851 41.1879 57.2937 41.3494C57.113 41.6761 57.0086 42.0394 56.9882 42.412C56.9217 43.222 57.0697 44.0352 57.4172 44.77C57.7647 45.5048 58.2996 46.1353 58.968 46.5981L58.8505 46.4631" fill="white"/>
<path d="M58.9682 46.8917C58.9091 46.8921 58.8515 46.8736 58.8037 46.8389C58.0928 46.3454 57.5238 45.6742 57.1537 44.8923C56.7836 44.1103 56.6253 43.245 56.6946 42.3827C56.7219 41.9697 56.8424 41.5683 57.0471 41.2085C57.1613 41.0107 57.3161 40.8393 57.5015 40.7057C57.6868 40.5722 57.8984 40.4794 58.1222 40.4335C58.3752 40.402 58.632 40.4285 58.8733 40.5109C59.1145 40.5933 59.3338 40.7295 59.5146 40.9091C59.8377 41.2228 60.1093 41.5853 60.3195 41.9835C60.6648 42.4726 60.8681 43.0476 60.907 43.645C60.907 43.6838 60.8992 43.7222 60.884 43.7579C60.8688 43.7936 60.8465 43.8258 60.8185 43.8527C60.7905 43.8796 60.7574 43.9005 60.7211 43.9143C60.6848 43.928 60.6461 43.9343 60.6073 43.9327C60.5688 43.9319 60.5307 43.9236 60.4954 43.9081C60.46 43.8927 60.4281 43.8704 60.4013 43.8426C60.3746 43.8148 60.3536 43.782 60.3396 43.7461C60.3255 43.7101 60.3187 43.6718 60.3195 43.6333C60.2778 43.1454 60.103 42.6784 59.8142 42.2829C59.6306 41.9374 59.397 41.6209 59.121 41.3435C59.0044 41.2262 58.8635 41.136 58.7082 41.0792C58.5528 41.0223 58.3869 41.0004 58.2221 41.0148C58.0837 41.0497 57.9544 41.1139 57.8429 41.2031C57.7314 41.2922 57.6404 41.4041 57.5758 41.5314C57.4154 41.8178 57.323 42.1372 57.3056 42.4649C57.2458 43.2055 57.3763 43.9492 57.6848 44.6253C57.9932 45.3013 58.4694 45.8875 59.0681 46.3281L59.1856 46.4573C59.2327 46.5108 59.2587 46.5797 59.2587 46.651C59.2587 46.7223 59.2327 46.7912 59.1856 46.8447C59.1218 46.8877 59.044 46.9045 58.9682 46.8917Z" fill="#002947"/>
<path d="M60.548 50.4202C59.5065 50.0423 58.5965 49.3715 57.9277 48.4886C57.9277 48.4886 57.9277 51.7765 60.7007 52.8332L60.548 50.4202Z" fill="#002947"/>
<path d="M60.7005 53.1268C60.6655 53.1324 60.6298 53.1324 60.5947 53.1268C57.6572 52.0113 57.6572 48.5415 57.6572 48.5063C57.6572 48.4427 57.6778 48.3809 57.716 48.3301C57.7541 48.2793 57.8077 48.2422 57.8687 48.2244C57.9295 48.2058 57.9947 48.2078 58.0542 48.2301C58.1137 48.2524 58.1642 48.2938 58.1977 48.3477C58.833 49.1749 59.691 49.8042 60.6711 50.1619C60.726 50.1799 60.7741 50.2144 60.8087 50.2606C60.8434 50.3068 60.863 50.3625 60.865 50.4202L61.0177 52.8332C61.0217 52.8819 61.013 52.9307 60.9924 52.975C60.9718 53.0192 60.94 53.0574 60.9002 53.0857C60.8413 53.1244 60.7699 53.1391 60.7005 53.1268ZM58.3505 49.4221C58.4543 50.0316 58.6914 50.6106 59.0447 51.118C59.3981 51.6254 59.8592 52.0487 60.395 52.3577L60.2834 50.5964C59.572 50.3168 58.9127 49.9199 58.3329 49.4221H58.3505Z" fill="#002947"/>
<path d="M70.2246 75.5837C73.0254 78.0176 76.5173 79.516 80.2121 79.8696C83.7782 80.122 93.002 71.3976 95.4166 68.7145C97.6315 66.2369 99.3411 63.6301 99.2706 60.1603C99.2776 59.7296 99.1951 59.3022 99.0282 58.905C98.8614 58.5078 98.6138 58.1496 98.3012 57.853C98.0016 57.5947 97.6138 57.3716 97.5434 56.99C97.5434 56.8491 97.5434 56.7023 97.5081 56.5672C97.4517 56.4197 97.3477 56.2952 97.2126 56.2133C97.0775 56.1315 96.9189 56.0969 96.762 56.1152C96.4483 56.1652 96.1539 56.2991 95.9101 56.5027C94.6727 57.3564 93.6099 58.4384 92.7787 59.6907C92.5526 60.1278 92.3753 60.5886 92.25 61.0645C91.7565 62.6732 91.5097 64.2936 90.3523 65.5324C89.195 66.7712 82.6679 72.6481 80.1122 71.5561C76.9632 70.2058 74.5956 68.9435 74.5956 68.9435" fill="white"/>
<path d="M80.382 80.1866H80.2116C76.4396 79.8461 72.8729 78.3188 70.0244 75.8244C69.9969 75.7971 69.975 75.7646 69.9601 75.7289C69.9452 75.6931 69.9375 75.6547 69.9375 75.616C69.9375 75.5772 69.9452 75.5388 69.9601 75.5031C69.975 75.4673 69.9969 75.4348 70.0244 75.4075C70.0512 75.3802 70.0832 75.3585 70.1185 75.3437C70.1538 75.3288 70.1917 75.3212 70.23 75.3212C70.2683 75.3212 70.3062 75.3288 70.3415 75.3437C70.3768 75.3585 70.4088 75.3802 70.4356 75.4075C73.1974 77.7919 76.6317 79.2608 80.2645 79.6112C83.5839 79.8461 92.4258 71.6735 95.234 68.5325C97.2374 66.2898 99.0821 63.7241 99.0116 60.178C99.019 59.7832 98.9427 59.3913 98.7877 59.028C98.6328 58.6648 98.4028 58.3384 98.1127 58.0702C98.0567 58.0182 97.9979 57.9692 97.9365 57.9235C97.6063 57.7249 97.3646 57.4078 97.2609 57.0369C97.2521 56.9569 97.2521 56.8762 97.2609 56.7962C97.2647 56.7415 97.2647 56.6866 97.2609 56.6318C97.2198 56.4792 97.0024 56.3911 96.8261 56.4029C96.5679 56.4481 96.3265 56.5617 96.127 56.7316C94.9249 57.564 93.8888 58.6133 93.072 59.8257C92.8613 60.2466 92.6921 60.6871 92.5668 61.1408C92.4728 61.4579 92.3905 61.769 92.3024 62.0802C91.9499 63.3542 91.5856 64.6752 90.6104 65.7261C89.6351 66.7771 82.8848 73.0474 80.0354 71.8262C76.9099 70.4876 74.5188 69.2136 74.4953 69.2018C74.4267 69.1644 74.3758 69.1014 74.3538 69.0265C74.3317 68.9516 74.3404 68.8711 74.3778 68.8026C74.4152 68.7341 74.4783 68.6832 74.5532 68.6612C74.6281 68.6392 74.7087 68.6478 74.7773 68.6852C74.7773 68.6852 77.1684 69.9592 80.2704 71.286C82.4676 72.2195 88.5659 67.0882 90.205 65.3269C91.0804 64.3817 91.4094 63.1898 91.7619 61.9217C91.8441 61.6046 91.9322 61.2876 92.0321 60.9706C92.1641 60.4746 92.3493 59.9943 92.5844 59.538C93.4263 58.2528 94.5049 57.1391 95.7628 56.2561C96.0512 56.0243 96.3957 55.8724 96.7615 55.8158C96.9872 55.7882 97.2156 55.8399 97.4074 55.962C97.5992 56.0841 97.7426 56.269 97.8131 56.4851C97.8351 56.5834 97.8469 56.6837 97.8484 56.7845C97.8454 56.8334 97.8454 56.8824 97.8484 56.9313C97.8836 57.1309 98.0951 57.2894 98.3125 57.4655L98.5064 57.624C98.8536 57.9453 99.1289 58.3363 99.3142 58.7714C99.4995 59.2065 99.5906 59.6758 99.5815 60.1486C99.6579 63.9061 97.6428 66.6831 95.657 68.9024C93.495 71.333 84.2771 80.1866 80.382 80.1866Z" fill="#002947"/>
<path d="M66.8931 74.6384C66.8137 74.6382 66.7377 74.6066 66.6816 74.5504C64.4803 72.2805 62.4034 69.8933 60.46 67.3994C60.4372 67.3682 60.4207 67.3328 60.4116 67.2952C60.4025 67.2577 60.4009 67.2187 60.4069 67.1805C60.4129 67.1423 60.4264 67.1057 60.4466 67.0727C60.4668 67.0397 60.4933 67.0111 60.5246 66.9884C60.5547 66.9647 60.5893 66.9473 60.6263 66.9373C60.6633 66.9274 60.702 66.9251 60.74 66.9306C60.7779 66.9361 60.8143 66.9493 60.847 66.9693C60.8797 66.9893 60.9079 67.0158 60.93 67.0471C62.8591 69.5206 64.9182 71.89 67.0988 74.1453C67.1399 74.1855 67.168 74.2371 67.1794 74.2935C67.1909 74.3499 67.1852 74.4084 67.1631 74.4614C67.1409 74.5145 67.1034 74.5598 67.0553 74.5913C67.0071 74.6229 66.9507 74.6393 66.8931 74.6384Z" fill="#002947"/>
<path d="M53.387 104.076C53.3181 104.075 53.2517 104.05 53.199 104.006C53.0521 103.882 49.6211 100.964 49.6035 96.3731C49.6035 96.2963 49.6336 96.2225 49.6875 96.1676C49.7413 96.1127 49.8145 96.0811 49.8914 96.0796C49.9297 96.0796 49.9676 96.0872 50.0029 96.102C50.0382 96.1169 50.0702 96.1386 50.0971 96.1659C50.1239 96.1933 50.1449 96.2257 50.1591 96.2612C50.1732 96.2968 50.18 96.3349 50.1793 96.3731C50.1793 100.7 53.5339 103.548 53.5691 103.577C53.6146 103.616 53.6471 103.668 53.6623 103.725C53.6775 103.783 53.6747 103.844 53.6543 103.9C53.6339 103.957 53.5968 104.005 53.5479 104.04C53.4991 104.074 53.4409 104.093 53.3811 104.094L53.387 104.076Z" fill="white"/>
<path d="M63.9314 40.9223C64.0183 40.5065 63.955 40.1415 63.7898 40.107C63.6247 40.0725 63.4203 40.3816 63.3333 40.7973C63.2463 41.2131 63.3097 41.5781 63.4748 41.6127C63.64 41.6472 63.8444 41.3381 63.9314 40.9223Z" fill="#002947"/>
<path d="M42.688 69.4484H42.641C42.5641 69.434 42.4956 69.3907 42.4497 69.3273C42.4037 69.2639 42.3839 69.1854 42.3943 69.1078C42.4648 68.691 44.0804 58.7747 45.9193 55.4576C45.9382 55.4236 45.9636 55.3938 45.994 55.3696C46.0245 55.3455 46.0594 55.3277 46.0968 55.317C46.1341 55.3064 46.1732 55.3032 46.2118 55.3077C46.2504 55.3122 46.2878 55.3242 46.3217 55.3431C46.3557 55.362 46.3856 55.3873 46.4097 55.4178C46.4338 55.4482 46.4517 55.4831 46.4624 55.5204C46.473 55.5578 46.4762 55.5969 46.4717 55.6354C46.4672 55.674 46.4552 55.7113 46.4363 55.7452C44.6738 58.9685 43.0112 69.102 42.9935 69.2018C42.9833 69.2739 42.9461 69.3394 42.8894 69.3852C42.8327 69.431 42.7607 69.4535 42.688 69.4484Z" fill="#002947"/>
<path d="M199.615 103.143C199.694 101.921 199.434 100.702 198.863 99.6199C198.387 98.8332 197.659 98.205 197.265 97.3713C196.596 95.9329 197.066 94.2361 196.907 92.6744C196.772 91.3461 196.187 90.1035 195.25 89.1518C194.422 88.3181 193.353 87.7427 192.565 86.8738C191.267 85.4412 190.891 83.4275 190.157 81.6426C189.11 79.1192 187.298 76.9877 184.975 75.5485C186.385 78.3901 183.165 82.0067 184.622 84.8248C185.086 85.7172 185.974 86.3689 186.308 87.3141C187.131 89.6038 184.399 92.0814 185.274 94.3594C185.709 95.4925 186.925 96.1501 187.489 97.2245C188.247 98.6688 187.654 100.43 187.713 102.062C187.801 104.317 189.175 106.336 190.803 107.898C191.819 108.873 192.953 109.712 194.052 110.593C195.362 111.644 195.92 112.748 197.077 111.057C198.674 108.721 199.556 105.971 199.615 103.143Z" fill="#002947"/>
<path d="M201.078 104.434C200.661 102.673 200.356 100.8 201.078 99.1502C201.883 97.289 203.893 95.968 204.128 93.9543C204.28 92.6333 203.61 91.3005 203.875 89.9972C204.139 88.6938 205.203 87.8014 206.084 86.8444C208.104 84.6202 209.305 81.7752 209.491 78.7775C210.76 80.4508 212.047 82.1593 212.734 84.1437C213.422 86.1281 213.439 88.4589 212.264 90.1968C211.927 90.603 211.65 91.0558 211.442 91.5412C211.048 92.827 212.147 94.0247 212.717 95.2459C213.054 95.9417 213.195 96.7165 213.123 97.4864C213.052 98.2564 212.771 98.9921 212.311 99.614C211.136 101.052 208.933 101.616 208.369 103.366C208.226 104.019 208.159 104.687 208.17 105.356C208.045 106.513 207.579 107.606 206.831 108.498C206.083 109.39 205.087 110.039 203.969 110.364C202.6 110.693 202.629 110.153 202.383 109.008C202.042 107.464 201.454 105.972 201.078 104.434Z" fill="#002947"/>
<path d="M196.736 91.8818C195.767 88.5294 195.379 85.0302 194.357 81.6896C193.488 79.0819 192.425 76.5425 191.179 74.0924L195.344 75.8537C196.678 76.4408 198.123 77.0808 198.752 78.3842C199.844 80.6563 197.876 83.5625 199.028 85.8052C199.433 86.5919 200.162 87.1556 200.679 87.8718C201.901 89.5921 201.713 91.9816 201.043 93.9543C200.755 94.8173 199.492 99.2382 198.364 98.0288C197.911 97.5356 197.876 95.6804 197.688 95.0169C197.4 93.9543 197.036 92.9268 196.736 91.8818Z" fill="#002947"/>
<path d="M199.075 136.414C198.246 130.936 195.649 111.62 195.62 111.427L196.208 111.35C196.237 111.544 198.834 130.854 199.662 136.326L199.075 136.414Z" fill="#002947"/>
<path d="M199.921 141.598H199.333C199.386 134.664 202.206 110.129 203.645 108.556L204.074 108.955C202.834 110.311 199.973 134.136 199.921 141.598Z" fill="#002947"/>
<path d="M201.331 140.353H200.744C201.366 126.322 198.394 96.8546 198.358 96.5552L198.946 96.4965C198.969 96.7724 201.954 126.28 201.331 140.353Z" fill="#002947"/>
<path d="M191.878 120.721H207.388L206.307 138.334C206.119 141.375 203.863 143.735 201.143 143.735H198.147C195.426 143.735 193.17 141.387 192.982 138.334L191.878 120.721Z" fill="white"/>
<path d="M201.125 144.005H198.129C195.262 144.005 192.841 141.51 192.659 138.322L191.578 120.709C191.575 120.668 191.581 120.627 191.595 120.588C191.609 120.55 191.631 120.515 191.66 120.486C191.688 120.456 191.722 120.433 191.759 120.417C191.797 120.401 191.837 120.392 191.878 120.392H207.388C207.471 120.393 207.551 120.427 207.611 120.486C207.64 120.515 207.662 120.55 207.676 120.588C207.69 120.627 207.696 120.668 207.693 120.709L206.606 138.322C206.395 141.51 203.992 144.005 201.125 144.005ZM192.201 121.026L193.288 138.287C193.47 141.152 195.602 143.4 198.152 143.4H201.148C203.698 143.4 205.848 141.152 206.007 138.287L207.07 121.026H192.201Z" fill="#002947"/>
</svg>
